<?xml version="1.0" encoding="utf-8"?>
<!-- Generator: Adobe Illustrator 24.1.0, SVG Export Plug-In . SVG Version: 6.00 Build 0)  -->
<svg version="1.1" id="Layer_1" xmlns="http://www.w3.org/2000/svg" xmlns:xlink="http://www.w3.org/1999/xlink" x="0px" y="0px"
	 viewBox="0 0 100 60" style="enable-background:new 0 0 100 60;" xml:space="preserve">
<style type="text/css">
	.st0{fill:#FAC724;}
</style>
<g>
	<g id="LWPOLYLINE">
		<rect x="5.57" y="27.18" width="1.87" height="14.94"/>
	</g>
	<g id="CIRCLE">
		<path class="st0" d="M5.47,25.31c0-0.57,0.46-1.03,1.03-1.03s1.03,0.46,1.03,1.03s-0.46,1.03-1.03,1.03S5.47,25.88,5.47,25.31
			L5.47,25.31z"/>
	</g>
	<g id="LWPOLYLINE_1_">
		<path d="M9.3,28.29c1.75-1.04,3.79-1.49,5.82-1.28c1.45,0.17,2.56,1.38,2.59,2.84v12.28h-1.87V29.87
			c-0.02-0.62-0.45-1.14-1.04-1.29c-1.24-0.25-2.52-0.06-3.62,0.55v12.99H9.3V28.29z"/>
	</g>
	<g id="ARC">
		<path d="M17.71,30.01c0,0,0-0.01,0-0.01"/>
	</g>
	<g id="SPLINE">
		<path d="M22.83,40.76c0.85,0,1.45-0.2,1.8-0.6c0.35-0.4,0.52-0.95,0.52-1.64c0-0.56-0.16-1.05-0.48-1.46
			c-0.32-0.41-0.72-0.78-1.2-1.13c-0.48-0.35-1-0.68-1.56-1c-0.56-0.32-1.09-0.68-1.56-1.07c-0.48-0.39-0.88-0.85-1.2-1.37
			c-0.32-0.52-0.48-1.14-0.48-1.88c0-0.56,0.08-1.07,0.24-1.52c0.16-0.45,0.4-0.84,0.74-1.15c0.33-0.31,0.76-0.56,1.29-0.73
			c0.52-0.17,1.15-0.26,1.89-0.26c1.48,0,2.55,0.31,3.22,0.92c0.66,0.62,0.99,1.58,0.99,2.89h-1.87c0-0.34-0.03-0.65-0.1-0.93
			c-0.07-0.28-0.18-0.52-0.35-0.72c-0.17-0.2-0.41-0.35-0.71-0.45c-0.3-0.1-0.69-0.16-1.16-0.16c-0.87,0-1.47,0.19-1.8,0.57
			c-0.33,0.38-0.5,0.94-0.5,1.69c0,0.54,0.16,1,0.48,1.39c0.32,0.39,0.72,0.74,1.2,1.07c0.48,0.33,1,0.65,1.56,0.97
			c0.56,0.32,1.08,0.69,1.56,1.09c0.48,0.41,0.88,0.88,1.2,1.42c0.32,0.54,0.48,1.19,0.48,1.97c0,0.55-0.08,1.05-0.25,1.49
			c-0.16,0.45-0.42,0.83-0.76,1.15c-0.34,0.32-0.78,0.57-1.31,0.75c-0.53,0.18-1.16,0.27-1.9,0.27c-1.48,0-2.54-0.31-3.19-0.93
			c-0.64-0.62-0.96-1.58-0.96-2.88h1.87c0,0.75,0.16,1.31,0.48,1.68C21.33,40.58,21.93,40.76,22.83,40.76z"/>
	</g>
	<g id="LWPOLYLINE_2_">
		<polyline points="31.72,42.12 31.72,29.05 31.72,28.78 27.42,28.78 27.42,27.18 37.88,27.18 37.88,28.78 33.58,28.78 33.58,42.12 
			31.72,42.12 		"/>
	</g>
	<g id="LWPOLYLINE_3_">
		<path class="st0" d="M61.6,39.58v-9.86c0-0.52,0.42-0.93,0.93-0.93h4.67l0.56-1.61h-5.23c-1.55,0-2.8,1.25-2.8,2.8v9.34
			c0,1.55,1.25,2.8,2.8,2.8h4.67v-1.61h-4.67C62.02,40.51,61.6,40.1,61.6,39.58z"/>
	</g>
	<path class="st0" d="M74.73,27.36c-1.54-0.58-3.23-0.58-4.77,0c-1.09,0.41-1.82,1.46-1.82,2.62v12.14h1.87v-4.67h4.67v4.67h1.87
		V29.98C76.54,28.81,75.82,27.77,74.73,27.36z M74.68,35.85h-4.67v-5.86c-0.02-0.55,0.32-1.05,0.84-1.23c0.97-0.29,2.01-0.29,2.98,0
		c0.52,0.18,0.86,0.68,0.84,1.23V35.85z"/>
	<g id="SPLINE_1_">
		<path class="st0" d="M81.66,40.76c0.85,0,1.45-0.2,1.8-0.6c0.35-0.4,0.52-0.95,0.52-1.64c0-0.56-0.16-1.05-0.48-1.46
			c-0.32-0.41-0.72-0.78-1.2-1.13c-0.48-0.35-1-0.68-1.56-1c-0.56-0.32-1.09-0.68-1.56-1.07c-0.48-0.39-0.88-0.85-1.2-1.37
			c-0.32-0.52-0.48-1.14-0.48-1.88c0-0.56,0.08-1.07,0.24-1.52c0.16-0.45,0.4-0.84,0.74-1.15c0.33-0.31,0.76-0.56,1.29-0.73
			c0.52-0.17,1.15-0.26,1.89-0.26c1.48,0,2.55,0.31,3.22,0.92c0.66,0.62,0.99,1.58,0.99,2.89h-1.87c0-0.34-0.03-0.65-0.1-0.93
			c-0.07-0.28-0.18-0.52-0.35-0.72c-0.17-0.2-0.41-0.35-0.71-0.45c-0.3-0.1-0.69-0.16-1.16-0.16c-0.87,0-1.47,0.19-1.8,0.57
			c-0.33,0.38-0.5,0.94-0.5,1.69c0,0.54,0.16,1,0.48,1.39c0.32,0.39,0.72,0.74,1.2,1.07c0.48,0.33,1,0.65,1.56,0.97
			c0.56,0.32,1.08,0.69,1.56,1.09c0.48,0.41,0.88,0.88,1.2,1.42c0.32,0.54,0.48,1.19,0.48,1.97c0,0.55-0.08,1.05-0.25,1.49
			c-0.16,0.45-0.42,0.83-0.76,1.15c-0.34,0.32-0.78,0.57-1.31,0.75c-0.53,0.18-1.16,0.27-1.9,0.27c-1.48,0-2.54-0.31-3.19-0.93
			c-0.64-0.62-0.96-1.58-0.96-2.88h1.87c0,0.75,0.16,1.31,0.48,1.68C80.16,40.58,80.77,40.76,81.66,40.76z"/>
	</g>
	<path class="st0" d="M93.4,27.36c-1.54-0.58-3.23-0.58-4.77,0c-1.09,0.41-1.82,1.46-1.82,2.62v12.14h1.87v-4.67h4.67v4.67h1.87
		V29.98C95.22,28.81,94.5,27.77,93.4,27.36z M93.35,35.85h-4.67v-5.86c-0.02-0.55,0.32-1.05,0.84-1.23c0.97-0.29,2.01-0.29,2.98,0
		c0.52,0.18,0.86,0.68,0.84,1.23V35.85z"/>
	<g id="LWPOLYLINE_8_">
		<path d="M56.56,29.26v12.86h1.72V29.71c0-1.49-0.59-2.91-1.64-3.96l-5.92-5.92c-1.09-1.09-2.87-1.09-3.96,0l-5.92,5.92
			c-1.05,1.05-1.64,2.48-1.64,3.96v9.61c0,1.55,1.25,2.8,2.8,2.8h5.17c1.55,0,2.8-1.25,2.8-2.8V31.1h4.88v-1.72h-5.66
			c-0.52,0-0.93,0.42-0.93,0.93V39c0,0.77-0.63,1.4-1.4,1.4h-4.54c-0.77,0-1.4-0.63-1.4-1.4v-9.36c0-0.99,0.39-1.94,1.09-2.64
			l6.07-6.07c0.36-0.36,0.96-0.36,1.32,0l6.35,6.35C56.26,27.8,56.56,28.51,56.56,29.26z"/>
	</g>
	<g id="CIRCLE_1_">
		<path class="st0" d="M52.95,36.52c0-0.57,0.46-1.03,1.03-1.03s1.03,0.46,1.03,1.03s-0.46,1.03-1.03,1.03S52.95,37.09,52.95,36.52
			L52.95,36.52z"/>
	</g>
</g>
</svg>
