<?xml version="1.0" encoding="utf-8"?>
<!-- Generator: Adobe Illustrator 24.1.0, SVG Export Plug-In . SVG Version: 6.00 Build 0)  -->
<svg version="1.1" id="Layer_1" xmlns="http://www.w3.org/2000/svg" xmlns:xlink="http://www.w3.org/1999/xlink" x="0px" y="0px"
	 viewBox="0 0 100 60" style="enable-background:new 0 0 100 60;" xml:space="preserve">
<style type="text/css">
	.st0{fill-rule:evenodd;clip-rule:evenodd;fill:#AAAAAA;}
</style>
<path class="st0" d="M72.34,29.04c0,0.36-0.14,0.71-0.4,0.97L50.51,51.53C49.56,52.48,48.3,53,46.96,53l0,0
	c-1.34,0-2.6-0.52-3.54-1.47L27.27,35.32c-1.95-1.96-1.95-5.15,0-7.11L48.71,6.68c0.26-0.26,0.6-0.4,0.96-0.4h17.66
	c2.76,0,5.01,2.26,5.01,5.03L72.34,29.04z M68.03,8.23H50.28L28.44,30.16c-0.92,0.93-0.92,2.44,0,3.36l16.77,16.83
	c0.44,0.45,1.04,0.69,1.68,0.69c0.64,0,1.23-0.25,1.68-0.69L70.4,28.43l0-17.82C70.4,9.3,69.34,8.23,68.03,8.23z M60.33,22.65
	c-1.14,0-2.22-0.45-3.03-1.26c-0.81-0.81-1.25-1.89-1.25-3.04c0-1.15,0.45-2.23,1.25-3.04c0.81-0.81,1.88-1.26,3.03-1.26
	c1.14,0,2.22,0.45,3.03,1.26c0.81,0.81,1.25,1.89,1.25,3.04c0,1.15-0.45,2.23-1.25,3.04C62.55,22.2,61.47,22.65,60.33,22.65z
	 M62.47,16.19c-0.57-0.57-1.33-0.89-2.14-0.89c-0.81,0-1.57,0.32-2.14,0.89c-0.57,0.57-0.89,1.34-0.89,2.15
	c0,0.81,0.31,1.58,0.89,2.15c0.57,0.57,1.33,0.89,2.14,0.89c0.81,0,1.57-0.32,2.14-0.89c0.57-0.57,0.89-1.34,0.89-2.15
	C63.36,17.53,63.04,16.77,62.47,16.19z"/>
</svg>
