<?xml version="1.0" encoding="utf-8"?>
<!-- Generator: Adobe Illustrator 24.1.0, SVG Export Plug-In . SVG Version: 6.00 Build 0)  -->
<svg version="1.1" id="Layer_1" xmlns="http://www.w3.org/2000/svg" xmlns:xlink="http://www.w3.org/1999/xlink" x="0px" y="0px"
	 viewBox="0 0 96 96" style="enable-background:new 0 0 96 96;" xml:space="preserve">
<style type="text/css">
	.st0{fill-rule:evenodd;clip-rule:evenodd;fill:#ABABAB;}
</style>
<path class="st0" d="M89.86,70.86c-0.24,0.45-0.71,0.73-1.23,0.73H7.86c-0.51,0-0.98-0.28-1.22-0.73c-0.24-0.45-0.22-1,0.06-1.42
	l29.24-44.55c0.26-0.39,0.7-0.63,1.16-0.63h22.28c0.47,0,0.91,0.23,1.16,0.63L89.8,69.43C90.08,69.86,90.1,70.41,89.86,70.86z
	 M37.86,27.04L10.44,68.8h6.89l21.87-41.76H37.86z M49.64,27.04v1.39h-2.78v-1.39h-4.51L20.48,68.8h26.37v-5.57h2.78v5.57h26.37
	L54.15,27.04H49.64z M58.65,27.04H57.3L79.16,68.8h6.89L58.65,27.04z M46.86,52.1h2.78v6.96h-2.78V52.1z M46.86,42.35h2.78v5.57
	h-2.78V42.35z M46.86,35.39h2.78v4.18h-2.78V35.39z M46.86,29.82h2.78v2.78h-2.78V29.82z"/>
</svg>
