<?xml version="1.0" encoding="utf-8"?>
<!-- Generator: Adobe Illustrator 24.1.0, SVG Export Plug-In . SVG Version: 6.00 Build 0)  -->
<svg version="1.1" id="Layer_1" xmlns="http://www.w3.org/2000/svg" xmlns:xlink="http://www.w3.org/1999/xlink" x="0px" y="0px"
	 viewBox="0 0 110 110" style="enable-background:new 0 0 110 110;" xml:space="preserve">
<style type="text/css">
	.st0{fill:#EEEEEE;}
	.st1{fill-rule:evenodd;clip-rule:evenodd;fill:#AAAAAA;}
</style>
<circle class="st0" cx="55" cy="55" r="55"/>
<path class="st1" d="M76.34,54.43c0.19,0.14,0.41,0.21,0.63,0.21c0.27,0,0.55-0.11,0.75-0.31l5.18-5.2
	c0.22-0.22,0.33-0.52,0.31-0.83c-0.02-0.31-0.18-0.59-0.42-0.77l-5.29-3.94V33.01c0-0.59-0.47-1.06-1.06-1.06h-6.78
	c-0.58,0-1.06,0.48-1.06,1.06v3.96l-11.87-8.84c-0.38-0.28-0.89-0.28-1.26,0L40.12,39.47c-0.1,0.07-0.18,0.16-0.24,0.25L29.4,47.54
	c-0.25,0.18-0.4,0.47-0.42,0.77c-0.02,0.31,0.09,0.61,0.31,0.83l5.18,5.2c0.37,0.37,0.96,0.42,1.38,0.1l0.76-0.56v8.41h-5.51
	c-1.17,0-2.12,0.95-2.12,2.12v15.7c0,1.17,0.95,2.12,2.12,2.12h7.2c1.06,0,1.94-0.78,2.09-1.8l4.93,1.74
	c0.11,0.04,0.23,0.06,0.35,0.06h15.13c1.75,0,3.45-0.62,4.78-1.76l11.46-9.71c0.91-0.77,1.45-1.85,1.51-3.04
	c0.07-1.19-0.34-2.32-1.15-3.19c-0.51-0.55-1.14-0.93-1.81-1.15v-9.51L76.34,54.43z M70.71,34.07h4.66v7.95l-4.66-3.47V34.07z
	 M38.29,80.11h-7.2v-15.7h1.36h1.18h2.12h0.58h1.96v0.85c0,0,0,0,0,0v0l0,13.64c0,0.02,0,0.05,0,0.07L38.29,80.11
	C38.29,80.11,38.29,80.11,38.29,80.11z M75.85,65.98c0.41,0.44,0.62,1.02,0.59,1.62c-0.04,0.6-0.31,1.15-0.77,1.54l-11.46,9.71
	c-0.95,0.81-2.17,1.25-3.42,1.25H45.84l-5.43-1.92V66.32h7.77c1.05,0,2.06,0.31,2.93,0.89l7.09,4.73c0.32,0.21,0.53,0.53,0.59,0.91
	c0.07,0.38-0.02,0.75-0.24,1.06c-0.39,0.54-1.11,0.72-1.71,0.43l-6.06-2.9c-0.53-0.25-1.16-0.03-1.41,0.5
	c-0.25,0.53-0.03,1.16,0.5,1.42l6.06,2.9c0.48,0.23,1,0.34,1.51,0.34c1.09,0,2.15-0.51,2.83-1.44c0.57-0.78,0.79-1.73,0.62-2.68
	c-0.17-0.95-0.7-1.77-1.5-2.3l-7.09-4.73c-1.22-0.81-2.64-1.25-4.11-1.25H40.4c-0.09-0.93-0.79-1.68-1.68-1.87V52.29l17.37-12.94
	l17.37,12.94v10.96l0,0c-0.7,0.13-1.39,0.44-1.97,0.93l-8.43,7.1c-0.45,0.38-0.51,1.05-0.13,1.49c0.38,0.45,1.04,0.51,1.49,0.13
	l8.43-7.1C73.74,65.06,75.06,65.14,75.85,65.98z M56.72,37.18c-0.38-0.28-0.89-0.28-1.26,0L35.31,52.18l-3.67-3.68l9.5-7.08
	c0.1-0.07,0.18-0.16,0.24-0.25l0,0l14.7-10.88l24.44,18.21l-3.67,3.68L56.72,37.18z"/>
</svg>
