<?xml version="1.0" encoding="utf-8"?>
<!-- Generator: Adobe Illustrator 24.1.0, SVG Export Plug-In . SVG Version: 6.00 Build 0)  -->
<svg version="1.1" id="Layer_1" xmlns="http://www.w3.org/2000/svg" xmlns:xlink="http://www.w3.org/1999/xlink" x="0px" y="0px"
	 viewBox="0 0 28 28" style="enable-background:new 0 0 28 28;" xml:space="preserve">
<style type="text/css">
	.st0{fill:#FFFFFF;}
</style>
<g>
	<path class="st0" d="M10.64,17.93l0.52-0.52c0.39-0.38,0.78-0.77,1.16-1.15c0.61-0.61,1.23-1.22,1.84-1.83l0.39-0.38l-3.5-3.47
		C9.7,9.24,8.35,7.9,7.01,6.56C6.96,6.52,6.92,6.47,6.88,6.43L6.85,6.39l-0.21-0.2c-0.17-0.16-0.33-0.32-0.5-0.49
		C6.11,5.67,6.07,5.64,6.04,5.6C5.47,5.04,4.9,4.48,4.33,3.91C4.32,4.04,4.31,4.17,4.31,4.3c0,1.3,0,2.87,0,4.55
		c0,6.13-0.01,14.5,0.03,15.09c0,0.02,0.01,0.04,0.01,0.06c0,0.08,0.01,0.15,0.03,0.22c0.65-0.66,1.27-1.29,1.89-1.89
		c0.72-0.72,1.55-1.55,2.4-2.4c0.06-0.07,0.13-0.13,0.19-0.2c0.06-0.06,0.12-0.12,0.19-0.19c0.5-0.5,1.01-1.01,1.5-1.5l0.04-0.05
		C10.61,17.97,10.62,17.95,10.64,17.93z"/>
	<path class="st0" d="M4.29,23.78C4.29,23.78,4.29,23.78,4.29,23.78C4.29,23.78,4.29,23.78,4.29,23.78z M4.29,23.78
		C4.29,23.78,4.29,23.78,4.29,23.78C4.29,23.78,4.29,23.78,4.29,23.78z M4.29,23.78C4.29,23.78,4.29,23.78,4.29,23.78
		C4.29,23.78,4.29,23.78,4.29,23.78z"/>
	<path class="st0" d="M15.62,12.96c0.58-0.57,1.16-1.15,1.73-1.72c0.26-0.26,0.52-0.52,0.78-0.79c-1.44-0.87-5.78-3.32-8.79-5.03
		c-1.01-0.57-1.95-1.1-2.73-1.54v0C6.52,3.83,6.43,3.77,6.33,3.72C6.02,3.53,5.73,3.36,5.41,3.25C5.26,3.2,5.12,3.18,4.99,3.19
		C5.61,3.8,6.22,4.4,6.83,5.01C7,5.17,7.16,5.33,7.33,5.49L7.55,5.7c0.01,0.01,0.02,0.02,0.02,0.02l0.05,0.06
		C7.64,5.81,7.67,5.84,7.7,5.87c1.35,1.34,2.7,2.68,4.05,4.01l3.49,3.46L15.62,12.96z"/>
	<path class="st0" d="M4.99,3.19C5.61,3.8,6.22,4.4,6.83,5.01C6.22,4.4,5.61,3.8,4.99,3.19C4.99,3.19,4.99,3.19,4.99,3.19z"/>
	<path class="st0" d="M19.06,17.18c0.72-0.37,4.26-2.35,4.32-2.39c0.03-0.02,0.07-0.06,0.1-0.1c0.31-0.33,0.31-0.7-0.01-1.03
		c-0.16-0.17-0.37-0.3-0.56-0.4c-0.84-0.48-1.67-0.95-2.51-1.42l-0.86-0.49l-0.57-0.34l-0.12,0.13c-0.27,0.27-0.54,0.54-0.81,0.81
		c-0.58,0.58-1.15,1.15-1.73,1.72l-0.39,0.39C16.97,15.09,18.02,16.13,19.06,17.18z"/>
	<polygon class="st0" points="18.97,10.99 18.85,11.11 18.97,10.99 	"/>
	<path class="st0" d="M23.01,15.4L23.01,15.4L23.01,15.4z"/>
	<path class="st0" d="M18.6,10.75L18.6,10.75L18.6,10.75z"/>
	<path class="st0" d="M11.3,18.68l-0.02,0.02c-0.01,0.02-0.03,0.04-0.05,0.06l-0.51,0.51c-0.33,0.33-0.66,0.66-0.99,0.99
		c-0.12,0.12-0.23,0.23-0.35,0.35c-0.41,0.41-0.83,0.83-1.24,1.25l-0.63,0.64c-0.19,0.19-0.38,0.37-0.57,0.56
		c-0.73,0.73-1.34,1.34-1.75,1.76c0.17,0.02,0.34,0.02,0.45,0c0.04-0.02,0.08-0.04,0.12-0.05c0.79-0.42,6.49-3.7,9.28-5.31
		c1.13-0.65,1.98-1.14,2.24-1.29c0.13-0.07,0.26-0.15,0.38-0.22c0.16-0.09,0.31-0.19,0.47-0.28c-0.97-0.97-1.93-1.93-2.9-2.9
		C14.52,15.46,12.99,16.99,11.3,18.68z"/>
	<path class="st0" d="M18.9,17.3C18.9,17.3,18.9,17.3,18.9,17.3C18.9,17.3,18.9,17.3,18.9,17.3z"/>
</g>
</svg>
