<?xml version="1.0" encoding="utf-8"?>
<!-- Generator: Adobe Illustrator 24.1.0, SVG Export Plug-In . SVG Version: 6.00 Build 0)  -->
<svg version="1.1" id="Layer_1" xmlns="http://www.w3.org/2000/svg" xmlns:xlink="http://www.w3.org/1999/xlink" x="0px" y="0px"
	 viewBox="0 0 100 60" style="enable-background:new 0 0 100 60;" xml:space="preserve">
<style type="text/css">
	.st0{fill-rule:evenodd;clip-rule:evenodd;fill:#AAAAAA;}
</style>
<path class="st0" d="M63.71,32.56c0,0.56,0.45,1.01,1.01,1.01c0.56,0,1.01-0.45,1.01-1.01c0-0.44,0.36-0.8,0.8-0.8s0.8,0.36,0.8,0.8
	c0,1.43-1.17,2.6-2.6,2.6c-1.43,0-2.6-1.17-2.6-2.6c0-0.44,0.36-0.8,0.8-0.8C63.36,31.77,63.71,32.12,63.71,32.56z M49.37,16.33
	c0,1.73-1.04,2.68-2.55,2.89v0.48c0,0.17-0.21,0.32-0.42,0.32c-0.24,0-0.41-0.15-0.41-0.32v-0.44c-1.74-0.03-2.92-0.97-2.92-1.66
	c0-0.34,0.29-0.8,0.64-0.8c0.46,0,0.84,0.98,2.27,1.09v-3.3c-1.26-0.45-2.67-0.95-2.67-2.75c0-1.77,1.33-2.47,2.67-2.61V8.84
	c0-0.17,0.17-0.32,0.41-0.32c0.21,0,0.42,0.15,0.42,0.32v0.38c0.95,0.03,2.3,0.32,2.3,1.01c0,0.27-0.2,0.8-0.62,0.8
	c-0.34,0-0.7-0.45-1.68-0.52v2.85C48.04,13.81,49.37,14.43,49.37,16.33z M46.07,10.54c-0.79,0.1-1.35,0.45-1.35,1.18
	c0,0.8,0.6,1.09,1.35,1.38V10.54z M46.73,14.92v2.96c0.76-0.14,1.23-0.59,1.23-1.39C47.97,15.61,47.42,15.21,46.73,14.92z M74,41.34
	l-3.61,1.16c-0.2,0.06-0.37,0.21-0.48,0.4c-1.55,2.68-3.94,4.88-7.12,6.57l-1.13,5.96C61.48,56.33,60.68,57,59.74,57h-3.76
	c-0.94,0-1.74-0.67-1.92-1.59l-0.58-3.06c-1.6,0.22-3.24,0.34-4.88,0.34c-1.2,0-2.38-0.06-3.52-0.18l-0.55,2.91
	C44.37,56.33,43.56,57,42.63,57h-3.76c-0.94,0-1.74-0.67-1.91-1.59l-1.08-5.62c-2.62-1.43-4.68-3.33-6.11-5.64
	c-1.56-2.51-2.35-5.47-2.35-8.78c0-0.44,0.02-0.88,0.04-1.31c0,0,0,0,0,0c-0.14-0.01-0.28-0.03-0.43-0.04
	c-0.15,0.33-0.34,0.64-0.58,0.94c-1.51,1.89-3.08,2.25-4.05,2.25c-0.06,0-0.12,0-0.18,0c-0.45-0.02-0.8-0.38-0.8-0.83v0
	c0-0.45,0.36-0.82,0.81-0.83c0.77-0.03,1.96-0.31,2.97-1.57c0.06-0.07,0.11-0.14,0.16-0.21c-1.71-0.37-2.74-0.95-3.14-1.78
	c-0.24-0.49-0.36-1.28,0.4-2.29c0.52-0.69,1.28-1.03,2.07-0.92c1.01,0.13,1.95,0.96,2.42,2.11c0.21,0.52,0.31,1.06,0.29,1.59
	c0.08,0.01,0.15,0.01,0.23,0.02l0,0c0.72-4.92,3.34-8.8,7.69-11.32c0.38-0.22,0.87-0.09,1.09,0.29c0.22,0.38,0.09,0.87-0.29,1.09
	c-2.24,1.3-3.98,2.99-5.17,5.05c-1.28,2.2-1.92,4.82-1.92,7.78c0,5.86,2.68,10.39,7.76,13.1c0.34,0.18,0.57,0.5,0.64,0.87l1.11,5.78
	c0.03,0.17,0.18,0.29,0.35,0.29h3.76c0.17,0,0.32-0.12,0.35-0.29l0.61-3.21c0.12-0.64,0.73-1.09,1.38-1.01
	c1.18,0.14,2.4,0.21,3.65,0.21c1.67,0,3.34-0.12,4.96-0.37c0.67-0.1,1.3,0.34,1.42,1.01l0.64,3.38c0.03,0.17,0.18,0.29,0.35,0.29
	h3.76c0.17,0,0.32-0.12,0.35-0.29L61.25,49c0.07-0.38,0.31-0.7,0.65-0.88c2.98-1.55,5.21-3.58,6.62-6.03
	c0.31-0.54,0.8-0.93,1.38-1.12l3.61-1.16c0.59-0.19,0.98-0.73,0.98-1.35v-3.71c0-0.62-0.39-1.16-0.98-1.35l-2.24-0.72
	c-0.78-0.25-1.39-0.87-1.64-1.65c-0.42-1.33-1.05-2.59-1.88-3.73c-0.2-0.28-0.42-0.55-0.65-0.82c-0.5,1.34-1.12,2.23-1.87,2.66
	c-0.66,0.37-1.56,0.59-2.54,0.59c-1.3,0-2.73-0.38-3.92-1.24c-1.01-0.74-1.72-1.73-2.11-2.97c-0.44-1.37-0.46-3-0.08-4.84
	c0.01-0.04,0.02-0.07,0.03-0.1c-0.28-0.07-0.57-0.14-0.85-0.2c-0.21-0.05-0.43-0.09-0.65-0.13c-0.4,0.61-0.86,1.18-1.39,1.7
	c-0.59,0.59-1.24,1.1-1.92,1.53h0c0.5,0.13,0.99,0.27,1.47,0.44c0.42,0.14,0.64,0.59,0.5,1.01c-0.11,0.33-0.42,0.54-0.75,0.54
	c-0.08,0-0.17-0.01-0.25-0.04c-4.34-1.45-9.12-1.45-13.46,0c-0.42,0.14-0.87-0.09-1.01-0.5c-0.14-0.42,0.09-0.87,0.5-1.01
	c0.49-0.16,0.98-0.31,1.47-0.44h0c-0.68-0.43-1.32-0.94-1.92-1.53c-2.05-2.05-3.18-4.78-3.18-7.68c0-2.9,1.13-5.63,3.18-7.68
	c2.05-2.05,4.78-3.18,7.68-3.18c2.9,0,5.63,1.13,7.68,3.18c0.82,0.82,1.5,1.76,2.02,2.8c0.2,0.39,0.04,0.87-0.35,1.07
	c-0.39,0.2-0.87,0.04-1.07-0.35c-0.44-0.88-1.02-1.68-1.73-2.39C50.85,5.97,48.52,5,46.04,5c-2.48,0-4.8,0.96-6.55,2.72
	c-1.75,1.75-2.71,4.08-2.71,6.56c0,2.48,0.96,4.8,2.71,6.56c0.98,0.98,2.13,1.69,3.35,2.14c2.12-0.3,4.28-0.3,6.4,0
	c1.22-0.45,2.37-1.16,3.35-2.14c1.64-1.64,2.6-3.82,2.7-6.14c0.02-0.44,0.39-0.78,0.83-0.76c0.44,0.02,0.78,0.39,0.76,0.83
	c-0.06,1.41-0.4,2.77-0.97,4.03c0.06,0.01,0.12,0.02,0.18,0.04c0.49,0.11,0.98,0.23,1.46,0.35c0.14-0.11,0.3-0.2,0.47-0.28
	c7.1-3.25,8.41-2.56,8.84-2.34c0.8,0.42,1.21,1.61,1.24,3.64c0.02,1.42-0.16,3.06-0.49,4.51c0.52,0.53,0.99,1.09,1.41,1.67
	c0.93,1.28,1.65,2.69,2.12,4.19c0.09,0.29,0.32,0.52,0.61,0.61L74,31.9c1.25,0.4,2.09,1.55,2.09,2.86v3.71
	C76.08,39.78,75.25,40.93,74,41.34z M25.62,31.46c-0.27-0.67-0.78-1.08-1.15-1.13c-0.02,0-0.05-0.01-0.08-0.01
	c-0.14,0-0.32,0.05-0.51,0.31c-0.12,0.16-0.32,0.46-0.24,0.63c0.19,0.38,1.04,0.71,2.14,0.94C25.77,31.89,25.68,31.62,25.62,31.46z
	 M66.11,17.97c-0.06-0.03-0.16-0.04-0.29-0.04c-0.85,0-3.15,0.6-7.13,2.42c-0.28,0.13-0.49,0.38-0.55,0.66l0,0
	c-0.6,2.86-0.06,5,1.57,6.2c1.63,1.19,3.79,1.09,4.73,0.56c0.83-0.47,1.65-2.71,1.95-5.33C66.71,19.79,66.37,18.24,66.11,17.97z"/>
</svg>
