<?xml version="1.0" encoding="utf-8"?>
<!-- Generator: Adobe Illustrator 24.1.0, SVG Export Plug-In . SVG Version: 6.00 Build 0)  -->
<svg version="1.1" id="Layer_1" xmlns="http://www.w3.org/2000/svg" xmlns:xlink="http://www.w3.org/1999/xlink" x="0px" y="0px"
	 viewBox="0 0 96 96" style="enable-background:new 0 0 96 96;" xml:space="preserve">
<style type="text/css">
	.st0{fill-rule:evenodd;clip-rule:evenodd;fill:#ABABAB;}
</style>
<path class="st0" d="M83.94,39.31h-7.38c-0.68,0-1.23,0.55-1.23,1.23v3.69H58.79l-1.83-6.49c-0.15-0.53-0.63-0.9-1.19-0.9h-3.83
	v-4.92h8.61c2.04,0,3.69-1.65,3.69-3.69s-1.65-3.69-3.69-3.69H35.94c-2.04,0-3.69,1.65-3.69,3.69s1.65,3.69,3.69,3.69h8.62v4.92
	h-3.83c-0.55,0-1.04,0.37-1.19,0.9l-1.83,6.49H27.33c-8.83,0.01-15.99,7.17-16,16v9.85c0,0.68,0.55,1.23,1.23,1.23h14.77
	c0.68,0,1.23-0.55,1.23-1.23v-4.92c0-2.04,1.65-3.69,3.69-3.69h1.44c1.09,5.58,6.52,9.85,13.05,9.85h3.01
	c6.53,0,11.96-4.26,13.05-9.85h12.52v3.69c0,0.68,0.55,1.23,1.23,1.23h7.38c0.68,0,1.23-0.55,1.23-1.23V40.54
	C85.17,39.86,84.62,39.31,83.94,39.31z M34.71,28.23c0-0.68,0.55-1.23,1.23-1.23h24.62c0.68,0,1.23,0.55,1.23,1.23
	c0,0.68-0.55,1.23-1.23,1.23H35.94C35.26,29.46,34.71,28.91,34.71,28.23z M47.02,31.92h2.46v4.92h-2.46V31.92z M26.09,65.15v3.69
	H13.79v-8.61c0.01-7.47,6.07-13.53,13.54-13.54h9.69L33.55,59h-1.3C28.85,59,26.1,61.76,26.09,65.15z M49.75,68.84h-3.01
	c-5.89,0-10.7-4.14-10.8-9.27l5.72-20.27h13.18l5.72,20.27C60.45,64.7,55.65,68.84,49.75,68.84z M62.95,59l-3.47-12.31h15.85V59
	H62.95z M82.71,63.92h-4.92V41.77h4.92V63.92z"/>
</svg>
