<?xml version="1.0" encoding="utf-8"?>
<!-- Generator: Adobe Illustrator 24.1.0, SVG Export Plug-In . SVG Version: 6.00 Build 0)  -->
<svg version="1.1" id="Layer_1" xmlns="http://www.w3.org/2000/svg" xmlns:xlink="http://www.w3.org/1999/xlink" x="0px" y="0px"
	 viewBox="0 0 96 96" style="enable-background:new 0 0 96 96;" xml:space="preserve">
<style type="text/css">
	.st0{fill-rule:evenodd;clip-rule:evenodd;fill:#ABABAB;}
</style>
<path class="st0" d="M76.6,57.84H63.77c-0.67,7.5-6.62,13.45-14.12,14.12c-8.57,0.77-16.14-5.55-16.91-14.12H19.92
	c-0.78,0-1.42-0.63-1.42-1.42c0.08-14.21,10.14-26.41,24.09-29.18v-7.65c0-0.78,0.63-1.42,1.42-1.42h2.83V6.84
	c0-0.78,0.63-1.42,1.42-1.42c0.78,0,1.42,0.63,1.42,1.42v11.33h2.83c0.78,0,1.42,0.63,1.42,1.42v7.65
	c13.94,2.77,24.01,14.97,24.09,29.18C78.01,57.2,77.38,57.84,76.6,57.84z M48.26,69.17c6.49-0.01,11.94-4.88,12.67-11.33H35.59
	C36.32,64.29,41.77,69.16,48.26,69.17z M51.09,21.01h-5.67v5.8c0.09-0.01,0.17-0.01,0.25-0.01c0.84-0.07,1.67-0.12,2.49-0.12h0.09
	l0.07,0.01c0.83,0,1.66,0.05,2.51,0.12c0.09,0.01,0.17,0.01,0.25,0.01V21.01z M52.31,29.8c-0.69-0.1-1.37-0.17-2.04-0.22
	c-2.02-0.15-4.05-0.07-6.06,0.22C31.61,31.78,22.11,42.28,21.38,55h53.77C74.41,42.28,64.9,31.79,52.31,29.8z M19.33,71.49
	l9.82-5.67c0.68-0.39,1.54-0.16,1.93,0.52c0.39,0.68,0.16,1.54-0.52,1.94l-9.82,5.67c-0.01,0-0.01,0.01-0.02,0.01
	c-0.68,0.39-1.55,0.15-1.93-0.53C18.41,72.74,18.65,71.87,19.33,71.49z M36.41,74.12c0.39-0.68,1.26-0.91,1.94-0.52
	c0.68,0.39,0.91,1.26,0.52,1.94l-5.67,9.81c0,0.01-0.01,0.01-0.01,0.02c-0.4,0.68-1.26,0.9-1.94,0.51c-0.67-0.4-0.9-1.26-0.51-1.94
	L36.41,74.12z M48.26,76.25c0.78,0,1.42,0.64,1.42,1.42V89c0,0.78-0.63,1.42-1.42,1.42c-0.78,0-1.42-0.63-1.42-1.42V77.67
	C46.84,76.89,47.48,76.25,48.26,76.25z M58.18,73.58c0.68-0.39,1.54-0.15,1.93,0.53l5.67,9.82c0,0,0.01,0.01,0.01,0.02
	c0.39,0.68,0.15,1.54-0.53,1.93s-1.54,0.15-1.93-0.53l-5.67-9.81c0-0.01-0.01-0.01-0.01-0.02C57.26,74.84,57.5,73.97,58.18,73.58z
	 M65.44,66.35c0.39-0.68,1.25-0.92,1.93-0.53l9.82,5.67c0.67,0.39,0.9,1.25,0.51,1.92c-0.39,0.68-1.25,0.92-1.93,0.53l-9.82-5.67
	C65.29,67.88,65.06,67.02,65.44,66.35z"/>
</svg>
