<?xml version="1.0" encoding="utf-8"?>
<!-- Generator: Adobe Illustrator 24.1.0, SVG Export Plug-In . SVG Version: 6.00 Build 0)  -->
<svg version="1.1" id="Layer_1" xmlns="http://www.w3.org/2000/svg" xmlns:xlink="http://www.w3.org/1999/xlink" x="0px" y="0px"
	 viewBox="0 0 28 28" style="enable-background:new 0 0 28 28;" xml:space="preserve">
<style type="text/css">
	.st0{fill:#FFFFFF;}
</style>
<g>
	<polygon class="st0" points="21.56,16.31 21.56,16.31 21.56,16.31 	"/>
	<polygon class="st0" points="11.79,8.14 11.79,8.14 11.79,8.14 	"/>
	<polygon class="st0" points="11.79,8.04 11.78,8.04 11.78,8.05 	"/>
	<polygon class="st0" points="11.72,8.46 11.71,8.46 11.72,8.46 	"/>
	<path class="st0" d="M7.88,18.9c0.01,0.02,0.02,0.03,0.02,0.06c0-0.02,0.01-0.05,0.01-0.07C7.9,18.89,7.89,18.89,7.88,18.9z"/>
	<polygon class="st0" points="16.02,17.94 16.02,17.94 16.02,17.94 	"/>
	<path class="st0" d="M7.6,20.31c0.01,0,0.01,0.01,0.01,0.01C7.62,20.31,7.61,20.31,7.6,20.31C7.61,20.3,7.61,20.3,7.6,20.31z"/>
	<polygon class="st0" points="16.21,8.07 16.21,8.07 16.21,8.07 16.21,8.07 16.21,8.07 	"/>
	<path class="st0" d="M15.11,7.26C15.11,7.26,15.11,7.26,15.11,7.26C15.11,7.26,15.11,7.25,15.11,7.26c-0.01,0-0.01,0-0.01,0
		c0,0,0,0,0,0.01C15.1,7.26,15.11,7.26,15.11,7.26C15.11,7.26,15.11,7.26,15.11,7.26z"/>
	<path class="st0" d="M13.25,7.41c-0.28-0.18-0.57-0.2-0.86-0.08c0.31-0.08,0.61-0.07,0.91,0.12c0,0,0-0.01,0-0.01
		C13.29,7.43,13.27,7.42,13.25,7.41z"/>
	<path class="st0" d="M14.12,8.2c-0.06,0.05-0.14,0.06-0.23,0.02C13.98,8.3,14.05,8.29,14.12,8.2z"/>
	<path class="st0" d="M14.12,8.2c-0.07,0.09-0.14,0.1-0.23,0.02c-0.02-0.01-0.04-0.02-0.05-0.03c0.03,0.1,0.08,0.18,0.17,0.25
		c0.03-0.03,0.05-0.05,0.07-0.08c0.1-0.18,0.2-0.36,0.3-0.54c-0.07,0.06-0.11,0.15-0.15,0.23C14.2,8.12,14.16,8.17,14.12,8.2z"/>
	<path class="st0" d="M15.11,7.26c0.01-0.01,0.02-0.01,0.03-0.01c-0.01,0-0.02,0-0.03-0.01C15.11,7.24,15.11,7.24,15.11,7.26
		C15.11,7.25,15.11,7.26,15.11,7.26C15.11,7.26,15.11,7.26,15.11,7.26z"/>
	<path class="st0" d="M15.14,7.24c-0.01,0-0.02,0.01-0.03,0.01c0.14,0.02,0.27,0.03,0.41,0.05c0,0,0-0.01,0-0.01
		C15.4,7.26,15.27,7.27,15.14,7.24z"/>
	<path class="st0" d="M13.31,7.45C13.31,7.45,13.31,7.45,13.31,7.45c0.04,0.05,0.09,0.1,0.14,0.15C13.43,7.53,13.37,7.48,13.31,7.45
		z"/>
	<polygon class="st0" points="13.31,7.44 13.31,7.45 13.31,7.45 	"/>
	<path class="st0" d="M9.15,20.91c0-0.01,0.01-0.03,0.02-0.04c-0.02,0.02-0.05,0.04-0.07,0.05C9.11,20.92,9.13,20.91,9.15,20.91z"/>
	<polygon class="st0" points="9.45,20.58 9.46,20.57 9.46,20.57 9.45,20.57 	"/>
	<path class="st0" d="M8.58,21.02c0.17-0.01,0.34-0.07,0.51-0.1c0.02-0.02,0.05-0.03,0.07-0.05c0.06-0.13,0.18-0.2,0.28-0.29
		c0,0,0,0,0.01-0.01c0,0,0,0,0-0.01c-0.01-0.03-0.02-0.05-0.05-0.06c0,0,0,0,0,0C9.19,20.82,8.92,20.98,8.58,21.02z"/>
	<path class="st0" d="M19,20.91c0,0.01,0,0.03,0,0.04c0,0,0,0,0,0c0.2,0.03,0.4,0.09,0.61,0.06C19.4,21.03,19.2,20.99,19,20.91z"/>
	<path class="st0" d="M17.33,14.22c0.02,0.03,0.04,0.05,0.06,0.08c0-0.02,0-0.05,0-0.08c-0.02-0.01-0.05-0.02-0.06-0.03
		c0,0-0.01,0.01-0.01,0.01C17.32,14.21,17.33,14.22,17.33,14.22z"/>
	<path class="st0" d="M17.32,14.21c-0.01,0.01-0.02,0.02-0.03,0.03c0.08,0.14,0.16,0.29,0.25,0.43c-0.02-0.03-0.02-0.07,0-0.1
		c-0.05-0.09-0.14-0.16-0.15-0.27c-0.02-0.03-0.04-0.06-0.06-0.08C17.33,14.22,17.32,14.21,17.32,14.21z"/>
	<path class="st0" d="M17.32,14.19c-0.01-0.01-0.02-0.01-0.03-0.02C17.3,14.18,17.3,14.19,17.32,14.19
		C17.31,14.2,17.32,14.2,17.32,14.19z"/>
	<path class="st0" d="M17.29,14.24L17.29,14.24c0-0.02,0.01-0.03,0.02-0.04c-0.01-0.01-0.01-0.02-0.02-0.03
		c-0.05-0.04-0.08-0.1-0.13-0.14C17.2,14.1,17.25,14.17,17.29,14.24L17.29,14.24z"/>
	<polygon class="st0" points="17.32,14.21 17.33,14.2 17.32,14.19 17.31,14.2 	"/>
	<path class="st0" d="M17.31,14.2c-0.01,0.01-0.02,0.02-0.02,0.04v0C17.3,14.23,17.31,14.22,17.31,14.2
		C17.32,14.2,17.31,14.2,17.31,14.2z"/>
	<path class="st0" d="M15.6,16.13c-0.31-0.2-0.63-0.28-1-0.28c-0.71,0.01-1.43,0.01-2.14,0c-0.13,0-0.27,0.03-0.34-0.13
		c-0.14,0.16-0.11,0.21,0.1,0.21c0.79-0.01,1.58,0.01,2.37-0.01c0.37-0.01,0.72,0.07,1.03,0.27c0.01-0.01,0.02-0.03,0.04-0.04
		C15.64,16.15,15.62,16.14,15.6,16.13z"/>
	<path class="st0" d="M16.49,17.01c-0.01-0.04-0.03-0.08-0.05-0.12c-0.09-0.09-0.14-0.2-0.16-0.33c-0.02-0.04-0.05-0.08-0.07-0.13
		c-0.08-0.15-0.17-0.3-0.25-0.45c0,0.03-0.01,0.06-0.03,0.09c-0.06,0.07-0.14,0.1-0.22,0.09c0.13,0.1,0.23,0.23,0.33,0.37
		c0.02,0.03,0.04,0.06,0.06,0.09c0.12,0.12,0.12,0.32,0.18,0.47c0.02,0.06,0.02,0.14,0.01,0.21c0.08-0.1,0.19-0.13,0.32-0.09
		c0,0,0,0,0.01,0c0,0,0,0,0,0c-0.01-0.02-0.02-0.04-0.04-0.05C16.55,17.12,16.52,17.06,16.49,17.01z"/>
	<path class="st0" d="M16.04,16.54c-0.1-0.13-0.2-0.26-0.33-0.37c0,0-0.01,0-0.01,0c0,0.03-0.02,0.05-0.07,0.03
		c0.11,0.11,0.22,0.23,0.33,0.34c0.06,0.02,0.11,0.05,0.14,0.09C16.08,16.6,16.06,16.57,16.04,16.54z"/>
	<path class="st0" d="M15.89,15.8c0.02,0.06,0.07,0.12,0.07,0.18c0.08,0.15,0.17,0.3,0.25,0.45c0.02,0.04,0.05,0.08,0.07,0.13
		c-0.01-0.05-0.01-0.1-0.01-0.16c-0.15-0.27-0.31-0.54-0.46-0.81l0,0v0C15.79,15.68,15.87,15.73,15.89,15.8z"/>
	<path class="st0" d="M16.57,17c-0.05-0.03-0.09-0.07-0.12-0.11c0.02,0.04,0.03,0.08,0.05,0.12c0.03,0.06,0.05,0.11,0.09,0.16
		c0.01,0.02,0.02,0.04,0.04,0.05c0-0.04,0-0.08,0.01-0.11c0,0,0,0,0,0c0,0,0,0,0,0C16.64,17.05,16.63,17.01,16.57,17z"/>
	<path class="st0" d="M15.69,16.17c-0.01,0-0.02-0.01-0.03-0.01c-0.01,0.01-0.02,0.03-0.04,0.04C15.68,16.21,15.69,16.2,15.69,16.17
		z"/>
	<path class="st0" d="M9.52,15.94c0.21,0,0.34-0.05,0.36-0.27c0,0,0,0,0,0c-0.1,0.15-0.24,0.2-0.42,0.19c-0.64-0.01-1.28,0-1.91,0
		c-0.18,0-0.35,0.01-0.52,0.07c-0.02,0-0.04,0-0.07,0.01c0.01,0.01,0.02,0.03,0.01,0.04c-0.01,0.02-0.01,0.02-0.02,0.02
		c0.21-0.06,0.43-0.06,0.65-0.06C8.24,15.93,8.88,15.92,9.52,15.94z"/>
	<polygon class="st0" points="9.87,15.67 9.87,15.67 9.87,15.67 	"/>
	<path class="st0" d="M16.02,17.94C16.02,17.94,16.02,17.94,16.02,17.94c0.01,0,0.01-0.01,0.01-0.01
		C16.03,17.93,16.02,17.93,16.02,17.94C16.02,17.93,16.02,17.94,16.02,17.94z"/>
	<path class="st0" d="M16.24,17.38c0-0.01,0.01-0.02,0.01-0.02c0-0.01-0.01-0.01-0.01-0.02C16.24,17.35,16.24,17.37,16.24,17.38z"/>
	<path class="st0" d="M16.16,16.86c-0.06-0.11-0.07-0.26-0.21-0.33c0.22,0.44,0.33,0.88,0.07,1.35c0.01,0.02,0,0.03,0,0.05
		c0,0,0.01,0,0.01-0.01c0.19-0.11,0.15-0.36,0.21-0.54c0,0,0,0,0,0c0-0.02,0-0.03,0-0.05C16.18,17.19,16.24,17.01,16.16,16.86z"/>
	<path class="st0" d="M16.27,17.1c-0.06-0.16-0.06-0.35-0.18-0.47c0.12,0.22,0.16,0.46,0.15,0.71c0,0.01,0.01,0.01,0.01,0.02
		c0.01-0.02,0.02-0.03,0.03-0.05C16.29,17.24,16.3,17.17,16.27,17.1z"/>
	<path class="st0" d="M16.16,16.86c0.08,0.15,0.02,0.32,0.09,0.47c0.01-0.25-0.03-0.48-0.15-0.71c-0.04-0.04-0.08-0.07-0.14-0.09
		C16.09,16.6,16.09,16.75,16.16,16.86z"/>
	<path class="st0" d="M6.25,16.66c0,0,0.01,0.01,0.01,0.01c0,0.04,0.01,0.07,0.01,0.11c0.01-0.05,0.02-0.11,0.03-0.17
		C6.29,16.63,6.27,16.65,6.25,16.66z"/>
	<path class="st0" d="M6.35,17.41c0.01,0.01,0.03,0.01,0.04,0.02c-0.02-0.04-0.04-0.08-0.06-0.12C6.34,17.34,6.35,17.38,6.35,17.41z
		"/>
	<path class="st0" d="M6.5,16.35c-0.14,0.02-0.13,0.18-0.19,0.26c-0.02,0.06-0.03,0.11-0.03,0.17c0.02,0.18,0.05,0.36,0.07,0.54
		c0.02,0.04,0.03,0.08,0.06,0.12c0.03,0.01,0.06,0.03,0.1,0.03C6.3,17.09,6.28,16.72,6.5,16.35z"/>
	<path class="st0" d="M12.01,11.75c0.01,0.02,0.01,0.04,0,0.05c0.01-0.02,0.03-0.05,0.04-0.07C12.04,11.74,12.03,11.75,12.01,11.75z
		"/>
	<path class="st0" d="M12.33,11.36c-0.13,0.09-0.11,0.31-0.28,0.38c-0.02,0.02-0.03,0.05-0.04,0.07c0,0.07-0.05,0.15-0.04,0.22v0
		C12.09,11.8,12.29,11.62,12.33,11.36z"/>
	<path class="st0" d="M10.96,13.66c0,0.02-0.01,0.05-0.02,0.07c0.01-0.02,0.03-0.05,0.04-0.07C10.98,13.66,10.97,13.66,10.96,13.66z
		"/>
	<path class="st0" d="M11.06,13.65L11.06,13.65c-0.02,0-0.05,0.01-0.07,0.01c-0.01,0.02-0.02,0.05-0.04,0.07
		c-0.02,0.06-0.04,0.12-0.03,0.18C10.96,13.82,11.01,13.73,11.06,13.65L11.06,13.65z"/>
	<path class="st0" d="M9.96,15.41c0,0.02,0,0.03-0.01,0.05c0.01-0.02,0.02-0.03,0.03-0.05C9.97,15.41,9.96,15.41,9.96,15.41z"/>
	<path class="st0" d="M9.88,15.66L9.88,15.66C9.88,15.66,9.88,15.66,9.88,15.66C9.88,15.66,9.88,15.66,9.88,15.66
		c0.11-0.05,0.14-0.16,0.19-0.27l0,0v0c-0.03,0-0.06,0.01-0.08,0.01c-0.01,0.02-0.02,0.03-0.03,0.05
		C9.93,15.53,9.9,15.59,9.88,15.66C9.87,15.66,9.87,15.66,9.88,15.66C9.88,15.66,9.88,15.66,9.88,15.66z"/>
	<polygon class="st0" points="9.88,15.66 9.87,15.67 9.88,15.67 	"/>
	<polygon class="st0" points="9.88,15.66 9.87,15.66 9.87,15.67 9.87,15.67 9.88,15.66 	"/>
	<polygon class="st0" points="13.08,14.2 13.08,14.19 13.07,14.2 	"/>
	<path class="st0" d="M13.07,14.2C13.07,14.2,13.08,14.2,13.07,14.2c-0.01-0.08,0.08-0.15,0.04-0.22c0,0,0,0,0,0
		c-0.05,0.09-0.09,0.17-0.14,0.26l0,0c0,0,0,0,0,0C13.01,14.23,13.04,14.22,13.07,14.2z"/>
	<path class="st0" d="M12.39,15.26c-0.05,0.09-0.1,0.17-0.14,0.26l0,0l0,0C12.35,15.46,12.39,15.37,12.39,15.26z"/>
	<path class="st0" d="M10.19,15.18c0.05-0.09,0.09-0.17,0.14-0.26C10.22,14.97,10.18,15.06,10.19,15.18z"/>
	<polygon class="st0" points="10.63,14.26 10.63,14.26 10.63,14.26 	"/>
	<path class="st0" d="M10.74,14.2c-0.05-0.04-0.07,0.04-0.11,0.06c0,0,0,0,0,0c0,0.03-0.01,0.07-0.03,0.1
		c0.01,0,0.03,0.01,0.04,0.02v0l0,0C10.68,14.32,10.71,14.26,10.74,14.2z"/>
	<path class="st0" d="M12.42,15.35c0.01,0.07-0.02,0.12-0.09,0.15c-0.01,0.02-0.02,0.04-0.03,0.05c-0.04,0.07-0.09,0.13-0.08,0.22
		c0.09,0.03,0.19,0.02,0.29,0.02c0.7,0,1.41,0.01,2.11,0c0.4-0.01,0.75,0.11,1.08,0.34v0c0.19-0.05,0.27-0.14,0.14-0.33
		c-0.03-0.04-0.06-0.09-0.05-0.14c-0.01-0.01-0.01-0.02-0.02-0.03c-0.1-0.18-0.21-0.36-0.31-0.54c-0.01,0.01-0.02,0.02-0.03,0.03v0
		h0l0,0l0,0c-0.79,0-1.58,0-2.37,0c-0.41,0-0.42,0-0.26-0.37c0.02-0.04,0.03-0.08,0.02-0.11c-0.12,0.22-0.24,0.43-0.36,0.65
		C12.44,15.3,12.43,15.33,12.42,15.35z"/>
	<path class="st0" d="M12.3,15.55c0.01-0.02,0.02-0.04,0.03-0.05c-0.02,0.01-0.05,0.02-0.09,0.02c-0.04,0.07-0.08,0.14-0.12,0.21
		c0.03,0.02,0.06,0.03,0.1,0.04C12.21,15.68,12.26,15.62,12.3,15.55z"/>
	<path class="st0" d="M12.45,15.28c0.12-0.21,0.24-0.43,0.36-0.65c-0.01-0.02-0.02-0.04-0.05-0.06v0l0,0
		c-0.13,0.23-0.25,0.46-0.38,0.68c0.02,0.03,0.02,0.06,0.03,0.09C12.43,15.33,12.44,15.3,12.45,15.28z"/>
	<path class="st0" d="M15.45,15.09c0.09,0.19,0.21,0.36,0.31,0.54c0.01,0.01,0.01,0.02,0.02,0.03c0-0.02,0.02-0.04,0.04-0.07
		c-0.11-0.18-0.21-0.37-0.32-0.55l0,0v0C15.48,15.06,15.46,15.07,15.45,15.09z"/>
	<path class="st0" d="M15.69,16.13L15.69,16.13c-0.32-0.23-0.68-0.34-1.08-0.34c-0.7,0.01-1.41,0-2.11,0c-0.1,0-0.19,0.01-0.29-0.02
		c0,0.01,0,0.01,0,0.02c0.1,0.08,0.21,0.04,0.32,0.04c0.69,0,1.39,0.01,2.08,0c0.36-0.01,0.7,0.07,1,0.27
		c0.02,0.01,0.04,0.03,0.06,0.04C15.68,16.14,15.68,16.13,15.69,16.13L15.69,16.13z"/>
	<path class="st0" d="M12.46,15.86c0.71,0,1.43,0.01,2.14,0c0.37-0.01,0.69,0.08,1,0.28c0.02,0.01,0.04,0.02,0.06,0.03
		c0,0,0.01-0.01,0.01-0.01c-0.02-0.01-0.04-0.03-0.06-0.04c-0.3-0.2-0.64-0.28-1-0.27c-0.69,0.01-1.39,0.01-2.08,0
		c-0.11,0-0.22,0.04-0.32-0.04c0-0.01,0-0.01,0-0.02c-0.03-0.01-0.07-0.02-0.1-0.04C12.19,15.89,12.33,15.86,12.46,15.86z"/>
	<path class="st0" d="M15.83,15.79c0.14,0.19,0.05,0.28-0.14,0.33c0,0.01,0,0.02,0,0.03c0,0,0.01,0.01,0.01,0.01
		c0.08,0.01,0.16-0.02,0.22-0.09c0.03-0.03,0.03-0.06,0.03-0.09c-0.06-0.11-0.13-0.22-0.19-0.33C15.76,15.71,15.8,15.76,15.83,15.79
		z"/>
	<polygon class="st0" points="15.69,16.17 15.7,16.17 15.69,16.16 	"/>
	<path class="st0" d="M15.96,15.99c0-0.06-0.05-0.12-0.07-0.18c-0.02-0.07-0.1-0.12-0.08-0.21v0c-0.03,0.02-0.04,0.04-0.04,0.07
		C15.84,15.77,15.9,15.88,15.96,15.99z"/>
	<path class="st0" d="M15.69,16.13L15.69,16.13c-0.01,0.01-0.01,0.01-0.02,0.02c0.01,0.01,0.01,0.01,0.02,0.02
		C15.69,16.15,15.69,16.14,15.69,16.13z"/>
	<path class="st0" d="M15.69,16.16c-0.01-0.01-0.01-0.01-0.02-0.02c0,0-0.01,0.01-0.01,0.01C15.67,16.16,15.68,16.16,15.69,16.16
		C15.69,16.16,15.69,16.16,15.69,16.16z"/>
	<path class="st0" d="M12.42,15.35c-0.03,0.05-0.06,0.1-0.09,0.15C12.4,15.47,12.43,15.42,12.42,15.35z"/>
	<path class="st0" d="M12.42,15.35c0-0.03-0.01-0.06-0.03-0.09c0,0.12-0.04,0.21-0.14,0.26l0,0c0.03,0,0.06-0.01,0.09-0.02
		C12.36,15.45,12.39,15.4,12.42,15.35z"/>
	<path class="st0" d="M16.02,17.94C16.02,17.94,16.02,17.93,16.02,17.94c-0.01,0-0.02,0.01-0.03,0.01
		C16,17.95,16.01,17.95,16.02,17.94C16.02,17.94,16.02,17.94,16.02,17.94C16.02,17.94,16.02,17.94,16.02,17.94
		C16.02,17.94,16.02,17.94,16.02,17.94z"/>
	<path class="st0" d="M24.82,9.52c-0.01-0.51,0.05-1.02-0.06-1.53c0.01-0.23,0.01-0.46-0.07-0.67v0c0.01-0.12-0.01-0.23-0.07-0.34
		c0,0,0,0,0,0c-0.04-0.28-0.12-0.56-0.26-0.8v0l0,0c-0.08-0.28-0.21-0.52-0.39-0.74c-0.16-0.28-0.35-0.53-0.6-0.74h0
		c-0.28-0.31-0.6-0.57-0.99-0.74l0,0c-0.15-0.13-0.34-0.2-0.52-0.27c-0.7-0.28-1.43-0.39-2.17-0.39c-2.98-0.01-5.95-0.01-8.93-0.01
		c-1.07,0-2.14-0.06-3.2,0.06C6.82,3.43,6.12,3.6,5.5,4.02C5.17,4.19,4.88,4.41,4.64,4.69l0,0C4.38,4.9,4.2,5.16,4.03,5.43
		C3.86,5.66,3.72,5.9,3.64,6.17C3.5,6.42,3.42,6.69,3.38,6.98C3.29,7.26,3.24,7.55,3.25,7.85c-0.12,0.81-0.06,1.61-0.06,2.42
		c0,0,0,0,0,0c0,0.58,0,1.17,0,1.75c0,1.12,0,2.24,0,3.36v0c0,1.6,0,3.2,0,4.8c0,0.07,0.02,0.13,0.03,0.2
		c-0.01,0.02,0,0.04,0.01,0.06c0.01,0.2-0.02,0.4,0.06,0.59c0.01,0.16-0.03,0.33,0.08,0.47v0c0.05,0.34,0.14,0.67,0.31,0.97
		c0,0,0,0,0,0c0,0.17,0.11,0.28,0.2,0.4c0,0,0,0,0,0c0.05,0.16,0.13,0.28,0.25,0.39c0,0,0,0,0,0c0.23,0.38,0.53,0.68,0.88,0.93
		c0.33,0.31,0.72,0.5,1.13,0.67c0.87,0.35,1.78,0.4,2.7,0.4c3.2,0.01,6.39,0,9.59,0c0.64,0,1.28,0,1.92-0.06
		c0.99-0.1,1.91-0.38,2.66-1.09c0.36-0.2,0.6-0.52,0.82-0.86c0.16-0.15,0.24-0.34,0.31-0.55c0.05-0.08,0.09-0.16,0.14-0.24h0
		c0.18-0.3,0.27-0.63,0.32-0.97c0.07-0.14,0.08-0.29,0.08-0.45c0.07-0.11,0.06-0.23,0.05-0.36c0-0.05,0-0.09,0-0.14c0,0,0,0,0,0
		c0,0,0,0,0,0c0-0.04,0.01-0.08,0.01-0.12c0,0,0,0,0,0c0.02-0.09,0.04-0.17,0.04-0.26c0-2.05,0-4.1,0-6.15c0-1.08,0-2.15,0-3.23l0,0
		C24.81,10.38,24.83,9.95,24.82,9.52z M11.79,8.04C11.78,8.04,11.78,8.04,11.79,8.04C11.78,8.04,11.78,8.04,11.79,8.04
		C11.78,8.04,11.78,8.04,11.79,8.04z M11.72,8.46C11.72,8.46,11.72,8.46,11.72,8.46C11.72,8.46,11.72,8.46,11.72,8.46
		C11.72,8.46,11.72,8.46,11.72,8.46z M10.2,19.26c-0.25,0.41-0.47,0.84-0.72,1.26c0.03,0.02,0.02,0.06-0.01,0.11
		c-0.14,0.09-0.25,0.2-0.33,0.34c-0.27,0.14-0.56,0.16-0.85,0.12c-0.01,0-0.01-0.02-0.01-0.03c0-0.01,0.01-0.02,0.01-0.03
		c-0.02-0.06-0.06-0.08-0.12-0.08c-0.26-0.15-0.44-0.36-0.55-0.64c-0.01,0-0.01-0.01-0.01-0.01c0,0,0,0,0.01-0.01l0,0
		c-0.04-0.05-0.06-0.09-0.08-0.14c0,0.01,0,0.03,0,0.04c-0.08-0.1-0.04-0.17-0.04-0.27c0.01,0.02,0.02,0.04,0.03,0.06
		c0-0.03,0-0.07,0.01-0.1c0.01-0.04,0.02-0.07,0.03-0.11c0,0-0.01-0.01-0.01-0.01c0.08-0.15,0.08-0.35,0.21-0.46
		c0.01-0.02,0.03-0.05,0.04-0.07c0.12-0.16,0.19-0.34,0.28-0.52c0.01-0.03,0.03-0.05,0.05-0.08c0.02-0.03,0.04-0.06,0.06-0.08
		c0.01-0.04,0.02-0.09,0.03-0.13c0.02-0.01,0.04-0.02,0.06-0.03c0.02-0.03,0.03-0.05,0.05-0.08c0.09-0.09,0.19-0.14,0.31-0.13
		c0.01,0,0.03,0,0.04,0c0.19-0.08,0.4-0.01,0.59-0.03c-0.03,0.02-0.07,0.04-0.11,0.05c0.49,0.02,0.89,0.23,1.18,0.65
		C10.39,19.02,10.25,19.12,10.2,19.26z M7.88,18.9c0.01,0,0.02-0.01,0.03-0.01c0,0.02-0.01,0.04-0.01,0.07
		C7.9,18.93,7.89,18.91,7.88,18.9z M21.65,17.34c-0.15,0.3-0.38,0.49-0.68,0.58c-0.01,0.01-0.02,0.02-0.05,0.03
		c-0.05,0.03-0.1,0.04-0.14,0.06l0,0c-0.41,0.04-0.83-0.07-1.24,0.06c0,0.01,0,0.02,0.01,0.02c0.05,0.03,0.08,0.06,0.11,0.12
		c0.04,0.07,0.09,0.13,0.13,0.2c0,0.03,0,0.06-0.02,0.08c0,0.01,0.01,0.01,0.01,0.02c0.04,0.07,0.08,0.15,0.12,0.21
		c0,0.01,0.01,0.01,0.01,0.02c0.09,0.02,0.07,0.15,0.13,0.2c0,0.01,0,0.02,0,0.03c0.01,0.02,0.03,0.05,0.04,0.07
		c0.03,0.05,0.05,0.1,0.08,0.15c0.01,0.01,0.02,0.03,0.03,0.04c0.05,0.02,0.08,0.06,0.07,0.13c0.02,0.03,0.03,0.06,0.05,0.09
		c0.07,0.09-0.01,0.21,0.06,0.3c0,0.02,0,0.04,0.01,0.06c0,0,0,0,0,0c0.09,0.16,0.09,0.31,0,0.47c-0.1,0.3-0.3,0.51-0.56,0.66
		c-0.08,0.13-0.08,0.14-0.2,0.14c-0.22,0.01-0.43,0.01-0.64-0.07c0-0.02,0-0.04,0-0.07c0,0,0,0,0,0c-0.2,0.02-0.3-0.12-0.4-0.27
		c0.01-0.02,0.02-0.04,0.02-0.05c-0.01-0.01-0.01-0.02-0.02-0.03c-0.25-0.4-0.47-0.81-0.71-1.22c-0.01,0.01-0.01,0.01-0.02,0.02
		c-0.02-0.09-0.11-0.15-0.11-0.25c-0.01-0.02-0.02-0.04-0.03-0.05c-0.09-0.19-0.21-0.35-0.3-0.54c-0.07-0.06-0.14-0.12-0.13-0.22
		c-0.01-0.02-0.03-0.04-0.04-0.06c-0.19-0.37-0.4-0.72-0.64-1.06c0,0.01-0.01,0.02-0.02,0.03c-0.14-0.02-0.25,0.02-0.33,0.13
		c0,0,0,0,0,0c0,0,0,0,0,0c0,0.24-0.07,0.45-0.27,0.61c-2.91,0-5.81,0-8.72,0c0-0.01,0-0.03,0-0.04c-0.32-0.02-0.6-0.14-0.82-0.4
		c-0.01-0.02-0.03-0.04-0.04-0.06c-0.03,0-0.06-0.03-0.08-0.03c-0.11-0.26-0.16-0.53-0.13-0.81c0.08-0.08,0.06-0.25,0.17-0.3
		c0.01-0.01,0.01-0.02,0.01-0.03c0.16-0.19,0.33-0.36,0.57-0.43c0.01-0.01,0.03-0.01,0.04-0.01c0.16-0.08,0.34-0.1,0.52-0.09
		c0.61,0,1.23-0.01,1.84,0c0.13,0,0.24-0.01,0.35-0.06c0.02-0.03,0.04-0.05,0.06-0.08c0.03-0.03,0.05-0.06,0.07-0.1
		c0.01-0.06,0.03-0.12,0.06-0.17c0.03-0.01,0.06-0.03,0.09-0.03c0.05-0.07,0.08-0.14,0.12-0.21c0.01-0.02,0.02-0.03,0.02-0.05
		c-0.02-0.08,0.01-0.13,0.08-0.15c0.01-0.02,0.03-0.05,0.04-0.07c0.1-0.17,0.21-0.34,0.3-0.52c0-0.01,0.01-0.01,0.01-0.02
		c0-0.03,0-0.06,0-0.09c0.04,0.01,0.06-0.08,0.09-0.08c0.07-0.09,0.13-0.19,0.18-0.29c0-0.01,0.01-0.01,0.01-0.02
		c-0.03-0.07,0.02-0.14,0.05-0.21c0.03-0.01,0.06-0.03,0.09-0.03c0,0,0,0,0-0.01c0.2-0.34,0.37-0.71,0.58-1.05
		c0.09-0.1,0.13-0.23,0.2-0.34c0.05-0.07,0.09-0.15,0.13-0.23c0-0.01,0.01-0.02,0.01-0.03c0-0.06,0.06-0.12,0.05-0.19
		c0.15-0.06,0.15-0.25,0.26-0.35c0.01-0.02,0.02-0.04,0.02-0.06c0.07-0.15,0.17-0.29,0.26-0.43c0.29-0.3,0.3-0.61,0.03-0.94
		c-0.1-0.12-0.16-0.27-0.24-0.4c-0.08-0.17-0.18-0.33-0.28-0.5c-0.15-0.3-0.34-0.58-0.24-0.94c0,0,0,0,0,0c0,0,0,0,0,0
		c0.08-0.28,0.19-0.54,0.39-0.75c0,0,0,0,0,0c0,0,0,0,0,0c0,0,0,0,0,0c0.28-0.3,0.82-0.3,1.12-0.01c0,0,0,0,0,0
		c0.14,0.03,0.28,0.07,0.21,0.27c0,0,0,0,0,0c0.1,0.16,0.21,0.33,0.31,0.49c0,0,0,0,0,0c0,0,0,0,0,0c0.23,0.1,0.29-0.06,0.39-0.22
		c0.05-0.07,0.04-0.26,0.22-0.2c0.19-0.21,0.4-0.38,0.67-0.46c0,0,0,0,0-0.01c0,0,0,0,0-0.01c-0.03-0.02-0.12-0.03-0.03-0.06
		c0.15-0.04,0.32-0.01,0.48-0.01c0,0.04,0,0.08,0,0.13c0.36,0.13,0.54,0.42,0.65,0.76c0,0,0,0,0,0c0,0,0,0,0,0c0,0,0,0,0,0
		c0.15,0.17,0.03,0.35-0.03,0.5C16.1,8.78,16.02,9,15.91,9.21c-0.1,0.16-0.2,0.32-0.29,0.5c-0.16,0.27-0.33,0.53-0.46,0.81
		c-0.18,0.31-0.36,0.62-0.53,0.94c-0.19,0.31-0.37,0.62-0.54,0.94c-0.31,0.53-0.6,1.07-0.9,1.6c-0.01,0.02-0.02,0.04-0.04,0.06
		c0,0.06-0.06,0.12-0.05,0.19c-0.03,0.01-0.05,0.03-0.08,0.03c-0.07,0.1-0.12,0.21-0.18,0.31c0.06,0.03,0.04,0.11,0.02,0.16
		c-0.11,0.26,0.03,0.28,0.23,0.28c0.66,0.01,1.32,0.03,1.98-0.02c0.1-0.01,0.2,0,0.29,0.02c0.01,0,0.01,0,0.02,0
		c-0.05-0.09-0.11-0.17-0.13-0.26c-0.02-0.04-0.04-0.07-0.06-0.11c-0.22-0.38-0.45-0.76-0.54-1.2c-0.08-0.35-0.07-0.7-0.04-1.05
		c0.1-0.37,0.18-0.75,0.4-1.07c0.09-0.12,0.15-0.26,0.27-0.36c0.05-0.02,0.09-0.03,0.14-0.02c0.02,0.01,0.04,0.02,0.06,0.03
		c0.13-0.01,0.12,0.17,0.2,0.22c0.02,0.02,0.04,0.05,0.07,0.07c0.01,0.23,0.24,0.36,0.26,0.59c0.12,0.22,0.24,0.44,0.38,0.66
		c0.06,0.14,0.14,0.26,0.22,0.39c0.01,0.03,0.03,0.05,0.04,0.08c0.03,0.01,0.06,0.02,0.09,0.03c-0.02,0.07,0.06,0.13,0.05,0.2
		c0.01,0.01,0.02,0.03,0.02,0.04c0.08,0.2,0.24,0.36,0.25,0.58c0,0.05,0.01,0.11,0.07,0.13c0.18-0.07,0.13,0.13,0.21,0.19
		c0,0,0,0,0,0c0,0,0,0,0,0c0.02,0,0.04,0,0.06,0c0.04,0.11,0.07,0.23,0.11,0.34c0.02,0.04,0.05,0.08,0.07,0.12
		c0.09,0.2,0.23,0.38,0.32,0.59c0,0.01,0.01,0.02,0.01,0.03c0.11,0,0.08,0.15,0.14,0.2c0,0.01,0,0.01,0,0.02
		c0.02,0.03,0.04,0.06,0.07,0.09c0.03,0.04,0.05,0.08,0.08,0.13c0.01,0.02,0.02,0.03,0.03,0.04c0.11,0.05,0.23,0.07,0.37,0.06
		c0.52-0.01,1.04,0.01,1.55-0.01c0.3-0.01,0.59,0.04,0.88,0.07c-0.01,0.02-0.02,0.03-0.03,0.05c0.23,0.06,0.4,0.21,0.54,0.4
		c0,0,0,0,0,0c0,0,0,0,0,0c0,0,0.01,0.01,0.01,0.01C21.76,16.65,21.79,16.98,21.65,17.34z"/>
	<path class="st0" d="M15.53,7.32c0.24,0.2,0.48,0.4,0.6,0.71c0.01,0.03,0.05,0.04,0.08,0.04c0,0,0,0,0,0
		c-0.12-0.34-0.3-0.63-0.65-0.76c-0.01,0-0.02,0-0.03,0C15.52,7.31,15.53,7.32,15.53,7.32z"/>
	<path class="st0" d="M15.53,7.32c0.24,0.2,0.48,0.4,0.6,0.71c0.01,0.03,0.05,0.04,0.08,0.04c0,0,0,0,0,0
		c-0.12-0.34-0.3-0.63-0.65-0.76c-0.01,0-0.02,0-0.03,0C15.52,7.31,15.53,7.32,15.53,7.32z"/>
	<path class="st0" d="M11.06,13.65c0.24-0.33,0.4-0.71,0.6-1.06l0,0c0.12-0.08,0.11-0.24,0.2-0.34c0,0,0,0,0,0
		c0.06-0.06,0.1-0.13,0.12-0.22v0c-0.03-0.03-0.04-0.05-0.04-0.08c0,0.01-0.01,0.02-0.01,0.03c-0.04,0.08-0.08,0.16-0.13,0.23
		c-0.07,0.11-0.11,0.24-0.2,0.34c-0.2,0.34-0.37,0.71-0.58,1.05c0,0,0,0,0,0.01C11.03,13.61,11.04,13.62,11.06,13.65z"/>
	<path class="st0" d="M11.06,13.65c0.24-0.33,0.4-0.71,0.6-1.06l0,0c0.12-0.08,0.11-0.24,0.2-0.34c0,0,0,0,0,0
		c0.06-0.06,0.1-0.13,0.12-0.22v0c-0.03-0.03-0.04-0.05-0.04-0.08c0,0.01-0.01,0.02-0.01,0.03c-0.04,0.08-0.08,0.16-0.13,0.23
		c-0.07,0.11-0.11,0.24-0.2,0.34c-0.2,0.34-0.37,0.71-0.58,1.05c0,0,0,0,0,0.01C11.03,13.61,11.04,13.62,11.06,13.65z"/>
	<path class="st0" d="M10.06,15.39c0.04-0.07,0.08-0.14,0.12-0.21c-0.02-0.03-0.02-0.06-0.03-0.09c-0.01,0.02-0.02,0.03-0.02,0.05
		c-0.03,0.07-0.07,0.15-0.12,0.21C10.03,15.35,10.05,15.36,10.06,15.39z"/>
	<path class="st0" d="M10.06,15.39c0.04-0.07,0.08-0.14,0.12-0.21c-0.02-0.03-0.02-0.06-0.03-0.09c-0.01,0.02-0.02,0.03-0.02,0.05
		c-0.03,0.07-0.07,0.15-0.12,0.21C10.03,15.35,10.05,15.36,10.06,15.39z"/>
	<path class="st0" d="M15.82,9.2c-0.09,0.16-0.18,0.31-0.26,0.47c-0.19,0.25-0.32,0.53-0.46,0.81c-0.18,0.31-0.35,0.63-0.53,0.94v0
		c-0.18,0.31-0.36,0.62-0.54,0.93c-0.3,0.54-0.61,1.08-0.91,1.62c0,0,0,0,0,0c0.03,0.03,0.04,0.05,0.04,0.08
		c0.01-0.02,0.02-0.04,0.04-0.06c0.3-0.53,0.59-1.07,0.9-1.6c0.18-0.32,0.35-0.63,0.54-0.94c0.17-0.32,0.34-0.63,0.53-0.94
		c0.14-0.28,0.31-0.54,0.46-0.81c0.08-0.17,0.18-0.34,0.29-0.5C16.02,9,16.1,8.78,16.18,8.57c0.06-0.15,0.18-0.33,0.03-0.5
		C16.25,8.51,15.99,8.84,15.82,9.2z"/>
	<path class="st0" d="M15.82,9.2c-0.09,0.16-0.18,0.31-0.26,0.47c-0.19,0.25-0.32,0.53-0.46,0.81c-0.18,0.31-0.35,0.63-0.53,0.94v0
		c-0.18,0.31-0.36,0.62-0.54,0.93c-0.3,0.54-0.61,1.08-0.91,1.62c0,0,0,0,0,0c0.03,0.03,0.04,0.05,0.04,0.08
		c0.01-0.02,0.02-0.04,0.04-0.06c0.3-0.53,0.59-1.07,0.9-1.6c0.18-0.32,0.35-0.63,0.54-0.94c0.17-0.32,0.34-0.63,0.53-0.94
		c0.14-0.28,0.31-0.54,0.46-0.81c0.08-0.17,0.18-0.34,0.29-0.5C16.02,9,16.1,8.78,16.18,8.57c0.06-0.15,0.18-0.33,0.03-0.5
		C16.25,8.51,15.99,8.84,15.82,9.2z"/>
	<path class="st0" d="M6.5,16.35C6.5,16.35,6.5,16.35,6.5,16.35c0.14-0.14,0.28-0.26,0.46-0.35l0,0l0,0c0-0.02,0-0.05,0-0.07
		C6.97,15.91,7,15.9,7.02,15.89c-0.01,0-0.03,0.01-0.04,0.01c-0.24,0.07-0.42,0.24-0.57,0.43C6.4,16.34,6.4,16.35,6.4,16.36
		C6.42,16.35,6.45,16.34,6.5,16.35C6.5,16.35,6.5,16.35,6.5,16.35z"/>
	<path class="st0" d="M6.5,16.35C6.5,16.35,6.5,16.35,6.5,16.35c0.14-0.14,0.28-0.26,0.46-0.35l0,0l0,0c0-0.02,0-0.05,0-0.07
		C6.97,15.91,7,15.9,7.02,15.89c-0.01,0-0.03,0.01-0.04,0.01c-0.24,0.07-0.42,0.24-0.57,0.43C6.4,16.34,6.4,16.35,6.4,16.36
		C6.42,16.35,6.45,16.34,6.5,16.35C6.5,16.35,6.5,16.35,6.5,16.35z"/>
	<path class="st0" d="M9.87,15.56c-0.02,0.03-0.05,0.07-0.07,0.1c-0.02,0.03-0.04,0.05-0.06,0.08c0.05-0.02,0.09-0.04,0.13-0.07
		C9.86,15.63,9.86,15.6,9.87,15.56z"/>
	<path class="st0" d="M9.87,15.56c-0.02,0.03-0.05,0.07-0.07,0.1c-0.02,0.03-0.04,0.05-0.06,0.08c0.05-0.02,0.09-0.04,0.13-0.07
		C9.86,15.63,9.86,15.6,9.87,15.56z"/>
	<path class="st0" d="M14.48,7.76c0.21-0.15,0.43-0.3,0.63-0.47c0-0.01-0.01-0.02-0.01-0.03c-0.27,0.09-0.48,0.26-0.67,0.46
		c-0.02,0.03-0.03,0.06-0.05,0.09C14.41,7.79,14.44,7.77,14.48,7.76z"/>
	<path class="st0" d="M14.48,7.76c0.21-0.15,0.43-0.3,0.63-0.47c0-0.01-0.01-0.02-0.01-0.03c-0.27,0.09-0.48,0.26-0.67,0.46
		c-0.02,0.03-0.03,0.06-0.05,0.09C14.41,7.79,14.44,7.77,14.48,7.76z"/>
	<path class="st0" d="M12.97,14.24c-0.07,0.11-0.14,0.22-0.21,0.34c0.03,0,0.06,0,0.08,0.01c0.06-0.1,0.12-0.21,0.18-0.31
		C13.01,14.28,12.99,14.27,12.97,14.24z"/>
	<path class="st0" d="M12.97,14.24c-0.07,0.11-0.14,0.22-0.21,0.34c0.03,0,0.06,0,0.08,0.01c0.06-0.1,0.12-0.21,0.18-0.31
		C13.01,14.28,12.99,14.27,12.97,14.24z"/>
	<path class="st0" d="M10.33,14.92C10.33,14.92,10.33,14.92,10.33,14.92c0.13-0.17,0.23-0.35,0.32-0.55c-0.02,0-0.04,0-0.05,0
		c0-0.01,0-0.03,0-0.04c0,0.01-0.01,0.01-0.01,0.02c-0.09,0.18-0.2,0.34-0.3,0.52c-0.01,0.02-0.03,0.04-0.04,0.07
		C10.27,14.93,10.3,14.93,10.33,14.92C10.33,14.92,10.33,14.92,10.33,14.92z"/>
	<path class="st0" d="M10.33,14.92C10.33,14.92,10.33,14.92,10.33,14.92c0.13-0.17,0.23-0.35,0.32-0.55c-0.02,0-0.04,0-0.05,0
		c0-0.01,0-0.03,0-0.04c0,0.01-0.01,0.01-0.01,0.02c-0.09,0.18-0.2,0.34-0.3,0.52c-0.01,0.02-0.03,0.04-0.04,0.07
		C10.27,14.93,10.3,14.93,10.33,14.92C10.33,14.92,10.33,14.92,10.33,14.92z"/>
	<path class="st0" d="M10.74,14.2C10.74,14.2,10.74,14.2,10.74,14.2C10.74,14.2,10.74,14.2,10.74,14.2c0.09-0.08,0.14-0.19,0.18-0.3
		v0c0,0,0,0,0,0c-0.02-0.02-0.04-0.04-0.04-0.06c0,0.01-0.01,0.01-0.01,0.02c-0.05,0.1-0.11,0.2-0.18,0.29
		C10.7,14.16,10.72,14.17,10.74,14.2z"/>
	<path class="st0" d="M10.74,14.2C10.74,14.2,10.74,14.2,10.74,14.2C10.74,14.2,10.74,14.2,10.74,14.2c0.09-0.08,0.14-0.19,0.18-0.3
		v0c0,0,0,0,0,0c-0.02-0.02-0.04-0.04-0.04-0.06c0,0.01-0.01,0.01-0.01,0.02c-0.05,0.1-0.11,0.2-0.18,0.29
		C10.7,14.16,10.72,14.17,10.74,14.2z"/>
	<path class="st0" d="M12.15,7.49c0.01-0.01,0.02-0.02,0.02-0.03c0.03-0.02,0.05-0.03,0.08-0.05c0.05-0.03,0.1-0.05,0.14-0.07
		c-0.07,0.02-0.14,0.04-0.21,0.06c0,0,0,0,0,0c0,0,0,0,0,0c-0.2,0.21-0.32,0.47-0.39,0.75c0,0,0,0,0,0
		C11.98,7.96,12.07,7.72,12.15,7.49z"/>
	<path class="st0" d="M12.15,7.49c0.01-0.01,0.02-0.02,0.02-0.03c0.03-0.02,0.05-0.03,0.08-0.05c0.05-0.03,0.1-0.05,0.14-0.07
		c-0.07,0.02-0.14,0.04-0.21,0.06c0,0,0,0,0,0c0,0,0,0,0,0c-0.2,0.21-0.32,0.47-0.39,0.75c0,0,0,0,0,0
		C11.98,7.96,12.07,7.72,12.15,7.49z"/>
	<path class="st0" d="M12.33,11.36C12.33,11.36,12.33,11.36,12.33,11.36c0.08-0.13,0.17-0.26,0.25-0.4c0.3-0.32,0.36-0.65,0.05-1
		c-0.11-0.12-0.17-0.28-0.26-0.42v0c-0.09-0.16-0.18-0.31-0.27-0.47c-0.14-0.3-0.31-0.58-0.32-0.93c-0.1,0.36,0.09,0.65,0.24,0.94
		c0.1,0.16,0.2,0.32,0.28,0.5c0.08,0.13,0.14,0.28,0.24,0.4c0.27,0.33,0.26,0.63-0.03,0.94c-0.09,0.14-0.19,0.28-0.26,0.43
		c-0.01,0.02-0.01,0.04-0.02,0.06C12.27,11.38,12.29,11.37,12.33,11.36C12.33,11.36,12.33,11.36,12.33,11.36z"/>
	<path class="st0" d="M12.33,11.36C12.33,11.36,12.33,11.36,12.33,11.36c0.08-0.13,0.17-0.26,0.25-0.4c0.3-0.32,0.36-0.65,0.05-1
		c-0.11-0.12-0.17-0.28-0.26-0.42v0c-0.09-0.16-0.18-0.31-0.27-0.47c-0.14-0.3-0.31-0.58-0.32-0.93c-0.1,0.36,0.09,0.65,0.24,0.94
		c0.1,0.16,0.2,0.32,0.28,0.5c0.08,0.13,0.14,0.28,0.24,0.4c0.27,0.33,0.26,0.63-0.03,0.94c-0.09,0.14-0.19,0.28-0.26,0.43
		c-0.01,0.02-0.01,0.04-0.02,0.06C12.27,11.38,12.29,11.37,12.33,11.36C12.33,11.36,12.33,11.36,12.33,11.36z"/>
	<path class="st0" d="M13.45,7.59c0.01,0.03,0.02,0.06,0.02,0.1c0.08,0.18,0.14,0.36,0.32,0.47c0.02,0.01,0.03,0.02,0.05,0.03
		c-0.01-0.02-0.01-0.03-0.01-0.05c0,0,0,0,0,0c-0.1-0.16-0.21-0.33-0.31-0.49c0,0,0,0,0,0c0,0,0,0,0,0
		C13.49,7.63,13.47,7.61,13.45,7.59z"/>
	<path class="st0" d="M13.45,7.59c0.01,0.03,0.02,0.06,0.02,0.1c0.08,0.18,0.14,0.36,0.32,0.47c0.02,0.01,0.03,0.02,0.05,0.03
		c-0.01-0.02-0.01-0.03-0.01-0.05c0,0,0,0,0,0c-0.1-0.16-0.21-0.33-0.31-0.49c0,0,0,0,0,0c0,0,0,0,0,0
		C13.49,7.63,13.47,7.61,13.45,7.59z"/>
	<path class="st0" d="M15.99,17.95c0.01,0,0.02-0.01,0.03-0.01c0-0.02,0-0.03,0-0.05c-2.82,0-5.64-0.01-8.46,0
		c-0.42,0-0.78-0.09-1.06-0.42c0,0,0,0,0,0v0c-0.02,0.03-0.03,0.04-0.05,0.04c0.01,0.02,0.02,0.04,0.04,0.06
		c0.22,0.27,0.5,0.38,0.82,0.4c0-0.01,0-0.02,0-0.02C10.2,17.95,13.1,17.95,15.99,17.95z"/>
	<path class="st0" d="M15.99,17.95c0.01,0,0.02-0.01,0.03-0.01c0-0.02,0-0.03,0-0.05c-2.82,0-5.64-0.01-8.46,0
		c-0.42,0-0.78-0.09-1.06-0.42c0,0,0,0,0,0v0c-0.02,0.03-0.03,0.04-0.05,0.04c0.01,0.02,0.02,0.04,0.04,0.06
		c0.22,0.27,0.5,0.38,0.82,0.4c0-0.01,0-0.02,0-0.02C10.2,17.95,13.1,17.95,15.99,17.95z"/>
	<path class="st0" d="M13.29,7.4c0.01,0,0.01,0.01,0.02,0.01c0-0.01,0-0.02,0-0.03c0,0,0,0,0,0c0,0,0,0,0,0
		c-0.31-0.3-0.84-0.29-1.12,0.01c0,0,0,0,0,0C12.55,7.17,12.92,7.13,13.29,7.4z"/>
	<path class="st0" d="M13.29,7.4c0.01,0,0.01,0.01,0.02,0.01c0-0.01,0-0.02,0-0.03c0,0,0,0,0,0c0,0,0,0,0,0
		c-0.31-0.3-0.84-0.29-1.12,0.01c0,0,0,0,0,0C12.55,7.17,12.92,7.13,13.29,7.4z"/>
	<path class="st0" d="M13.25,7.41c0.02,0.01,0.04,0.02,0.05,0.03c0-0.01,0-0.02,0-0.02c-0.01,0-0.01-0.01-0.02-0.01
		c-0.37-0.27-0.73-0.24-1.11-0.01c0.07-0.02,0.14-0.04,0.21-0.06C12.68,7.21,12.97,7.23,13.25,7.41z"/>
	<path class="st0" d="M13.25,7.41c0.02,0.01,0.04,0.02,0.05,0.03c0-0.01,0-0.02,0-0.02c-0.01,0-0.01-0.01-0.02-0.01
		c-0.37-0.27-0.73-0.24-1.11-0.01c0.07-0.02,0.14-0.04,0.21-0.06C12.68,7.21,12.97,7.23,13.25,7.41z"/>
	<path class="st0" d="M13.89,8.22c0.09,0.04,0.16,0.03,0.23-0.02c0.02-0.03,0.04-0.06,0.06-0.1c0.07-0.13,0.11-0.29,0.25-0.37
		c-0.18-0.06-0.17,0.13-0.22,0.2c-0.1,0.15-0.16,0.32-0.39,0.22c0,0,0,0,0,0C13.85,8.18,13.87,8.2,13.89,8.22z"/>
	<path class="st0" d="M13.89,8.22c0.09,0.04,0.16,0.03,0.23-0.02c0.02-0.03,0.04-0.06,0.06-0.1c0.07-0.13,0.11-0.29,0.25-0.37
		c-0.18-0.06-0.17,0.13-0.22,0.2c-0.1,0.15-0.16,0.32-0.39,0.22c0,0,0,0,0,0C13.85,8.18,13.87,8.2,13.89,8.22z"/>
	<path class="st0" d="M14.18,8.1c-0.02,0.04-0.04,0.08-0.06,0.1c0.04-0.03,0.08-0.08,0.11-0.15c0.04-0.08,0.08-0.17,0.15-0.23
		c0.02-0.03,0.03-0.06,0.05-0.09C14.29,7.81,14.25,7.97,14.18,8.1z"/>
	<path class="st0" d="M14.18,8.1c-0.02,0.04-0.04,0.08-0.06,0.1c0.04-0.03,0.08-0.08,0.11-0.15c0.04-0.08,0.08-0.17,0.15-0.23
		c0.02-0.03,0.03-0.06,0.05-0.09C14.29,7.81,14.25,7.97,14.18,8.1z"/>
	<path class="st0" d="M13.89,8.22c-0.02-0.02-0.04-0.05-0.07-0.08c0,0.02,0.01,0.03,0.01,0.05C13.86,8.2,13.88,8.21,13.89,8.22z"/>
	<path class="st0" d="M13.89,8.22c-0.02-0.02-0.04-0.05-0.07-0.08c0,0.02,0.01,0.03,0.01,0.05C13.86,8.2,13.88,8.21,13.89,8.22z"/>
	<path class="st0" d="M15.12,7.24c0.01,0,0.02,0,0.03,0.01c0.15-0.06,0.28-0.03,0.41,0.06c0-0.04,0-0.08,0-0.13
		c-0.16,0-0.33-0.03-0.48,0.01c-0.09,0.03-0.01,0.04,0.03,0.06C15.11,7.24,15.11,7.24,15.12,7.24z"/>
	<path class="st0" d="M15.12,7.24c0.01,0,0.02,0,0.03,0.01c0.15-0.06,0.28-0.03,0.41,0.06c0-0.04,0-0.08,0-0.13
		c-0.16,0-0.33-0.03-0.48,0.01c-0.09,0.03-0.01,0.04,0.03,0.06C15.11,7.24,15.11,7.24,15.12,7.24z"/>
	<path class="st0" d="M15.14,7.24c0.12,0.03,0.25,0.02,0.38,0.05c0,0,0,0.01,0,0.01c0.01,0,0.02,0,0.03,0
		C15.43,7.21,15.29,7.18,15.14,7.24z"/>
	<path class="st0" d="M15.14,7.24c0.12,0.03,0.25,0.02,0.38,0.05c0,0,0,0.01,0,0.01c0.01,0,0.02,0,0.03,0
		C15.43,7.21,15.29,7.18,15.14,7.24z"/>
	<path class="st0" d="M13.32,7.43c0.09,0.05,0.19,0.08,0.19,0.22c0.07-0.2-0.07-0.23-0.21-0.27C13.32,7.4,13.33,7.41,13.32,7.43z"/>
	<path class="st0" d="M13.32,7.43c0.09,0.05,0.19,0.08,0.19,0.22c0.07-0.2-0.07-0.23-0.21-0.27C13.32,7.4,13.33,7.41,13.32,7.43z"/>
	<path class="st0" d="M13.32,7.43C13.32,7.43,13.32,7.43,13.32,7.43c0,0.01-0.01,0.01-0.01,0.02c0.06,0.04,0.11,0.08,0.14,0.15
		c0.02,0.02,0.04,0.04,0.06,0.06c0,0,0,0,0,0C13.52,7.51,13.41,7.48,13.32,7.43z"/>
	<path class="st0" d="M13.32,7.43C13.32,7.43,13.32,7.43,13.32,7.43c0,0.01-0.01,0.01-0.01,0.02c0.06,0.04,0.11,0.08,0.14,0.15
		c0.02,0.02,0.04,0.04,0.06,0.06c0,0,0,0,0,0C13.52,7.51,13.41,7.48,13.32,7.43z"/>
	<path class="st0" d="M13.31,7.42c0.01,0,0.01,0.01,0.02,0.01c0-0.01,0-0.03-0.02-0.04c0,0,0,0,0,0C13.31,7.39,13.31,7.4,13.31,7.42
		z"/>
	<path class="st0" d="M13.31,7.42c0.01,0,0.01,0.01,0.02,0.01c0-0.01,0-0.03-0.02-0.04c0,0,0,0,0,0C13.31,7.39,13.31,7.4,13.31,7.42
		z"/>
	<path class="st0" d="M13.32,7.43C13.32,7.43,13.32,7.43,13.32,7.43c-0.01,0-0.01-0.01-0.02-0.01c0,0.01,0,0.02,0,0.02
		c0,0,0.01,0,0.01,0.01C13.32,7.44,13.32,7.44,13.32,7.43z"/>
	<path class="st0" d="M13.32,7.43C13.32,7.43,13.32,7.43,13.32,7.43c-0.01,0-0.01-0.01-0.02-0.01c0,0.01,0,0.02,0,0.02
		c0,0,0.01,0,0.01,0.01C13.32,7.44,13.32,7.44,13.32,7.43z"/>
	<path class="st0" d="M21.56,16.31c-0.02,0.01-0.03,0.02-0.06,0.04c0.16,0.32,0.22,0.65,0.07,0.99c-0.15,0.28-0.39,0.43-0.67,0.54
		l0,0c0.02,0.02,0.13,0,0.07,0.05c0.3-0.1,0.53-0.29,0.68-0.58c0.15-0.35,0.12-0.69-0.08-1.01C21.57,16.32,21.56,16.31,21.56,16.31z
		"/>
	<path class="st0" d="M21.56,16.31c-0.02,0.01-0.03,0.02-0.06,0.04c0.16,0.32,0.22,0.65,0.07,0.99c-0.15,0.28-0.39,0.43-0.67,0.54
		l0,0c0.02,0.02,0.13,0,0.07,0.05c0.3-0.1,0.53-0.29,0.68-0.58c0.15-0.35,0.12-0.69-0.08-1.01C21.57,16.32,21.56,16.31,21.56,16.31z
		"/>
	<path class="st0" d="M15.94,11.89C15.94,11.89,15.94,11.89,15.94,11.89c0.13,0.23,0.27,0.45,0.4,0.68c0,0,0,0,0,0
		c0.02,0.16,0.12,0.27,0.21,0.39c0.03,0.01,0.07,0.02,0.1,0.03c-0.01-0.03-0.03-0.05-0.04-0.08c-0.08-0.13-0.16-0.25-0.22-0.39
		c-0.13-0.22-0.25-0.44-0.38-0.66c0,0.01,0,0.01,0,0.02C15.99,11.89,15.97,11.89,15.94,11.89z"/>
	<path class="st0" d="M15.94,11.89C15.94,11.89,15.94,11.89,15.94,11.89c0.13,0.23,0.27,0.45,0.4,0.68c0,0,0,0,0,0
		c0.02,0.16,0.12,0.27,0.21,0.39c0.03,0.01,0.07,0.02,0.1,0.03c-0.01-0.03-0.03-0.05-0.04-0.08c-0.08-0.13-0.16-0.25-0.22-0.39
		c-0.13-0.22-0.25-0.44-0.38-0.66c0,0.01,0,0.01,0,0.02C15.99,11.89,15.97,11.89,15.94,11.89z"/>
	<path class="st0" d="M18.65,20.57L18.65,20.57c-0.24-0.41-0.48-0.81-0.71-1.22c0,0,0,0,0,0c-0.02,0.02-0.03,0.03-0.05,0.05
		c0.24,0.4,0.46,0.82,0.71,1.22c0.01,0.01,0.01,0.02,0.02,0.03C18.63,20.62,18.64,20.6,18.65,20.57
		C18.65,20.57,18.65,20.57,18.65,20.57z"/>
	<path class="st0" d="M18.65,20.57L18.65,20.57c-0.24-0.41-0.48-0.81-0.71-1.22c0,0,0,0,0,0c-0.02,0.02-0.03,0.03-0.05,0.05
		c0.24,0.4,0.46,0.82,0.71,1.22c0.01,0.01,0.01,0.02,0.02,0.03C18.63,20.62,18.64,20.6,18.65,20.57
		C18.65,20.57,18.65,20.57,18.65,20.57z"/>
	<path class="st0" d="M18.07,15.59C18.07,15.59,18.07,15.59,18.07,15.59c0.02,0.02,0.03,0.04,0.05,0.06c0,0,0,0,0,0
		c0.04,0.03,0.08,0.06,0.13,0.08c-0.01-0.01-0.02-0.03-0.03-0.04c-0.02-0.04-0.05-0.09-0.08-0.13c-0.02-0.03-0.05-0.06-0.07-0.09
		C18.07,15.51,18.07,15.55,18.07,15.59C18.07,15.59,18.07,15.59,18.07,15.59z"/>
	<path class="st0" d="M18.07,15.59C18.07,15.59,18.07,15.59,18.07,15.59c0.02,0.02,0.03,0.04,0.05,0.06c0,0,0,0,0,0
		c0.04,0.03,0.08,0.06,0.13,0.08c-0.01-0.01-0.02-0.03-0.03-0.04c-0.02-0.04-0.05-0.09-0.08-0.13c-0.02-0.03-0.05-0.06-0.07-0.09
		C18.07,15.51,18.07,15.55,18.07,15.59C18.07,15.59,18.07,15.59,18.07,15.59z"/>
	<path class="st0" d="M19.55,18.1c0-0.01-0.01-0.01-0.01-0.02c-0.01,0-0.01,0-0.02,0.01C19.54,18.08,19.54,18.09,19.55,18.1z"/>
	<path class="st0" d="M19.55,18.1c0-0.01-0.01-0.01-0.01-0.02c-0.01,0-0.01,0-0.02,0.01C19.54,18.08,19.54,18.09,19.55,18.1z"/>
	<path class="st0" d="M16.62,17.11c0.02,0.05,0.03,0.09,0.01,0.13c0.24,0.34,0.45,0.69,0.64,1.06c0.01,0.02,0.03,0.04,0.04,0.06
		c0-0.03,0.01-0.05,0.03-0.08C17.12,17.88,16.93,17.46,16.62,17.11z"/>
	<path class="st0" d="M16.62,17.11c0.02,0.05,0.03,0.09,0.01,0.13c0.24,0.34,0.45,0.69,0.64,1.06c0.01,0.02,0.03,0.04,0.04,0.06
		c0-0.03,0.01-0.05,0.03-0.08C17.12,17.88,16.93,17.46,16.62,17.11z"/>
	<path class="st0" d="M17.53,14.67C17.53,14.67,17.53,14.67,17.53,14.67C17.53,14.67,17.53,14.67,17.53,14.67
		c0.07,0.23,0.21,0.41,0.33,0.6c0.03-0.01,0.05-0.01,0.07-0.02c0-0.01-0.01-0.02-0.01-0.03c-0.09-0.2-0.23-0.38-0.32-0.59
		c-0.02-0.04-0.05-0.08-0.07-0.12c0.01,0.02,0.01,0.04,0.02,0.06C17.54,14.61,17.54,14.64,17.53,14.67z"/>
	<path class="st0" d="M17.53,14.67C17.53,14.67,17.53,14.67,17.53,14.67C17.53,14.67,17.53,14.67,17.53,14.67
		c0.07,0.23,0.21,0.41,0.33,0.6c0.03-0.01,0.05-0.01,0.07-0.02c0-0.01-0.01-0.02-0.01-0.03c-0.09-0.2-0.23-0.38-0.32-0.59
		c-0.02-0.04-0.05-0.08-0.07-0.12c0.01,0.02,0.01,0.04,0.02,0.06C17.54,14.61,17.54,14.64,17.53,14.67z"/>
	<path class="st0" d="M19.73,18.55C19.73,18.55,19.73,18.55,19.73,18.55c0.04,0.07,0.08,0.14,0.12,0.21c0.03-0.01,0.05-0.01,0.07,0
		c0-0.01-0.01-0.01-0.01-0.02c-0.05-0.07-0.09-0.14-0.12-0.21c0-0.01-0.01-0.01-0.01-0.02C19.77,18.52,19.75,18.53,19.73,18.55z"/>
	<path class="st0" d="M19.73,18.55C19.73,18.55,19.73,18.55,19.73,18.55c0.04,0.07,0.08,0.14,0.12,0.21c0.03-0.01,0.05-0.01,0.07,0
		c0-0.01-0.01-0.01-0.01-0.02c-0.05-0.07-0.09-0.14-0.12-0.21c0-0.01-0.01-0.01-0.01-0.02C19.77,18.52,19.75,18.53,19.73,18.55z"/>
	<path class="st0" d="M16.75,13.3L16.75,13.3c0.1,0.17,0.19,0.34,0.29,0.51c-0.02,0.06-0.01,0.11,0.03,0.16
		c0.04,0.01,0.07,0.03,0.09,0.06c-0.01-0.01-0.02-0.03-0.02-0.04c-0.06-0.02-0.07-0.07-0.07-0.13c-0.01-0.23-0.17-0.39-0.25-0.58
		c-0.01-0.01-0.02-0.03-0.02-0.04C16.79,13.26,16.78,13.28,16.75,13.3C16.75,13.3,16.75,13.3,16.75,13.3z"/>
	<path class="st0" d="M16.75,13.3L16.75,13.3c0.1,0.17,0.19,0.34,0.29,0.51c-0.02,0.06-0.01,0.11,0.03,0.16
		c0.04,0.01,0.07,0.03,0.09,0.06c-0.01-0.01-0.02-0.03-0.02-0.04c-0.06-0.02-0.07-0.07-0.07-0.13c-0.01-0.23-0.17-0.39-0.25-0.58
		c-0.01-0.01-0.02-0.03-0.02-0.04C16.79,13.26,16.78,13.28,16.75,13.3C16.75,13.3,16.75,13.3,16.75,13.3z"/>
	<path class="st0" d="M15.28,14.65c-0.18-0.38-0.43-0.73-0.52-1.15v0v0c-0.07-0.37-0.07-0.75-0.05-1.12
		c0.01-0.02,0.01-0.04,0.02-0.06c0.1-0.33,0.2-0.66,0.37-0.96c0.09-0.1,0.19-0.19,0.21-0.34c0,0,0,0,0,0c0.04,0,0.08,0,0.12-0.01
		l0,0C15.45,11,15.47,11,15.49,11c-0.02-0.01-0.04-0.02-0.06-0.03c-0.05-0.01-0.1,0-0.14,0.02c-0.11,0.1-0.18,0.24-0.27,0.36
		c-0.22,0.32-0.29,0.7-0.4,1.07c-0.03,0.35-0.04,0.7,0.04,1.05c0.1,0.44,0.33,0.82,0.54,1.2c0.02,0.04,0.04,0.08,0.06,0.11
		C15.26,14.74,15.26,14.7,15.28,14.65z"/>
	<path class="st0" d="M15.28,14.65c-0.18-0.38-0.43-0.73-0.52-1.15v0v0c-0.07-0.37-0.07-0.75-0.05-1.12
		c0.01-0.02,0.01-0.04,0.02-0.06c0.1-0.33,0.2-0.66,0.37-0.96c0.09-0.1,0.19-0.19,0.21-0.34c0,0,0,0,0,0c0.04,0,0.08,0,0.12-0.01
		l0,0C15.45,11,15.47,11,15.49,11c-0.02-0.01-0.04-0.02-0.06-0.03c-0.05-0.01-0.1,0-0.14,0.02c-0.11,0.1-0.18,0.24-0.27,0.36
		c-0.22,0.32-0.29,0.7-0.4,1.07c-0.03,0.35-0.04,0.7,0.04,1.05c0.1,0.44,0.33,0.82,0.54,1.2c0.02,0.04,0.04,0.08,0.06,0.11
		C15.26,14.74,15.26,14.7,15.28,14.65z"/>
	<path class="st0" d="M17.8,19.09C17.8,19.09,17.8,19.09,17.8,19.09c-0.08-0.2-0.19-0.38-0.32-0.55l0,0v0c0,0.03,0,0.05,0,0.08
		c-0.01-0.01-0.03-0.02-0.04-0.03c0.09,0.19,0.21,0.35,0.3,0.54c0.01,0.02,0.02,0.04,0.03,0.05C17.77,19.15,17.77,19.12,17.8,19.09
		C17.8,19.09,17.8,19.09,17.8,19.09z"/>
	<path class="st0" d="M17.8,19.09C17.8,19.09,17.8,19.09,17.8,19.09c-0.08-0.2-0.19-0.38-0.32-0.55l0,0v0c0,0.03,0,0.05,0,0.08
		c-0.01-0.01-0.03-0.02-0.04-0.03c0.09,0.19,0.21,0.35,0.3,0.54c0.01,0.02,0.02,0.04,0.03,0.05C17.77,19.15,17.77,19.12,17.8,19.09
		C17.8,19.09,17.8,19.09,17.8,19.09z"/>
	<path class="st0" d="M20.98,15.98c0.21,0.06,0.37,0.21,0.52,0.36c0.02-0.02,0.04-0.04,0.06-0.04c-0.14-0.19-0.31-0.34-0.54-0.4
		C21.01,15.94,21,15.96,20.98,15.98C20.98,15.98,20.98,15.98,20.98,15.98z"/>
	<path class="st0" d="M20.98,15.98c0.21,0.06,0.37,0.21,0.52,0.36c0.02-0.02,0.04-0.04,0.06-0.04c-0.14-0.19-0.31-0.34-0.54-0.4
		C21.01,15.94,21,15.96,20.98,15.98C20.98,15.98,20.98,15.98,20.98,15.98z"/>
	<path class="st0" d="M20.12,19.23L20.12,19.23c0.04,0,0.06,0.01,0.09,0.01c-0.01-0.01-0.02-0.03-0.03-0.04
		c-0.03-0.05-0.06-0.1-0.08-0.15c-0.01-0.02-0.03-0.05-0.04-0.07c0,0.04,0,0.08-0.01,0.12C20.05,19.16,20.06,19.21,20.12,19.23z"/>
	<path class="st0" d="M20.12,19.23L20.12,19.23c0.04,0,0.06,0.01,0.09,0.01c-0.01-0.01-0.02-0.03-0.03-0.04
		c-0.03-0.05-0.06-0.1-0.08-0.15c-0.01-0.02-0.03-0.05-0.04-0.07c0,0.04,0,0.08-0.01,0.12C20.05,19.16,20.06,19.21,20.12,19.23z"/>
	<path class="st0" d="M20.36,19.7c-0.01,0.01-0.01,0.01-0.02,0.02c-0.01,0.03-0.01,0.07,0,0.1c0.03,0.15,0.06,0.3-0.01,0.45
		c-0.09,0.29-0.32,0.46-0.51,0.67c-0.07,0.04-0.14,0.07-0.21,0.08c0.08-0.01,0.16-0.02,0.23-0.05c0.26-0.16,0.46-0.36,0.56-0.66
		c0-0.16,0-0.31,0-0.47c0,0,0,0,0,0c0,0,0,0,0,0c-0.01-0.02-0.02-0.04-0.01-0.06c-0.07-0.09,0.01-0.21-0.06-0.3
		c-0.01-0.03-0.03-0.06-0.05-0.09c0,0.03-0.01,0.07-0.02,0.11C20.29,19.56,20.33,19.63,20.36,19.7z"/>
	<path class="st0" d="M20.36,19.7c-0.01,0.01-0.01,0.01-0.02,0.02c-0.01,0.03-0.01,0.07,0,0.1c0.03,0.15,0.06,0.3-0.01,0.45
		c-0.09,0.29-0.32,0.46-0.51,0.67c-0.07,0.04-0.14,0.07-0.21,0.08c0.08-0.01,0.16-0.02,0.23-0.05c0.26-0.16,0.46-0.36,0.56-0.66
		c0-0.16,0-0.31,0-0.47c0,0,0,0,0,0c0,0,0,0,0,0c-0.01-0.02-0.02-0.04-0.01-0.06c-0.07-0.09,0.01-0.21-0.06-0.3
		c-0.01-0.03-0.03-0.06-0.05-0.09c0,0.03-0.01,0.07-0.02,0.11C20.29,19.56,20.33,19.63,20.36,19.7z"/>
	<path class="st0" d="M9.16,18.19c-0.18,0.06-0.36,0-0.55,0.01c0.02-0.01,0.04-0.02,0.06-0.03c-0.01,0-0.03,0-0.04,0
		c-0.12,0-0.23,0.04-0.31,0.13c-0.02,0.02-0.03,0.05-0.05,0.08c0.03-0.01,0.05-0.02,0.08-0.04v0v0c0.08-0.04,0.16-0.08,0.24-0.12
		c0.09,0.1,0.21,0.05,0.31,0.04c0.58-0.03,1.05,0.18,1.41,0.65c0,0,0,0,0,0c-0.06,0.1-0.12,0.21-0.18,0.31c0,0,0,0,0,0
		c-0.24,0.43-0.49,0.85-0.73,1.28v0c0.04,0,0.06,0.01,0.08,0.02c0.24-0.42,0.47-0.85,0.72-1.26c0.05-0.14,0.19-0.25,0.14-0.42
		C10.05,18.42,9.66,18.21,9.16,18.19z"/>
	<path class="st0" d="M9.16,18.19c-0.18,0.06-0.36,0-0.55,0.01c0.02-0.01,0.04-0.02,0.06-0.03c-0.01,0-0.03,0-0.04,0
		c-0.12,0-0.23,0.04-0.31,0.13c-0.02,0.02-0.03,0.05-0.05,0.08c0.03-0.01,0.05-0.02,0.08-0.04v0v0c0.08-0.04,0.16-0.08,0.24-0.12
		c0.09,0.1,0.21,0.05,0.31,0.04c0.58-0.03,1.05,0.18,1.41,0.65c0,0,0,0,0,0c-0.06,0.1-0.12,0.21-0.18,0.31c0,0,0,0,0,0
		c-0.24,0.43-0.49,0.85-0.73,1.28v0c0.04,0,0.06,0.01,0.08,0.02c0.24-0.42,0.47-0.85,0.72-1.26c0.05-0.14,0.19-0.25,0.14-0.42
		C10.05,18.42,9.66,18.21,9.16,18.19z"/>
	<path class="st0" d="M8.58,21.02c-0.1,0.01-0.2,0-0.3-0.05c-0.04-0.04-0.09-0.05-0.14-0.05c-0.17-0.21-0.29-0.46-0.52-0.61
		c0.11,0.28,0.29,0.49,0.55,0.64c0.05,0,0.1,0.02,0.12,0.08C8.39,21.04,8.49,21.04,8.58,21.02z"/>
	<path class="st0" d="M8.58,21.02c-0.1,0.01-0.2,0-0.3-0.05c-0.04-0.04-0.09-0.05-0.14-0.05c-0.17-0.21-0.29-0.46-0.52-0.61
		c0.11,0.28,0.29,0.49,0.55,0.64c0.05,0,0.1,0.02,0.12,0.08C8.39,21.04,8.49,21.04,8.58,21.02z"/>
	<path class="st0" d="M7.61,19.83L7.61,19.83C7.61,19.83,7.61,19.83,7.61,19.83c-0.02-0.02-0.03-0.04-0.05-0.05
		c-0.01,0.04-0.02,0.07-0.03,0.11c0,0.03,0,0.07-0.01,0.1c0.02,0.06,0.02,0.11,0.01,0.17c0.01,0.05,0.03,0.1,0.08,0.14l0,0
		c0,0,0,0,0,0C7.61,20.14,7.61,19.98,7.61,19.83z"/>
	<path class="st0" d="M7.61,19.83L7.61,19.83C7.61,19.83,7.61,19.83,7.61,19.83c-0.02-0.02-0.03-0.04-0.05-0.05
		c-0.01,0.04-0.02,0.07-0.03,0.11c0,0.03,0,0.07-0.01,0.1c0.02,0.06,0.02,0.11,0.01,0.17c0.01,0.05,0.03,0.1,0.08,0.14l0,0
		c0,0,0,0,0,0C7.61,20.14,7.61,19.98,7.61,19.83z"/>
	<path class="st0" d="M8.16,18.69C8.15,18.69,8.15,18.69,8.16,18.69C8.15,18.69,8.15,18.69,8.16,18.69c0.01-0.05,0.02-0.1,0.03-0.15
		c-0.02,0.03-0.04,0.06-0.06,0.08c-0.02,0.03-0.03,0.05-0.05,0.08c-0.09,0.17-0.16,0.36-0.28,0.52c-0.02,0.02-0.03,0.05-0.04,0.07
		c0.03-0.03,0.07-0.05,0.13-0.06C8.01,19.07,8.1,18.89,8.16,18.69z"/>
	<path class="st0" d="M8.16,18.69C8.15,18.69,8.15,18.69,8.16,18.69C8.15,18.69,8.15,18.69,8.16,18.69c0.01-0.05,0.02-0.1,0.03-0.15
		c-0.02,0.03-0.04,0.06-0.06,0.08c-0.02,0.03-0.03,0.05-0.05,0.08c-0.09,0.17-0.16,0.36-0.28,0.52c-0.02,0.02-0.03,0.05-0.04,0.07
		c0.03-0.03,0.07-0.05,0.13-0.06C8.01,19.07,8.1,18.89,8.16,18.69z"/>
	<path class="st0" d="M9.46,20.57c0,0-0.01,0.01-0.01,0.01c-0.09,0.12-0.18,0.21-0.28,0.29c-0.01,0.01-0.01,0.03-0.02,0.04
		c-0.02,0-0.04,0.01-0.06,0.01c-0.23,0.14-0.5,0.19-0.81,0.11c-0.01,0.01-0.01,0.02-0.01,0.03c0,0.01,0.01,0.03,0.01,0.03
		c0.3,0.04,0.58,0.02,0.85-0.12c0.08-0.14,0.2-0.25,0.33-0.34c0.03-0.05,0.04-0.09,0.01-0.11C9.47,20.54,9.46,20.55,9.46,20.57
		C9.46,20.57,9.46,20.57,9.46,20.57z"/>
	<path class="st0" d="M9.46,20.57c0,0-0.01,0.01-0.01,0.01c-0.09,0.12-0.18,0.21-0.28,0.29c-0.01,0.01-0.01,0.03-0.02,0.04
		c-0.02,0-0.04,0.01-0.06,0.01c-0.23,0.14-0.5,0.19-0.81,0.11c-0.01,0.01-0.01,0.02-0.01,0.03c0,0.01,0.01,0.03,0.01,0.03
		c0.3,0.04,0.58,0.02,0.85-0.12c0.08-0.14,0.2-0.25,0.33-0.34c0.03-0.05,0.04-0.09,0.01-0.11C9.47,20.54,9.46,20.55,9.46,20.57
		C9.46,20.57,9.46,20.57,9.46,20.57z"/>
	<path class="st0" d="M9.46,20.57c0.01-0.01,0.02-0.03,0.03-0.04C9.47,20.51,9.44,20.5,9.4,20.5C9.43,20.52,9.45,20.54,9.46,20.57z"
		/>
	<path class="st0" d="M9.46,20.57c0.01-0.01,0.02-0.03,0.03-0.04C9.47,20.51,9.44,20.5,9.4,20.5C9.43,20.52,9.45,20.54,9.46,20.57z"
		/>
	<path class="st0" d="M9.09,20.92c-0.17,0.03-0.34,0.09-0.51,0.1c-0.1,0.01-0.19,0.02-0.3,0.01C8.6,21.11,8.86,21.06,9.09,20.92z"/>
	<path class="st0" d="M9.09,20.92c-0.17,0.03-0.34,0.09-0.51,0.1c-0.1,0.01-0.19,0.02-0.3,0.01C8.6,21.11,8.86,21.06,9.09,20.92z"/>
	<path class="st0" d="M9.16,20.87c0.1-0.08,0.2-0.17,0.28-0.29C9.34,20.67,9.22,20.74,9.16,20.87z"/>
	<path class="st0" d="M9.16,20.87c0.1-0.08,0.2-0.17,0.28-0.29C9.34,20.67,9.22,20.74,9.16,20.87z"/>
	<path class="st0" d="M19.01,20.97C19,20.97,19,20.97,19.01,20.97C19,20.97,19,20.97,19.01,20.97L19.01,20.97
		C19,20.97,19,20.97,19.01,20.97C19,20.99,19,21.02,19,21.04c0.21,0.07,0.42,0.08,0.64,0.07c0.12-0.01,0.12-0.01,0.2-0.14
		C19.56,21.17,19.29,21.05,19.01,20.97z"/>
	<path class="st0" d="M19.01,20.97C19,20.97,19,20.97,19.01,20.97C19,20.97,19,20.97,19.01,20.97L19.01,20.97
		C19,20.97,19,20.97,19.01,20.97C19,20.99,19,21.02,19,21.04c0.21,0.07,0.42,0.08,0.64,0.07c0.12-0.01,0.12-0.01,0.2-0.14
		C19.56,21.17,19.29,21.05,19.01,20.97z"/>
	<path class="st0" d="M19,20.96C19,20.96,19,20.95,19,20.96c0,0,0,0.01,0,0.01c0,0,0.01,0,0.01,0c0.28,0.07,0.56,0.2,0.83-0.01
		c-0.08,0.03-0.16,0.05-0.23,0.05C19.4,21.05,19.2,20.99,19,20.96z"/>
	<path class="st0" d="M19,20.96C19,20.96,19,20.95,19,20.96c0,0,0,0.01,0,0.01c0,0,0.01,0,0.01,0c0.28,0.07,0.56,0.2,0.83-0.01
		c-0.08,0.03-0.16,0.05-0.23,0.05C19.4,21.05,19.2,20.99,19,20.96z"/>
	<path class="st0" d="M20.4,20.3c0.09-0.16,0.09-0.31,0-0.47C20.43,19.99,20.43,20.14,20.4,20.3z"/>
	<path class="st0" d="M20.4,20.3c0.09-0.16,0.09-0.31,0-0.47C20.43,19.99,20.43,20.14,20.4,20.3z"/>
	<path class="st0" d="M20.4,20.3c0.04-0.16,0.04-0.31,0-0.47c0,0,0,0,0,0C20.4,19.99,20.4,20.14,20.4,20.3z"/>
	<path class="st0" d="M20.4,20.3c0.04-0.16,0.04-0.31,0-0.47c0,0,0,0,0,0C20.4,19.99,20.4,20.14,20.4,20.3z"/>
	<path class="st0" d="M17.39,14.23c-0.01,0.03-0.01,0.05,0,0.08c0.05,0.07,0.09,0.14,0.14,0.21c-0.04-0.11-0.07-0.23-0.11-0.34
		c-0.02,0-0.04,0-0.06,0c0,0,0,0,0,0c-0.01,0.01-0.01,0.01-0.02,0.02C17.35,14.21,17.37,14.22,17.39,14.23z"/>
	<path class="st0" d="M17.39,14.23c-0.01,0.03-0.01,0.05,0,0.08c0.05,0.07,0.09,0.14,0.14,0.21c-0.04-0.11-0.07-0.23-0.11-0.34
		c-0.02,0-0.04,0-0.06,0c0,0,0,0,0,0c-0.01,0.01-0.01,0.01-0.02,0.02C17.35,14.21,17.37,14.22,17.39,14.23z"/>
	<path class="st0" d="M17.54,14.57c-0.02,0.03-0.02,0.07,0,0.1c0,0,0,0,0,0c0-0.03,0.01-0.06,0.01-0.09
		c-0.01-0.02-0.01-0.04-0.02-0.06c-0.04-0.07-0.09-0.14-0.14-0.21C17.4,14.41,17.49,14.48,17.54,14.57z"/>
	<path class="st0" d="M17.54,14.57c-0.02,0.03-0.02,0.07,0,0.1c0,0,0,0,0,0c0-0.03,0.01-0.06,0.01-0.09
		c-0.01-0.02-0.01-0.04-0.02-0.06c-0.04-0.07-0.09-0.14-0.14-0.21C17.4,14.41,17.49,14.48,17.54,14.57z"/>
	<path class="st0" d="M17.29,14.17c0.01,0.01,0.02,0.02,0.03,0.02c0.01-0.01,0.01-0.01,0.02-0.02c0,0,0,0,0,0
		c-0.07-0.06-0.02-0.26-0.21-0.19C17.23,14.01,17.25,14.1,17.29,14.17z"/>
	<path class="st0" d="M17.29,14.17c0.01,0.01,0.02,0.02,0.03,0.02c0.01-0.01,0.01-0.01,0.02-0.02c0,0,0,0,0,0
		c-0.07-0.06-0.02-0.26-0.21-0.19C17.23,14.01,17.25,14.1,17.29,14.17z"/>
	<path class="st0" d="M17.29,14.17c-0.04-0.07-0.06-0.16-0.15-0.18c0.01,0.01,0.02,0.03,0.02,0.04
		C17.21,14.07,17.24,14.13,17.29,14.17z"/>
	<path class="st0" d="M17.29,14.17c-0.04-0.07-0.06-0.16-0.15-0.18c0.01,0.01,0.02,0.03,0.02,0.04
		C17.21,14.07,17.24,14.13,17.29,14.17z"/>
	<path class="st0" d="M17.33,14.2c0.01-0.01,0.01-0.01,0.02-0.02C17.34,14.18,17.33,14.19,17.33,14.2
		C17.32,14.19,17.32,14.2,17.33,14.2z"/>
	<path class="st0" d="M17.33,14.2c0.01-0.01,0.01-0.01,0.02-0.02C17.34,14.18,17.33,14.19,17.33,14.2
		C17.32,14.19,17.32,14.2,17.33,14.2z"/>
	<path class="st0" d="M16.62,17.22C16.62,17.22,16.61,17.22,16.62,17.22c-0.14-0.05-0.25-0.01-0.33,0.09c0,0.03,0,0.06,0,0.09
		c0,0,0,0,0,0c0.08-0.11,0.19-0.16,0.33-0.13c0.01-0.01,0.01-0.02,0.02-0.03C16.63,17.24,16.62,17.23,16.62,17.22
		C16.62,17.22,16.62,17.22,16.62,17.22z"/>
	<path class="st0" d="M16.62,17.22C16.62,17.22,16.61,17.22,16.62,17.22c-0.14-0.05-0.25-0.01-0.33,0.09c0,0.03,0,0.06,0,0.09
		c0,0,0,0,0,0c0.08-0.11,0.19-0.16,0.33-0.13c0.01-0.01,0.01-0.02,0.02-0.03C16.63,17.24,16.62,17.23,16.62,17.22
		C16.62,17.22,16.62,17.22,16.62,17.22z"/>
	<path class="st0" d="M16.62,17.11C16.62,17.11,16.62,17.11,16.62,17.11c0,0.04,0,0.08-0.01,0.11c0,0.01,0.01,0.01,0.01,0.02
		C16.65,17.2,16.64,17.15,16.62,17.11z"/>
	<path class="st0" d="M16.62,17.11C16.62,17.11,16.62,17.11,16.62,17.11c0,0.04,0,0.08-0.01,0.11c0,0.01,0.01,0.01,0.01,0.02
		C16.65,17.2,16.64,17.15,16.62,17.11z"/>
	<path class="st0" d="M9.37,15.83c0.13,0,0.27,0.03,0.37-0.09c0,0,0,0,0,0c-0.11,0.05-0.23,0.06-0.35,0.06c-0.61-0.01-1.23,0-1.84,0
		c-0.18,0-0.36,0.02-0.52,0.09c0.14-0.05,0.29-0.05,0.44-0.05C8.1,15.83,8.74,15.83,9.37,15.83z"/>
	<path class="st0" d="M9.37,15.83c0.13,0,0.27,0.03,0.37-0.09c0,0,0,0,0,0c-0.11,0.05-0.23,0.06-0.35,0.06c-0.61-0.01-1.23,0-1.84,0
		c-0.18,0-0.36,0.02-0.52,0.09c0.14-0.05,0.29-0.05,0.44-0.05C8.1,15.83,8.74,15.83,9.37,15.83z"/>
	<path class="st0" d="M6.95,15.99L6.95,15.99c0.01,0,0.01-0.01,0.02-0.02c0-0.01,0-0.03-0.01-0.04c0.02,0,0.04,0,0.07-0.01
		c0.17-0.06,0.34-0.07,0.52-0.07c0.64,0,1.28,0,1.91,0c0.18,0,0.32-0.05,0.42-0.19c0,0,0,0,0,0l0,0c0,0,0,0,0,0c0,0,0,0,0,0
		c0,0,0,0,0,0c-0.04,0.03-0.09,0.05-0.13,0.07c0,0,0,0,0,0c-0.1,0.12-0.24,0.09-0.37,0.09c-0.63,0-1.27,0-1.9,0
		c-0.15,0-0.3,0-0.44,0.05C7,15.9,6.97,15.91,6.95,15.93C6.95,15.95,6.95,15.97,6.95,15.99z"/>
	<path class="st0" d="M6.95,15.99L6.95,15.99c0.01,0,0.01-0.01,0.02-0.02c0-0.01,0-0.03-0.01-0.04c0.02,0,0.04,0,0.07-0.01
		c0.17-0.06,0.34-0.07,0.52-0.07c0.64,0,1.28,0,1.91,0c0.18,0,0.32-0.05,0.42-0.19c0,0,0,0,0,0l0,0c0,0,0,0,0,0c0,0,0,0,0,0
		c0,0,0,0,0,0c-0.04,0.03-0.09,0.05-0.13,0.07c0,0,0,0,0,0c-0.1,0.12-0.24,0.09-0.37,0.09c-0.63,0-1.27,0-1.9,0
		c-0.15,0-0.3,0-0.44,0.05C7,15.9,6.97,15.91,6.95,15.93C6.95,15.95,6.95,15.97,6.95,15.99z"/>
	<path class="st0" d="M16.24,17.38c0,0.06-0.01,0.12-0.01,0.17c-0.02,0.15-0.05,0.3-0.2,0.37c0,0-0.01,0.01-0.01,0.01
		c0,0,0,0.01,0,0.01c0,0.02,0,0.04,0,0.07c0.2-0.15,0.27-0.36,0.27-0.61c0,0,0,0,0,0c-0.01-0.01-0.02-0.03-0.03-0.05
		C16.25,17.37,16.25,17.37,16.24,17.38z"/>
	<path class="st0" d="M16.24,17.38c0,0.06-0.01,0.12-0.01,0.17c-0.02,0.15-0.05,0.3-0.2,0.37c0,0-0.01,0.01-0.01,0.01
		c0,0,0,0.01,0,0.01c0,0.02,0,0.04,0,0.07c0.2-0.15,0.27-0.36,0.27-0.61c0,0,0,0,0,0c-0.01-0.01-0.02-0.03-0.03-0.05
		C16.25,17.37,16.25,17.37,16.24,17.38z"/>
	<polygon class="st0" points="16.02,17.93 16.02,17.93 16.02,17.94 	"/>
	<polygon class="st0" points="16.02,17.93 16.02,17.93 16.02,17.94 	"/>
	<path class="st0" d="M16.03,17.93c0.14-0.07,0.18-0.22,0.2-0.37c0.01-0.06,0.01-0.12,0.01-0.17c0,0,0,0,0,0
		C16.18,17.57,16.22,17.82,16.03,17.93z"/>
	<path class="st0" d="M16.03,17.93c0.14-0.07,0.18-0.22,0.2-0.37c0.01-0.06,0.01-0.12,0.01-0.17c0,0,0,0,0,0
		C16.18,17.57,16.22,17.82,16.03,17.93z"/>
	<path class="st0" d="M16.02,17.89c0,0.02,0,0.03,0,0.05c0,0,0,0,0,0C16.02,17.92,16.02,17.91,16.02,17.89z"/>
	<path class="st0" d="M16.02,17.89c0,0.02,0,0.03,0,0.05c0,0,0,0,0,0C16.02,17.92,16.02,17.91,16.02,17.89z"/>
	<path class="st0" d="M16.26,17.36c0.01,0.02,0.02,0.03,0.03,0.05c0-0.03,0-0.06,0-0.09C16.28,17.33,16.27,17.34,16.26,17.36z"/>
	<path class="st0" d="M16.26,17.36c0.01,0.02,0.02,0.03,0.03,0.05c0-0.03,0-0.06,0-0.09C16.28,17.33,16.27,17.34,16.26,17.36z"/>
	<path class="st0" d="M6.35,17.41c0-0.03-0.01-0.07-0.01-0.1c-0.07-0.18-0.09-0.35-0.07-0.54c0-0.04-0.01-0.07-0.01-0.11
		c0,0-0.01-0.01-0.01-0.01c0.02-0.01,0.04-0.03,0.06-0.05c0.02-0.08,0.05-0.16,0.09-0.25c-0.11,0.05-0.09,0.22-0.17,0.3
		c-0.03,0.28,0.02,0.55,0.13,0.81c0.03,0.01,0.06,0.03,0.08,0.03c-0.02-0.02-0.03-0.05-0.05-0.07C6.38,17.42,6.36,17.42,6.35,17.41z
		"/>
	<path class="st0" d="M6.35,17.41c0-0.03-0.01-0.07-0.01-0.1c-0.07-0.18-0.09-0.35-0.07-0.54c0-0.04-0.01-0.07-0.01-0.11
		c0,0-0.01-0.01-0.01-0.01c0.02-0.01,0.04-0.03,0.06-0.05c0.02-0.08,0.05-0.16,0.09-0.25c-0.11,0.05-0.09,0.22-0.17,0.3
		c-0.03,0.28,0.02,0.55,0.13,0.81c0.03,0.01,0.06,0.03,0.08,0.03c-0.02-0.02-0.03-0.05-0.05-0.07C6.38,17.42,6.36,17.42,6.35,17.41z
		"/>
	<path class="st0" d="M6.5,16.35C6.5,16.35,6.5,16.35,6.5,16.35c-0.04,0-0.07,0.01-0.1,0.02c-0.04,0.08-0.07,0.16-0.09,0.25
		C6.37,16.52,6.36,16.37,6.5,16.35z"/>
	<path class="st0" d="M6.5,16.35C6.5,16.35,6.5,16.35,6.5,16.35c-0.04,0-0.07,0.01-0.1,0.02c-0.04,0.08-0.07,0.16-0.09,0.25
		C6.37,16.52,6.36,16.37,6.5,16.35z"/>
	<path class="st0" d="M6.49,17.46L6.49,17.46c-0.04,0-0.07-0.02-0.1-0.03c0.01,0.02,0.03,0.05,0.05,0.07
		C6.46,17.51,6.48,17.5,6.49,17.46z"/>
	<path class="st0" d="M6.49,17.46L6.49,17.46c-0.04,0-0.07-0.02-0.1-0.03c0.01,0.02,0.03,0.05,0.05,0.07
		C6.46,17.51,6.48,17.5,6.49,17.46z"/>
	<path class="st0" d="M6.34,17.31c-0.02-0.18-0.05-0.36-0.07-0.54C6.24,16.96,6.27,17.14,6.34,17.31z"/>
	<path class="st0" d="M6.34,17.31c-0.02-0.18-0.05-0.36-0.07-0.54C6.24,16.96,6.27,17.14,6.34,17.31z"/>
	<path class="st0" d="M12.01,11.75c0.02,0,0.03-0.01,0.05-0.02c0.07-0.11,0.14-0.21,0.19-0.33c-0.11,0.1-0.11,0.29-0.26,0.35
		c0.02,0.06-0.05,0.13-0.05,0.19c0.02-0.05,0.05-0.09,0.08-0.14C12.01,11.79,12.01,11.77,12.01,11.75z"/>
	<path class="st0" d="M12.01,11.75c0.02,0,0.03-0.01,0.05-0.02c0.07-0.11,0.14-0.21,0.19-0.33c-0.11,0.1-0.11,0.29-0.26,0.35
		c0.02,0.06-0.05,0.13-0.05,0.19c0.02-0.05,0.05-0.09,0.08-0.14C12.01,11.79,12.01,11.77,12.01,11.75z"/>
	<path class="st0" d="M11.97,12.02c-0.01-0.07,0.03-0.15,0.04-0.22c-0.03,0.05-0.05,0.09-0.08,0.14
		C11.93,11.97,11.94,12,11.97,12.02z"/>
	<path class="st0" d="M11.97,12.02c-0.01-0.07,0.03-0.15,0.04-0.22c-0.03,0.05-0.05,0.09-0.08,0.14
		C11.93,11.97,11.94,12,11.97,12.02z"/>
	<path class="st0" d="M12.33,11.36C12.33,11.36,12.33,11.36,12.33,11.36c-0.04,0.01-0.06,0.03-0.09,0.05
		c-0.05,0.12-0.12,0.22-0.19,0.33C12.22,11.67,12.2,11.44,12.33,11.36z"/>
	<path class="st0" d="M12.33,11.36C12.33,11.36,12.33,11.36,12.33,11.36c-0.04,0.01-0.06,0.03-0.09,0.05
		c-0.05,0.12-0.12,0.22-0.19,0.33C12.22,11.67,12.2,11.44,12.33,11.36z"/>
	<path class="st0" d="M10.96,13.66c0.01,0,0.01,0,0.02,0c0.01-0.02,0.02-0.03,0.03-0.05c-0.03,0-0.06,0.03-0.09,0.03
		c-0.03,0.07-0.08,0.14-0.05,0.21c0.02-0.04,0.05-0.08,0.07-0.12C10.95,13.71,10.96,13.68,10.96,13.66z"/>
	<path class="st0" d="M10.96,13.66c0.01,0,0.01,0,0.02,0c0.01-0.02,0.02-0.03,0.03-0.05c-0.03,0-0.06,0.03-0.09,0.03
		c-0.03,0.07-0.08,0.14-0.05,0.21c0.02-0.04,0.05-0.08,0.07-0.12C10.95,13.71,10.96,13.68,10.96,13.66z"/>
	<path class="st0" d="M11.06,13.65L11.06,13.65c-0.01-0.03-0.03-0.04-0.05-0.04c-0.01,0.02-0.02,0.03-0.03,0.05
		C11.01,13.66,11.03,13.65,11.06,13.65z"/>
	<path class="st0" d="M11.06,13.65L11.06,13.65c-0.01-0.03-0.03-0.04-0.05-0.04c-0.01,0.02-0.02,0.03-0.03,0.05
		C11.01,13.66,11.03,13.65,11.06,13.65z"/>
	<path class="st0" d="M10.92,13.91c-0.02-0.06,0.01-0.12,0.03-0.18c-0.02,0.04-0.05,0.08-0.07,0.12
		C10.88,13.87,10.89,13.89,10.92,13.91C10.92,13.91,10.92,13.91,10.92,13.91z"/>
	<path class="st0" d="M10.92,13.91c-0.02-0.06,0.01-0.12,0.03-0.18c-0.02,0.04-0.05,0.08-0.07,0.12
		C10.88,13.87,10.89,13.89,10.92,13.91C10.92,13.91,10.92,13.91,10.92,13.91z"/>
	<path class="st0" d="M9.96,15.41c0.01,0,0.02,0,0.02,0c0.01-0.01,0.02-0.03,0.03-0.04c0,0,0-0.01,0.01-0.01
		c-0.03,0-0.06,0.03-0.09,0.03c-0.03,0.06-0.05,0.11-0.06,0.17c0.03-0.04,0.05-0.07,0.08-0.11C9.95,15.44,9.96,15.42,9.96,15.41z"/>
	<path class="st0" d="M9.96,15.41c0.01,0,0.02,0,0.02,0c0.01-0.01,0.02-0.03,0.03-0.04c0,0,0-0.01,0.01-0.01
		c-0.03,0-0.06,0.03-0.09,0.03c-0.03,0.06-0.05,0.11-0.06,0.17c0.03-0.04,0.05-0.07,0.08-0.11C9.95,15.44,9.96,15.42,9.96,15.41z"/>
	<path class="st0" d="M9.98,15.41c0.03,0,0.06-0.02,0.08-0.01v0c-0.02-0.03-0.03-0.04-0.05-0.04c0,0,0,0.01-0.01,0.01
		C10,15.38,9.99,15.39,9.98,15.41z"/>
	<path class="st0" d="M9.98,15.41c0.03,0,0.06-0.02,0.08-0.01v0c-0.02-0.03-0.03-0.04-0.05-0.04c0,0,0,0.01-0.01,0.01
		C10,15.38,9.99,15.39,9.98,15.41z"/>
	<path class="st0" d="M9.87,15.66C9.87,15.66,9.87,15.66,9.87,15.66c0.03-0.07,0.06-0.14,0.08-0.21c-0.03,0.04-0.05,0.07-0.08,0.11
		C9.86,15.6,9.86,15.63,9.87,15.66z"/>
	<path class="st0" d="M9.87,15.66C9.87,15.66,9.87,15.66,9.87,15.66c0.03-0.07,0.06-0.14,0.08-0.21c-0.03,0.04-0.05,0.07-0.08,0.11
		C9.86,15.6,9.86,15.63,9.87,15.66z"/>
	<polygon class="st0" points="9.88,15.66 9.88,15.66 9.88,15.66 	"/>
	<polygon class="st0" points="9.88,15.66 9.88,15.66 9.88,15.66 	"/>
	<polygon class="st0" points="9.87,15.66 9.87,15.67 9.87,15.67 9.87,15.66 	"/>
	<polygon class="st0" points="9.87,15.66 9.87,15.67 9.87,15.67 9.87,15.66 	"/>
	<polygon class="st0" points="9.88,15.66 9.87,15.67 9.87,15.67 9.88,15.66 	"/>
	<polygon class="st0" points="9.88,15.66 9.87,15.67 9.87,15.67 9.88,15.66 	"/>
	<path class="st0" d="M13.08,14.2C13.08,14.2,13.07,14.2,13.08,14.2c-0.02,0.03-0.03,0.05-0.05,0.07c0,0,0,0,0,0
		c0.03,0,0.05-0.03,0.08-0.03c-0.02-0.06,0.05-0.12,0.05-0.19C13.13,14.1,13.1,14.15,13.08,14.2C13.08,14.2,13.08,14.2,13.08,14.2z"
		/>
	<path class="st0" d="M13.08,14.2C13.08,14.2,13.07,14.2,13.08,14.2c-0.02,0.03-0.03,0.05-0.05,0.07c0,0,0,0,0,0
		c0.03,0,0.05-0.03,0.08-0.03c-0.02-0.06,0.05-0.12,0.05-0.19C13.13,14.1,13.1,14.15,13.08,14.2C13.08,14.2,13.08,14.2,13.08,14.2z"
		/>
	<path class="st0" d="M13.11,13.98c0.04,0.07-0.05,0.14-0.04,0.21c0.03-0.04,0.05-0.09,0.08-0.14
		C13.15,14.03,13.15,14.01,13.11,13.98z"/>
	<path class="st0" d="M13.11,13.98c0.04,0.07-0.05,0.14-0.04,0.21c0.03-0.04,0.05-0.09,0.08-0.14
		C13.15,14.03,13.15,14.01,13.11,13.98z"/>
	<path class="st0" d="M13.07,14.2c-0.03,0.02-0.06,0.03-0.1,0.04c0,0,0,0,0,0c0.02,0.03,0.04,0.04,0.05,0.04c0,0,0,0,0,0
		C13.04,14.25,13.06,14.22,13.07,14.2z"/>
	<path class="st0" d="M13.07,14.2c-0.03,0.02-0.06,0.03-0.1,0.04c0,0,0,0,0,0c0.02,0.03,0.04,0.04,0.05,0.04c0,0,0,0,0,0
		C13.04,14.25,13.06,14.22,13.07,14.2z"/>
	<path class="st0" d="M10.16,15.1c0.03-0.05,0.05-0.1,0.08-0.15C10.17,14.97,10.14,15.02,10.16,15.1z"/>
	<path class="st0" d="M10.16,15.1c0.03-0.05,0.05-0.1,0.08-0.15C10.17,14.97,10.14,15.02,10.16,15.1z"/>
	<path class="st0" d="M10.33,14.92C10.33,14.92,10.33,14.92,10.33,14.92c-0.04,0-0.06,0.01-0.09,0.02c-0.03,0.05-0.06,0.1-0.08,0.15
		c0.01,0.03,0.01,0.06,0.03,0.09C10.18,15.06,10.22,14.97,10.33,14.92z"/>
	<path class="st0" d="M10.33,14.92C10.33,14.92,10.33,14.92,10.33,14.92c-0.04,0-0.06,0.01-0.09,0.02c-0.03,0.05-0.06,0.1-0.08,0.15
		c0.01,0.03,0.01,0.06,0.03,0.09C10.18,15.06,10.22,14.97,10.33,14.92z"/>
	<path class="st0" d="M10.63,14.26C10.63,14.26,10.63,14.26,10.63,14.26c0.02-0.03,0.03-0.07,0.05-0.1c0,0,0,0,0,0
		c-0.04,0-0.05,0.09-0.09,0.08c0,0.03,0,0.06,0,0.09C10.61,14.31,10.62,14.29,10.63,14.26C10.63,14.26,10.63,14.26,10.63,14.26z"/>
	<path class="st0" d="M10.63,14.26C10.63,14.26,10.63,14.26,10.63,14.26c0.02-0.03,0.03-0.07,0.05-0.1c0,0,0,0,0,0
		c-0.04,0-0.05,0.09-0.09,0.08c0,0.03,0,0.06,0,0.09C10.61,14.31,10.62,14.29,10.63,14.26C10.63,14.26,10.63,14.26,10.63,14.26z"/>
	<path class="st0" d="M10.63,14.26c0.04-0.01,0.05-0.1,0.11-0.06c0,0,0,0,0,0c-0.02-0.03-0.04-0.04-0.05-0.04c0,0,0,0,0,0
		C10.67,14.19,10.65,14.23,10.63,14.26z"/>
	<path class="st0" d="M10.63,14.26c0.04-0.01,0.05-0.1,0.11-0.06c0,0,0,0,0,0c-0.02-0.03-0.04-0.04-0.05-0.04c0,0,0,0,0,0
		C10.67,14.19,10.65,14.23,10.63,14.26z"/>
	<path class="st0" d="M10.65,14.38L10.65,14.38c-0.01-0.01-0.03-0.02-0.04-0.02c0.02-0.03,0.03-0.06,0.03-0.1
		c-0.01,0.03-0.03,0.05-0.04,0.08c0,0.01,0,0.03,0,0.04C10.61,14.38,10.63,14.38,10.65,14.38z"/>
	<path class="st0" d="M10.65,14.38L10.65,14.38c-0.01-0.01-0.03-0.02-0.04-0.02c0.02-0.03,0.03-0.06,0.03-0.1
		c-0.01,0.03-0.03,0.05-0.04,0.08c0,0.01,0,0.03,0,0.04C10.61,14.38,10.63,14.38,10.65,14.38z"/>
	<polygon class="st0" points="15.42,15.12 15.42,15.12 15.42,15.12 	"/>
	<polygon class="st0" points="15.42,15.12 15.42,15.12 15.42,15.12 	"/>
	<path class="st0" d="M12.82,14.64c0.01,0.03,0,0.07-0.02,0.11c-0.16,0.37-0.16,0.37,0.26,0.37c0.79,0,1.58,0,2.37,0
		c-0.01-0.03-0.02-0.06-0.03-0.08c-0.01,0-0.01,0-0.02,0c-0.1-0.02-0.19-0.03-0.29-0.02c-0.66,0.05-1.32,0.02-1.98,0.02
		c-0.2,0-0.34-0.02-0.23-0.28c0.02-0.05,0.04-0.13-0.02-0.16c-0.01,0.01-0.01,0.02-0.02,0.03C12.82,14.62,12.82,14.63,12.82,14.64z"
		/>
	<path class="st0" d="M12.82,14.64c0.01,0.03,0,0.07-0.02,0.11c-0.16,0.37-0.16,0.37,0.26,0.37c0.79,0,1.58,0,2.37,0
		c-0.01-0.03-0.02-0.06-0.03-0.08c-0.01,0-0.01,0-0.02,0c-0.1-0.02-0.19-0.03-0.29-0.02c-0.66,0.05-1.32,0.02-1.98,0.02
		c-0.2,0-0.34-0.02-0.23-0.28c0.02-0.05,0.04-0.13-0.02-0.16c-0.01,0.01-0.01,0.02-0.02,0.03C12.82,14.62,12.82,14.63,12.82,14.64z"
		/>
	<path class="st0" d="M12.77,14.57c0.03,0.02,0.04,0.04,0.05,0.06c0-0.01,0.01-0.01,0.01-0.02c0.01-0.01,0.01-0.02,0.02-0.03
		C12.82,14.58,12.8,14.57,12.77,14.57L12.77,14.57z"/>
	<path class="st0" d="M12.77,14.57c0.03,0.02,0.04,0.04,0.05,0.06c0-0.01,0.01-0.01,0.01-0.02c0.01-0.01,0.01-0.02,0.02-0.03
		C12.82,14.58,12.8,14.57,12.77,14.57L12.77,14.57z"/>
	<path class="st0" d="M18.47,15.93c0.84,0.03,1.68-0.06,2.51,0.05c0,0,0,0,0,0c-0.01-0.03-0.01-0.05,0-0.06c-0.01,0-0.01,0-0.02,0
		c-0.52-0.13-1.05-0.04-1.57-0.06c-0.28-0.01-0.57-0.01-0.86,0c-0.18,0.01-0.32-0.05-0.41-0.21c0,0,0,0,0,0
		C18.21,15.93,18.21,15.92,18.47,15.93z"/>
	<path class="st0" d="M18.6,15.83c0.62,0,1.25,0,1.87,0c0.16,0,0.33,0,0.49,0.06c0.02,0,0.05,0.01,0.07,0.02
		c0.01-0.02,0.02-0.03,0.03-0.05c-0.29-0.03-0.58-0.08-0.88-0.07c-0.52,0.01-1.04,0-1.55,0.01c-0.13,0-0.25-0.01-0.37-0.06
		C18.34,15.84,18.47,15.83,18.6,15.83z"/>
	<path class="st0" d="M18.53,15.86c0.28-0.01,0.57-0.01,0.86,0c0.52,0.02,1.05-0.06,1.57,0.06c0.01,0,0.01,0,0.02,0
		c-0.01,0.02-0.01,0.03,0,0.06c0.01-0.02,0.03-0.05,0.04-0.07c-0.02-0.01-0.04-0.01-0.07-0.02c-0.16-0.06-0.32-0.06-0.49-0.06
		c-0.62,0-1.25,0-1.87,0c-0.13,0-0.26,0.01-0.35-0.1c-0.04-0.02-0.09-0.05-0.13-0.08C18.21,15.81,18.35,15.87,18.53,15.86z"/>
	<path class="st0" d="M19.46,17.89c0.11,0.04,0.21,0.05,0.32,0.06c0.13-0.01,0.25-0.01,0.38-0.01c0.08,0,0.16,0,0.25,0.01
		c0.08,0.01,0.17-0.01,0.25,0c0,0,0.01,0,0.01,0c0.08-0.02,0.18,0.04,0.23-0.08h0C20.42,17.88,19.94,17.88,19.46,17.89z"/>
	<path class="st0" d="M20.71,17.96c0.03,0.01,0.05,0.03,0.07,0.05c0.05-0.02,0.1-0.04,0.14-0.06c0.02-0.01,0.03-0.02,0.05-0.03
		c-0.04,0.01-0.07,0.02-0.11,0.03C20.81,17.96,20.76,17.96,20.71,17.96z"/>
	<path class="st0" d="M20.16,17.94c-0.13,0-0.25-0.01-0.38,0.01C19.91,17.95,20.04,17.94,20.16,17.94z"/>
	<path class="st0" d="M20.9,17.87c-0.05,0.12-0.16,0.05-0.23,0.08c0,0-0.01,0-0.01,0c0.02,0,0.04,0.01,0.06,0.02
		c0.05,0,0.1,0,0.15-0.01c0.04-0.01,0.07-0.02,0.11-0.03C21.04,17.87,20.93,17.89,20.9,17.87z"/>
	<path class="st0" d="M19.56,17.99c0,0,0.01,0,0.01,0C19.57,17.99,19.57,17.99,19.56,17.99C19.57,17.99,19.56,17.99,19.56,17.99z"/>
	<path class="st0" d="M19.57,17.99c-0.04,0-0.08-0.03-0.1-0.1c-0.1,0.05-0.1,0.06,0,0.19l0,0c0.02,0,0.04,0,0.05,0
		c0-0.02,0-0.05,0.01-0.08C19.54,18,19.55,18,19.57,17.99C19.56,17.99,19.57,17.99,19.57,17.99z"/>
	<path class="st0" d="M19.74,17.97c-0.05,0-0.11,0.02-0.16,0.02c0,0-0.01,0-0.01,0c-0.02,0.01-0.02,0.03-0.02,0.07
		c0,0,0,0.01,0,0.01c0.41-0.14,0.83-0.02,1.24-0.06l0,0h0C20.44,17.94,20.09,18,19.74,17.97z"/>
	<path class="st0" d="M19.56,17.99c-0.01,0-0.02,0-0.03,0.01c-0.02,0.03-0.02,0.06-0.01,0.08c0,0,0,0,0.01,0
		c0.01,0,0.01,0,0.02-0.01c0,0,0-0.01,0-0.01C19.54,18.03,19.55,18.01,19.56,17.99z"/>
	<path class="st0" d="M19.57,17.99C19.57,17.99,19.57,17.99,19.57,17.99c0.03-0.01,0.05-0.01,0.08-0.02c0,0-0.01,0-0.01,0
		C19.61,17.97,19.59,17.98,19.57,17.99z"/>
	<path class="st0" d="M20.41,17.95c-0.08-0.01-0.16-0.01-0.25-0.01c0.16,0.01,0.33,0.02,0.49,0C20.58,17.93,20.49,17.95,20.41,17.95
		z"/>
	<path class="st0" d="M19.46,17.89c0.02,0.07,0.06,0.09,0.1,0.1c0.02-0.01,0.04-0.01,0.06-0.02c0,0,0.01,0,0.01,0
		c0.05-0.01,0.09-0.02,0.14-0.02C19.68,17.95,19.57,17.93,19.46,17.89z"/>
	<path class="st0" d="M19.65,17.97c-0.02,0.01-0.05,0.01-0.07,0.02c0.05,0,0.11-0.02,0.16-0.02c0.35,0.03,0.7-0.04,1.04,0.04h0
		c-0.02-0.02-0.05-0.04-0.07-0.05C20.36,17.98,20,17.96,19.65,17.97z"/>
	<path class="st0" d="M20.16,17.94c-0.13,0-0.25,0.01-0.38,0.01c-0.05,0.01-0.09,0.01-0.14,0.02c0.35-0.01,0.71,0.01,1.06-0.01
		c-0.02-0.01-0.04-0.01-0.06-0.02C20.49,17.96,20.33,17.95,20.16,17.94z"/>
	<path class="st0" d="M15.75,11.33c-0.02-0.01-0.04-0.01-0.06-0.03c0.02,0.03,0.04,0.07,0.06,0.1
		C15.75,11.38,15.75,11.35,15.75,11.33z"/>
	<path class="st0" d="M15.65,11.26c-0.01,0.01-0.02,0.02-0.03,0.04l0,0c0,0,0,0,0,0c0.11,0.2,0.22,0.4,0.33,0.6l0,0
		c0.02-0.02,0.04-0.02,0.05-0.02c-0.07-0.16-0.23-0.29-0.25-0.47c-0.02-0.03-0.04-0.07-0.06-0.1c0,0,0,0-0.01,0
		C15.67,11.29,15.66,11.27,15.65,11.26z"/>
	<path class="st0" d="M15.67,11.26c0.01,0.01,0.02,0.03,0.02,0.04c0.02,0.01,0.04,0.02,0.06,0.03c0,0.03,0,0.05,0,0.08
		c0.09,0.15,0.17,0.31,0.26,0.46c0,0.01,0.01,0.01,0.01,0.02c-0.02-0.23-0.25-0.36-0.26-0.59c-0.02-0.02-0.04-0.05-0.07-0.07
		c-0.01,0.01-0.02,0.02-0.03,0.03C15.67,11.25,15.67,11.25,15.67,11.26z"/>
	<path class="st0" d="M15.75,11.4c0.02,0.18,0.17,0.31,0.25,0.47c-0.02-0.01-0.04,0-0.05,0.02c0.03,0,0.05,0,0.08,0
		c0-0.01,0-0.01,0-0.02c0-0.01-0.01-0.01-0.01-0.02C15.92,11.71,15.84,11.56,15.75,11.4z"/>
	<path class="st0" d="M15.69,11.3C15.69,11.3,15.69,11.3,15.69,11.3c0-0.01-0.01-0.03-0.02-0.04c0,0,0-0.01-0.01-0.01
		c0,0-0.01,0.01-0.01,0.01C15.66,11.27,15.67,11.29,15.69,11.3z"/>
	<path class="st0" d="M18.63,20.66c0,0,0.01,0.01,0.01,0.01C18.64,20.67,18.64,20.66,18.63,20.66
		C18.63,20.66,18.63,20.66,18.63,20.66z"/>
	<path class="st0" d="M18.97,20.94C18.97,20.94,18.97,20.94,18.97,20.94c0.01-0.02,0.02-0.03,0.02-0.03
		c-0.11-0.11-0.23-0.23-0.34-0.34c-0.01,0.03-0.01,0.06-0.02,0.09c0,0.01,0.01,0.01,0.01,0.02C18.74,20.78,18.83,20.89,18.97,20.94z
		"/>
	<path class="st0" d="M18.97,20.93C18.97,20.94,18.97,20.94,18.97,20.93c0.01,0.01,0.02,0.02,0.02,0.02c0,0,0,0,0,0
		c0-0.01,0-0.03,0-0.04C18.99,20.91,18.98,20.92,18.97,20.93z"/>
	<path class="st0" d="M18.65,20.68c0,0-0.01-0.01-0.01-0.01c0,0,0,0,0,0c0,0-0.01-0.01-0.01-0.01c-0.01,0.02-0.02,0.04-0.02,0.05
		c0.09,0.15,0.19,0.29,0.4,0.27c0,0,0,0,0,0C18.84,20.92,18.74,20.8,18.65,20.68z"/>
	<path class="st0" d="M18.65,20.57C18.65,20.57,18.65,20.57,18.65,20.57c-0.01,0.02-0.02,0.05-0.03,0.07c0,0,0.01,0.01,0.01,0.01
		C18.64,20.63,18.64,20.6,18.65,20.57z"/>
	<path class="st0" d="M18.97,20.94c-0.14-0.05-0.23-0.16-0.33-0.27c0.09,0.12,0.19,0.24,0.35,0.29
		C18.98,20.96,18.97,20.95,18.97,20.94z"/>
	<polygon class="st0" points="19,20.97 18.99,20.97 19,20.97 19,20.97 	"/>
	<path class="st0" d="M18.97,20.94c0,0.01,0.01,0.02,0.02,0.03c0,0,0,0,0,0c0-0.01,0-0.01,0-0.02c0,0,0,0,0,0
		C18.99,20.95,18.98,20.95,18.97,20.94z"/>
	<path class="st0" d="M16.57,17c-0.06-0.22-0.17-0.41-0.3-0.6v0l0,0C16.32,16.63,16.43,16.82,16.57,17z"/>
	<path class="st0" d="M16.44,16.89c-0.05-0.11-0.11-0.22-0.16-0.33C16.3,16.69,16.36,16.8,16.44,16.89z"/>
	<path class="st0" d="M16.28,16.56c0.06,0.11,0.11,0.22,0.16,0.33c0.04,0.04,0.08,0.07,0.12,0.11c-0.14-0.18-0.25-0.37-0.3-0.6l0,0
		C16.27,16.46,16.27,16.51,16.28,16.56z"/>
	<path class="st0" d="M15.28,14.65L15.28,14.65L15.28,14.65c-0.02,0.15,0.13,0.25,0.15,0.39c0.02,0,0.04,0,0.07,0
		C15.42,14.91,15.35,14.78,15.28,14.65z"/>
	<polygon class="st0" points="15.42,15.12 15.42,15.12 15.42,15.12 	"/>
	<path class="st0" d="M15.44,15.07c0,0-0.01-0.01-0.01-0.01c0,0.02,0,0.04-0.01,0.06c0.01-0.01,0.02-0.02,0.03-0.03
		C15.45,15.08,15.44,15.08,15.44,15.07z"/>
	<path class="st0" d="M15.45,15.09c0.02-0.02,0.03-0.03,0.05-0.05v0c-0.02,0-0.04,0-0.07,0c0,0.01,0,0.01,0,0.02
		c0,0,0.01,0.01,0.01,0.01C15.44,15.08,15.45,15.08,15.45,15.09z"/>
	<path class="st0" d="M15.26,14.77c0.01,0.1,0.08,0.18,0.13,0.26c0.01,0,0.02,0,0.03,0C15.37,14.95,15.32,14.86,15.26,14.77z"/>
	<path class="st0" d="M15.43,15.04c-0.02-0.14-0.17-0.23-0.15-0.39l0,0c-0.02,0.04-0.02,0.08-0.02,0.12
		C15.32,14.86,15.37,14.95,15.43,15.04C15.42,15.04,15.43,15.04,15.43,15.04z"/>
	<path class="st0" d="M15.42,15.12L15.42,15.12c0.01-0.02,0.01-0.04,0.01-0.06c0-0.01-0.01-0.01-0.01-0.02c-0.01,0-0.02,0-0.03,0
		C15.4,15.06,15.42,15.09,15.42,15.12L15.42,15.12z"/>
	<path class="st0" d="M15.43,15.04C15.43,15.04,15.42,15.04,15.43,15.04c0,0.01,0,0.01,0,0.02C15.43,15.05,15.43,15.04,15.43,15.04z
		"/>
	<polygon class="st0" points="18.07,15.46 18.06,15.46 18.07,15.46 	"/>
	<path class="st0" d="M18.07,15.59c-0.03-0.04-0.04-0.08,0-0.12c0,0,0,0,0-0.01c-0.08-0.04-0.11-0.16-0.2-0.19
		C17.93,15.38,17.96,15.51,18.07,15.59z"/>
	<path class="st0" d="M18.07,15.46C18.07,15.46,18.07,15.46,18.07,15.46c0,0,0,0.01,0.01,0.01C18.07,15.47,18.07,15.46,18.07,15.46
		c-0.06-0.06-0.03-0.21-0.14-0.21C17.97,15.33,18.01,15.39,18.07,15.46C18.06,15.46,18.07,15.46,18.07,15.46z"/>
	<path class="st0" d="M17.86,15.27c0.08,0.03,0.12,0.15,0.2,0.19c-0.05-0.07-0.09-0.13-0.13-0.21
		C17.91,15.25,17.89,15.26,17.86,15.27z"/>
	<path class="st0" d="M18.07,15.59C18.07,15.59,18.07,15.59,18.07,15.59c0-0.04,0-0.08,0-0.11c0,0,0-0.01-0.01-0.01
		C18.03,15.5,18.04,15.55,18.07,15.59z"/>
	<path class="st0" d="M16.7,13.05c-0.01,0-0.02,0-0.02,0c0.01,0.02,0.02,0.03,0.03,0.05C16.7,13.08,16.7,13.06,16.7,13.05z"/>
	<path class="st0" d="M16.71,13.09c-0.01-0.02-0.02-0.03-0.03-0.05c-0.05-0.01-0.08-0.05-0.12-0.07c0.07,0.11,0.13,0.22,0.2,0.33
		C16.77,13.23,16.72,13.16,16.71,13.09z"/>
	<path class="st0" d="M16.7,13.05c0,0.02,0,0.03,0,0.05c0.03,0.05,0.06,0.1,0.09,0.14c0.01-0.07-0.06-0.13-0.05-0.2
		c-0.03-0.01-0.06-0.02-0.09-0.03c0.01,0.01,0.01,0.03,0.02,0.04C16.68,13.04,16.69,13.05,16.7,13.05z"/>
	<path class="st0" d="M16.68,13.04c-0.01-0.01-0.02-0.03-0.02-0.04c-0.03-0.01-0.07-0.02-0.1-0.03
		C16.6,12.99,16.63,13.03,16.68,13.04z"/>
	<path class="st0" d="M16.75,13.3C16.75,13.3,16.75,13.3,16.75,13.3c0.03-0.02,0.04-0.04,0.04-0.06c-0.03-0.05-0.06-0.1-0.09-0.14
		C16.72,13.16,16.77,13.23,16.75,13.3z"/>
	<path class="st0" d="M17.45,18.57c0.01-0.01,0.02-0.02,0.03-0.03c-0.05-0.09-0.09-0.17-0.14-0.26
		C17.33,18.4,17.4,18.48,17.45,18.57z"/>
	<path class="st0" d="M17.31,18.37c-0.02,0.1,0.05,0.16,0.13,0.22c0,0,0-0.01-0.01-0.01C17.39,18.5,17.35,18.43,17.31,18.37z"/>
	<path class="st0" d="M17.48,18.54L17.48,18.54c-0.01,0.01-0.02,0.02-0.03,0.03c-0.05-0.09-0.12-0.17-0.11-0.28
		c-0.02,0.03-0.03,0.06-0.03,0.08c0.04,0.07,0.09,0.14,0.12,0.21c0,0,0,0.01,0.01,0.01c0.01,0.01,0.03,0.02,0.04,0.03
		C17.48,18.59,17.48,18.56,17.48,18.54z"/>
	<path class="st0" d="M20.04,18.95c0,0-0.01,0-0.01-0.01C20.03,18.94,20.04,18.95,20.04,18.95C20.04,18.95,20.04,18.95,20.04,18.95z
		"/>
	<path class="st0" d="M20.05,19.11c-0.03-0.05-0.03-0.1-0.01-0.15c0-0.01-0.01-0.01-0.01-0.02c-0.07-0.04-0.08-0.17-0.18-0.18l0,0h0
		C19.92,18.87,19.99,18.99,20.05,19.11z"/>
	<path class="st0" d="M20.04,18.95C20.04,18.95,20.04,18.95,20.04,18.95c0,0.02,0.01,0.03,0.01,0.04c0-0.01,0-0.02,0-0.03
		c-0.06-0.05-0.04-0.19-0.13-0.2c0.04,0.06,0.07,0.12,0.11,0.19C20.04,18.94,20.04,18.94,20.04,18.95z"/>
	<path class="st0" d="M19.86,18.76L19.86,18.76c0.1,0.02,0.1,0.14,0.18,0.18c-0.03-0.06-0.07-0.13-0.11-0.19
		C19.91,18.75,19.88,18.75,19.86,18.76z"/>
	<path class="st0" d="M20.05,19.11c0-0.04,0-0.08,0.01-0.12c-0.01-0.01-0.01-0.02-0.02-0.03C20.02,19.01,20.02,19.06,20.05,19.11z"
		/>
	<path class="st0" d="M15.62,11.29c-0.02-0.04-0.01-0.06,0.01-0.07c-0.05-0.09-0.07-0.2-0.2-0.21c0,0,0,0,0,0
		C15.49,11.11,15.55,11.2,15.62,11.29z"/>
	<path class="st0" d="M15.65,11.21c0.01,0,0.03,0,0.04,0c-0.08-0.05-0.07-0.23-0.2-0.22C15.56,11.05,15.6,11.13,15.65,11.21z"/>
	<path class="st0" d="M15.63,11.22c0.01,0,0.01-0.01,0.02-0.01c-0.04-0.08-0.08-0.17-0.16-0.22c-0.02,0-0.04,0.01-0.06,0.02
		C15.55,11.02,15.58,11.13,15.63,11.22z"/>
	<path class="st0" d="M15.62,11.29L15.62,11.29c0.01-0.01,0.02-0.02,0.03-0.04c-0.01-0.01-0.02-0.02-0.02-0.04
		C15.61,11.23,15.6,11.25,15.62,11.29z"/>
	<path class="st0" d="M15.65,11.21c0.01,0.01,0.01,0.02,0.02,0.03c0.01-0.01,0.02-0.02,0.03-0.03
		C15.67,11.21,15.66,11.21,15.65,11.21z"/>
	<path class="st0" d="M15.66,11.24c-0.01-0.01-0.01-0.02-0.02-0.03c-0.01,0-0.01,0-0.02,0.01c0.01,0.01,0.02,0.03,0.02,0.04
		C15.65,11.25,15.66,11.25,15.66,11.24z"/>
	<path class="st0" d="M19.77,18.44c-0.02-0.01-0.03-0.01-0.04-0.02c0.01,0.02,0.02,0.03,0.03,0.05
		C19.76,18.46,19.76,18.45,19.77,18.44z"/>
	<path class="st0" d="M19.62,18.25c-0.01,0.01-0.02,0.02-0.03,0.03c0.05,0.09,0.09,0.17,0.14,0.26c0,0,0,0,0,0
		c0.02-0.02,0.02-0.05,0.03-0.08c-0.01-0.02-0.02-0.03-0.03-0.05C19.68,18.38,19.65,18.31,19.62,18.25z"/>
	<path class="st0" d="M19.64,18.27c0.03,0.05,0.06,0.1,0.09,0.15c0.01,0.01,0.03,0.02,0.04,0.02c0,0.01-0.01,0.02-0.01,0.03
		c0.01,0.01,0.01,0.02,0.02,0.03c0.01-0.02,0.02-0.05,0.02-0.08c-0.04-0.07-0.09-0.13-0.13-0.2c-0.01,0.01-0.02,0.02-0.03,0.03
		C19.63,18.25,19.64,18.26,19.64,18.27z"/>
	<path class="st0" d="M19.73,18.41c-0.03-0.05-0.06-0.1-0.09-0.15c0-0.01-0.01-0.01-0.01-0.02c0,0,0,0-0.01,0.01
		C19.65,18.31,19.68,18.38,19.73,18.41z"/>
	<path class="st0" d="M19.73,18.55c0.02-0.01,0.04-0.03,0.04-0.05c-0.01-0.01-0.01-0.02-0.02-0.03
		C19.75,18.49,19.75,18.53,19.73,18.55z"/>
	<path class="st0" d="M17.8,19.09c0,0.11,0.05,0.2,0.11,0.28c0.01-0.01,0.02-0.02,0.04-0.02l0,0C17.89,19.26,17.84,19.18,17.8,19.09
		z"/>
	<path class="st0" d="M17.76,19.18c0,0.09,0.09,0.16,0.11,0.25c0.01-0.01,0.01-0.01,0.02-0.02c0,0,0,0,0,0
		C17.85,19.33,17.8,19.25,17.76,19.18z"/>
	<path class="st0" d="M17.9,19.37c-0.06-0.09-0.11-0.17-0.11-0.28c0,0,0,0,0,0c-0.02,0.03-0.03,0.06-0.03,0.09
		c0.04,0.08,0.08,0.15,0.13,0.23c0,0,0,0,0,0c0.02-0.02,0.03-0.03,0.05-0.05C17.92,19.35,17.91,19.36,17.9,19.37z"/>
	<path class="st0" d="M20.26,19.49c0-0.12-0.03-0.21-0.15-0.25h0C20.17,19.32,20.22,19.4,20.26,19.49z"/>
	<path class="st0" d="M20.21,19.25c0.03,0.04,0.05,0.08,0.07,0.13C20.28,19.31,20.26,19.27,20.21,19.25z"/>
	<path class="st0" d="M20.26,19.49c0.01-0.04,0.02-0.08,0.02-0.11c-0.02-0.04-0.05-0.09-0.07-0.13c-0.02-0.01-0.05-0.01-0.09-0.01
		C20.24,19.28,20.27,19.37,20.26,19.49z"/>
	<path class="st0" d="M19.47,18.08C19.47,18.08,19.47,18.08,19.47,18.08c0.04,0.07,0.08,0.14,0.12,0.21
		c-0.02-0.05-0.01-0.07,0.01-0.08c-0.02-0.04-0.07-0.08-0.08-0.13C19.5,18.11,19.49,18.1,19.47,18.08z"/>
	<path class="st0" d="M19.66,18.21c-0.02-0.05-0.06-0.09-0.11-0.12c0.01,0.04,0.03,0.08,0.05,0.12
		C19.62,18.21,19.64,18.21,19.66,18.21z"/>
	<path class="st0" d="M19.52,18.08c0.01,0.05,0.06,0.09,0.08,0.13c0,0,0,0,0.01,0c-0.02-0.04-0.04-0.08-0.05-0.12
		C19.54,18.09,19.54,18.08,19.52,18.08C19.53,18.08,19.53,18.08,19.52,18.08z"/>
	<path class="st0" d="M19.52,18.08C19.52,18.08,19.52,18.08,19.52,18.08c-0.02,0-0.04,0-0.06-0.01
		C19.49,18.1,19.5,18.11,19.52,18.08z"/>
	<polygon class="st0" points="19.53,18.08 19.52,18.08 19.52,18.08 	"/>
	<path class="st0" d="M19.59,18.29c0.01-0.01,0.02-0.02,0.03-0.03c0,0,0,0,0-0.01c0-0.01-0.01-0.02-0.01-0.03
		C19.58,18.22,19.57,18.24,19.59,18.29z"/>
	<path class="st0" d="M19.61,18.21c0.01,0.01,0.01,0.02,0.02,0.04c0.01-0.01,0.02-0.02,0.03-0.03
		C19.64,18.21,19.62,18.21,19.61,18.21z"/>
	<path class="st0" d="M19.62,18.25C19.62,18.25,19.63,18.25,19.62,18.25c0-0.02-0.01-0.03-0.01-0.04c0,0,0,0-0.01,0
		C19.61,18.22,19.61,18.24,19.62,18.25C19.62,18.25,19.62,18.25,19.62,18.25z"/>
	<polygon class="st0" points="7.57,19.73 7.57,19.73 7.57,19.73 	"/>
	<path class="st0" d="M7.57,19.73C7.57,19.73,7.57,19.73,7.57,19.73c0.02,0.03,0.03,0.06,0.04,0.09c0.09-0.2,0.18-0.4,0.27-0.59l0,0
		v0C7.69,19.34,7.69,19.58,7.57,19.73z"/>
	<path class="st0" d="M7.57,19.73C7.57,19.73,7.57,19.73,7.57,19.73c0.04-0.15,0.11-0.3,0.19-0.43c-0.14,0.11-0.13,0.31-0.21,0.46
		c0,0,0.01,0.01,0.01,0.01C7.56,19.76,7.56,19.75,7.57,19.73C7.57,19.73,7.57,19.73,7.57,19.73z"/>
	<path class="st0" d="M7.61,19.83c-0.01-0.03-0.02-0.06-0.04-0.09c0,0.01-0.01,0.03-0.01,0.04C7.58,19.79,7.59,19.81,7.61,19.83
		C7.61,19.83,7.61,19.83,7.61,19.83z"/>
	<path class="st0" d="M7.88,19.23L7.88,19.23c-0.05,0.01-0.09,0.04-0.13,0.06c-0.08,0.14-0.14,0.28-0.19,0.43
		C7.69,19.58,7.69,19.34,7.88,19.23z"/>
	<path class="st0" d="M8.22,18.43c0.01,0.01,0.01,0.02,0.01,0.03c0.01-0.01,0.01-0.02,0.02-0.03C8.24,18.43,8.23,18.43,8.22,18.43z"
		/>
	<path class="st0" d="M8.25,18.43c-0.01,0.01-0.01,0.02-0.02,0.03c0.03,0.09-0.06,0.15-0.08,0.23c0,0,0,0,0,0
		c0.14-0.07,0.18-0.2,0.2-0.34C8.32,18.38,8.29,18.42,8.25,18.43z"/>
	<path class="st0" d="M8.22,18.43c0.01,0,0.02,0,0.03,0c0.01-0.01,0.01-0.03,0.02-0.04c-0.02,0.01-0.04,0.02-0.06,0.03
		c-0.01,0.04-0.02,0.09-0.03,0.13c0.02-0.03,0.03-0.05,0.05-0.08C8.23,18.45,8.22,18.44,8.22,18.43z"/>
	<path class="st0" d="M8.35,18.35L8.35,18.35c-0.03,0.01-0.05,0.02-0.08,0.04c-0.01,0.01-0.01,0.03-0.02,0.04
		C8.29,18.42,8.32,18.38,8.35,18.35z"/>
	<path class="st0" d="M8.15,18.69C8.15,18.69,8.15,18.69,8.15,18.69c0.02-0.08,0.1-0.14,0.08-0.23c-0.02,0.03-0.03,0.06-0.05,0.08
		C8.17,18.59,8.16,18.64,8.15,18.69C8.15,18.69,8.15,18.69,8.15,18.69z"/>
	<path class="st0" d="M7.53,19.98c-0.01-0.02-0.02-0.04-0.03-0.06c0,0.1-0.04,0.17,0.04,0.27c0-0.02,0-0.03,0-0.04
		C7.52,20.1,7.52,20.04,7.53,19.98z"/>
	<path class="st0" d="M7.53,19.98c0,0.06,0,0.12,0.01,0.17C7.54,20.09,7.55,20.04,7.53,19.98z"/>
	<path class="st0" d="M15.89,17.98c0.01,0,0.01,0,0.02,0c-2.83,0.01-5.66,0-8.49,0C10.24,17.98,13.06,17.98,15.89,17.98z"/>
	<path class="st0" d="M16,17.97c0.01-0.01,0.02-0.02,0.02-0.02c-0.01,0-0.02,0-0.03,0c0,0-0.01,0-0.01,0.01
		c-0.09,0.02-0.18,0.02-0.26,0.02c-2.77,0-5.53,0-8.3,0c-0.04,0-0.08,0-0.12,0c0,0.01,0,0.03,0,0.04c2.91,0,5.81,0,8.72,0
		C16,18,15.99,17.98,16,17.97z M15.89,17.98c-2.82,0-5.65,0-8.47,0c2.83,0,5.66,0,8.49,0C15.9,17.98,15.89,17.98,15.89,17.98z"/>
	<path class="st0" d="M15.72,17.97c0.09,0,0.18,0,0.26-0.02c0,0,0.01,0,0.01-0.01c-2.9,0-5.8,0-8.69,0c0,0.01,0,0.02,0,0.02
		c0.04,0,0.08,0,0.12,0C10.18,17.97,12.95,17.97,15.72,17.97z"/>
	<path class="st0" d="M16,17.97c-0.01,0.01,0,0.03,0.02,0.04c0-0.02,0-0.04,0-0.07C16.01,17.95,16,17.95,16,17.97z"/>
	<path class="st0" d="M9.09,18.19c0.02,0,0.05,0,0.07,0c0.04-0.01,0.07-0.03,0.11-0.05c-0.2,0.03-0.4-0.05-0.59,0.03
		C8.81,18.19,8.95,18.19,9.09,18.19z"/>
	<path class="st0" d="M9.16,18.19c-0.02,0-0.05,0-0.07,0c-0.14,0-0.28,0-0.42-0.01c-0.02,0.01-0.04,0.02-0.06,0.03
		C8.8,18.19,8.98,18.25,9.16,18.19z"/>
</g>
</svg>
