<?xml version="1.0" encoding="utf-8"?>
<!-- Generator: Adobe Illustrator 24.1.0, SVG Export Plug-In . SVG Version: 6.00 Build 0)  -->
<svg version="1.1" id="Layer_1" xmlns="http://www.w3.org/2000/svg" xmlns:xlink="http://www.w3.org/1999/xlink" x="0px" y="0px"
	 viewBox="0 0 50 50" style="enable-background:new 0 0 50 50;" xml:space="preserve">
<style type="text/css">
	.st0{fill:#FAC724;}
</style>
<g>
	<path class="st0" d="M25,47.82c-0.44,0-0.85-0.19-1.14-0.52L12.11,33.66c-0.05-0.05-0.09-0.11-0.13-0.17
		c-3.45-3.47-5.35-8.05-5.35-12.94C6.63,10.42,14.87,2.18,25,2.18c10.13,0,18.37,8.24,18.37,18.37c0,4.89-1.9,9.47-5.35,12.94
		c-0.04,0.06-0.08,0.12-0.13,0.17L26.14,47.29C25.85,47.63,25.44,47.82,25,47.82z M14.63,31.99L25,44.02l10.38-12.04
		c0.07-0.14,0.16-0.26,0.28-0.38c3.04-2.93,4.71-6.85,4.71-11.05c0-8.47-6.89-15.37-15.37-15.37c-8.47,0-15.37,6.89-15.37,15.37
		c0,4.2,1.67,8.12,4.71,11.05C14.46,31.72,14.55,31.85,14.63,31.99z"/>
</g>
<g>
	<path class="st0" d="M25,29.83c-5.43,0-9.85-4.42-9.85-9.85s4.42-9.85,9.85-9.85c5.43,0,9.85,4.42,9.85,9.85S30.43,29.83,25,29.83z
		 M25,13.12c-3.78,0-6.85,3.07-6.85,6.85s3.07,6.85,6.85,6.85c3.78,0,6.85-3.07,6.85-6.85S28.78,13.12,25,13.12z"/>
</g>
</svg>
