<?xml version="1.0" encoding="utf-8"?>
<!-- Generator: Adobe Illustrator 24.1.0, SVG Export Plug-In . SVG Version: 6.00 Build 0)  -->
<svg version="1.1" id="Layer_1" xmlns="http://www.w3.org/2000/svg" xmlns:xlink="http://www.w3.org/1999/xlink" x="0px" y="0px"
	 viewBox="0 0 96 96" style="enable-background:new 0 0 96 96;" xml:space="preserve">
<style type="text/css">
	.st0{fill-rule:evenodd;clip-rule:evenodd;fill:#ABABAB;}
</style>
<path class="st0" d="M84.33,34.29l-1.07,0.59c-0.59,0.33-1.34,0.11-1.66-0.48c-0.2-0.37-0.2-0.82,0-1.18c-0.2-0.37-0.2-0.82,0-1.18
	c0.33-0.59,1.07-0.81,1.66-0.48l1.07,0.59c0.2,0.11,0.37,0.28,0.48,0.48C85.14,33.22,84.92,33.96,84.33,34.29z M78.15,31.53
	l-1.96-1.08c-0.59-0.33-0.81-1.07-0.48-1.67c0.33-0.59,1.07-0.81,1.66-0.48l1.96,1.08c0.59,0.33,0.81,1.07,0.48,1.66
	C79.49,31.64,78.74,31.86,78.15,31.53z M76.19,35.98l1.96-1.08c0.59-0.33,1.34-0.11,1.66,0.48c0.33,0.59,0.11,1.34-0.48,1.66
	l-1.96,1.08c-0.18,0.1-0.38,0.15-0.59,0.15v0c-0.45,0-0.86-0.24-1.07-0.63C75.38,37.06,75.6,36.31,76.19,35.98z M73.45,40.3
	l-0.49,0.27l11.37,6.28c0.39,0.22,0.63,0.63,0.63,1.07s-0.24,0.86-0.63,1.07l-11.37,6.28l11.37,6.28c0.2,0.11,0.37,0.28,0.48,0.48
	c0.33,0.59,0.11,1.34-0.48,1.66L48.84,83.31c-0.37,0.2-0.81,0.2-1.18,0L12.17,63.7c-0.2-0.11-0.37-0.28-0.48-0.48
	c-0.33-0.59-0.11-1.34,0.48-1.67l11.37-6.28l-11.37-6.28c-0.2-0.11-0.37-0.28-0.48-0.48c-0.33-0.59-0.11-1.34,0.48-1.66l11.37-6.28
	l-0.49-0.27c-0.59-0.33-0.81-1.07-0.48-1.66c0.33-0.59,1.07-0.81,1.66-0.48l1.96,1.08c0.08,0.04,0.79,0.44,0.95,0.74
	c0.33,0.59,0.11,1.34-0.48,1.66l-11.37,6.28l32.96,18.21l32.96-18.2l-11.37-6.28c-0.59-0.33-0.81-1.07-0.48-1.66
	c0.16-0.3,0.87-0.7,0.95-0.74l1.96-1.08c0.59-0.33,1.34-0.11,1.66,0.48C74.26,39.23,74.04,39.97,73.45,40.3z M48.84,68.6
	c-0.37,0.2-0.82,0.2-1.18,0L26.07,56.67l-10.78,5.95l32.96,18.21l32.96-18.21l-10.78-5.95L48.84,68.6z M72.27,28.28l-1.96-1.08
	c-0.58-0.33-0.8-1.07-0.48-1.66c0.32-0.59,1.06-0.81,1.66-0.49l1.96,1.08c0.59,0.33,0.81,1.07,0.48,1.66
	C73.6,28.39,72.86,28.6,72.27,28.28z M67.57,43.55l-1.96,1.08c-0.59,0.33-1.34,0.11-1.66-0.48c-0.33-0.59-0.11-1.34,0.48-1.66
	l1.96-1.08c0.59-0.33,1.34-0.11,1.66,0.48C68.37,42.48,68.16,43.22,67.57,43.55z M66.38,25.03l-1.96-1.08
	c-0.59-0.33-0.81-1.07-0.48-1.66c0.33-0.59,1.07-0.81,1.66-0.48l1.96,1.08c0.59,0.33,0.81,1.07,0.48,1.66
	C67.72,25.14,66.97,25.35,66.38,25.03z M61.68,46.8l-1.96,1.08c-0.59,0.33-1.34,0.11-1.66-0.48c-0.33-0.59-0.11-1.34,0.48-1.66
	l1.96-1.08c0,0,0.01,0,0.01-0.01c0.59-0.32,1.34-0.1,1.66,0.49C62.49,45.73,62.27,46.48,61.68,46.8z M60.5,21.78l-1.96-1.08
	c-0.59-0.33-0.81-1.07-0.48-1.66c0.33-0.59,1.07-0.81,1.66-0.48l1.96,1.08c0.58,0.33,0.8,1.07,0.48,1.65
	C61.84,21.88,61.09,22.1,60.5,21.78z M52.65,48.99l1.96-1.08c0.59-0.33,1.34-0.11,1.66,0.48c0.33,0.59,0.11,1.34-0.48,1.66
	l-1.96,1.08c-0.18,0.1-0.38,0.15-0.59,0.15c-0.45,0-0.86-0.24-1.07-0.63C51.84,50.06,52.06,49.32,52.65,48.99z M54.61,18.53
	l-1.96-1.08c-0.59-0.33-0.81-1.07-0.48-1.66c0.33-0.59,1.07-0.81,1.66-0.48l1.96,1.08c0.59,0.33,0.81,1.07,0.48,1.67
	C55.95,18.64,55.21,18.85,54.61,18.53z M47.77,51.16l0.48,0.27l0.48-0.27c0.59-0.33,1.34-0.11,1.66,0.48
	c0.33,0.59,0.11,1.34-0.48,1.67l-1.07,0.59c-0.37,0.2-0.81,0.2-1.18,0l-1.07-0.59c-0.59-0.33-0.81-1.07-0.48-1.67
	C46.43,51.05,47.18,50.83,47.77,51.16z M48.73,15.27l-0.48-0.27l-0.48,0.27h0c-0.59,0.33-1.34,0.11-1.66-0.48
	c-0.33-0.59-0.11-1.34,0.48-1.66l1.07-0.59c0.37-0.2,0.82-0.2,1.18,0l1.07,0.59c0.59,0.33,0.81,1.07,0.48,1.66
	C50.06,15.39,49.32,15.6,48.73,15.27z M42.66,51.14l-1.96-1.08c-0.59-0.33-0.81-1.07-0.48-1.67c0.33-0.59,1.07-0.81,1.66-0.48
	l1.96,1.08c0.59,0.33,0.81,1.07,0.48,1.66C44,51.25,43.25,51.46,42.66,51.14z M43.84,17.44l-1.96,1.08
	c-0.18,0.1-0.38,0.15-0.59,0.15v0c-0.45,0-0.86-0.24-1.07-0.63c-0.33-0.59-0.11-1.34,0.48-1.66l1.96-1.08
	c0.59-0.33,1.34-0.11,1.66,0.48C44.65,16.37,44.44,17.11,43.84,17.44z M36.78,47.88l-1.96-1.08c-0.58-0.33-0.8-1.07-0.48-1.65
	c0.32-0.59,1.07-0.81,1.66-0.49l1.96,1.08c0.59,0.33,0.81,1.07,0.48,1.66C38.11,48,37.37,48.21,36.78,47.88z M37.96,20.69L36,21.78
	c-0.18,0.1-0.38,0.15-0.59,0.15l0,0c-0.45,0-0.86-0.24-1.07-0.63c-0.33-0.59-0.11-1.34,0.48-1.66l1.96-1.08
	c0.59-0.33,1.34-0.11,1.66,0.48C38.77,19.62,38.55,20.37,37.96,20.69z M30.11,41.4l1.96,1.08c0.59,0.33,0.81,1.07,0.48,1.66
	c-0.33,0.59-1.07,0.81-1.66,0.48l-1.96-1.08c-0.59-0.33-0.81-1.07-0.48-1.67C28.78,41.29,29.52,41.08,30.11,41.4z M32.08,23.94
	l-1.96,1.08c-0.18,0.1-0.38,0.15-0.59,0.15c-0.45,0-0.86-0.24-1.07-0.63c-0.33-0.59-0.11-1.34,0.48-1.67l1.96-1.08
	c0.59-0.33,1.34-0.11,1.66,0.48C32.88,22.87,32.67,23.62,32.08,23.94z M26.19,27.19l-1.96,1.08c-0.18,0.1-0.38,0.15-0.59,0.15v0
	c-0.45,0-0.86-0.24-1.07-0.63c-0.33-0.59-0.11-1.34,0.48-1.66l1.96-1.08c0.01,0,0.01-0.01,0.01-0.01c0.59-0.32,1.34-0.1,1.66,0.49
	C27,26.13,26.78,26.87,26.19,27.19z M19.12,38.13l-1.96-1.08c-0.59-0.33-0.81-1.07-0.48-1.66c0.33-0.59,1.07-0.81,1.66-0.48
	l1.96,1.08c0.59,0.33,0.81,1.07,0.48,1.67C20.46,38.24,19.71,38.46,19.12,38.13z M20.31,30.45l-1.96,1.08
	c-0.18,0.1-0.38,0.15-0.59,0.15l0,0c-0.45,0-0.86-0.24-1.07-0.63c-0.33-0.59-0.11-1.34,0.48-1.66l1.96-1.08
	c0.59-0.33,1.34-0.11,1.66,0.48C21.11,29.37,20.9,30.12,20.31,30.45z M14.9,34.4c-0.33,0.59-1.07,0.81-1.66,0.48l-1.07-0.59l0,0
	c-0.2-0.11-0.37-0.28-0.48-0.48c-0.33-0.59-0.11-1.34,0.48-1.67l1.07-0.59c0.37-0.2,0.81-0.2,1.18,0c0.59,0.33,0.81,1.07,0.48,1.67
	C15.1,33.58,15.1,34.03,14.9,34.4z"/>
</svg>
