<?xml version="1.0" encoding="utf-8"?>
<!-- Generator: Adobe Illustrator 24.1.0, SVG Export Plug-In . SVG Version: 6.00 Build 0)  -->
<svg version="1.1" id="Layer_1" xmlns="http://www.w3.org/2000/svg" xmlns:xlink="http://www.w3.org/1999/xlink" x="0px" y="0px"
	 viewBox="0 0 110 110" style="enable-background:new 0 0 110 110;" xml:space="preserve">
<style type="text/css">
	.st0{fill:#EEEEEE;}
	.st1{fill-rule:evenodd;clip-rule:evenodd;fill:#AAAAAA;}
</style>
<circle class="st0" cx="55" cy="55" r="55"/>
<path class="st1" d="M81.21,55.62c-1.35-0.03-2.7-0.01-4.05-0.01c-0.2,0-0.4,0-0.66,0c0,0.26,0,0.45,0,0.63
	c0,2.4,0.08,4.81-0.03,7.21c-0.08,1.69,0.23,3.19,1.14,4.61c0.3,0.47,0.61,0.83,1.12,1.07c0.73,0.35,1.43,0.76,2.16,1.13
	c0.44,0.22,0.74,0.53,0.73,1.03c-0.01,0.48-0.29,0.78-0.72,0.99c-0.86,0.44-1.72,0.88-2.56,1.36c-0.21,0.12-0.39,0.33-0.53,0.53
	c-1.12,1.59-1.57,3.34-1.32,5.27c0.01,0.07,0,0.14,0,0.21c0,1.17-0.3,1.47-1.47,1.47c-12.59,0-25.17,0-37.76,0
	c-1.2,0-1.49-0.29-1.49-1.5c0-7.78,0-15.56,0-23.33c0-0.2,0-0.41,0-0.67c-0.35,0-0.64,0-0.92,0c-1.38,0-2.77,0-4.15,0
	c-0.49,0-0.87-0.2-1.05-0.69c-0.17-0.47-0.02-0.84,0.33-1.17c0.09-0.08,0.17-0.17,0.26-0.25c3.21-3.02,6.43-6.03,9.64-9.05
	c1.16-1.08,2.31-2.17,3.5-3.3c-0.38-0.2-0.71-0.38-1.05-0.55c-0.43-0.21-0.74-0.51-0.74-1.03c0-0.52,0.31-0.8,0.74-1.03
	c1.18-0.61,2.36-1.22,3.52-1.86c0.22-0.12,0.44-0.34,0.56-0.56c0.65-1.18,1.28-2.37,1.9-3.57c0.22-0.42,0.52-0.69,1-0.69
	c0.49,0,0.79,0.28,1,0.7c0.23,0.46,0.48,0.9,0.74,1.39c0.91-0.83,1.76-1.62,2.62-2.39c1.66-1.49,3.16-1.48,4.81,0.04
	c2.28,2.09,4.56,4.19,6.83,6.28c0.58,0.53,1.16,1.06,1.81,1.65c0-1.33,0-2.54,0-3.75c-1.37-0.51-1.76-1.08-1.76-2.53
	c0-0.73-0.01-1.45,0-2.18c0.02-1.22,0.86-2.11,2.08-2.12c3.11-0.02,6.22-0.02,9.34,0c1.22,0.01,2.05,0.9,2.06,2.14
	c0.01,0.69,0.01,1.38,0,2.07c0,1.55-0.34,2.05-1.77,2.63c-0.01,0.08-0.02,0.16-0.02,0.25c0,4.15-0.01,8.3,0.01,12.44
	c0,0.22,0.16,0.49,0.32,0.64c1.56,1.49,3.15,2.96,4.71,4.45c0.22,0.21,0.39,0.48,0.58,0.72c0,0.21,0,0.41,0,0.62
	C82.35,55.49,81.84,55.64,81.21,55.62z M75.48,74.15c0.47-1.47,1.44-2.36,2.86-2.88c-1.47-0.46-2.35-1.44-2.88-2.85
	c-0.49,1.45-1.43,2.36-2.88,2.87C74.08,71.74,74.95,72.74,75.48,74.15z M43.42,79.01c2.72,0,5.42,0,8.14,0c0-2.47,0-4.9,0-7.38
	c-0.56,0-1.09,0.01-1.62,0c-0.71-0.01-1.17-0.42-1.17-1.03c0-0.63,0.44-1.03,1.16-1.04c0.53-0.01,1.06,0,1.62,0c0-2.5,0-4.94,0-7.39
	c-2.73,0-5.43,0-8.13,0C43.42,67.8,43.42,73.39,43.42,79.01z M37.89,79.02c1.15,0,2.26,0,3.43,0c0-0.22,0-0.4,0-0.59
	c0-5.67,0-11.34,0-17.01c0-1.01,0.37-1.39,1.37-1.39c3.16,0,6.33,0,9.49,0c1.18,0,1.48,0.3,1.48,1.47c0,5.63,0,11.27,0,16.9
	c0,0.2,0,0.4,0,0.6c6.96,0,13.84,0,20.73,0c0.08-1.32,0.19-2.6-0.67-3.71c-0.12-0.15-0.21-0.33-0.26-0.5
	c-0.31-1.01-1.16-1.37-2.05-1.75c-0.19,0.78-0.72,0.98-1.44,0.98c-3.98-0.02-7.95-0.01-11.93-0.01c-0.96,0-1.32-0.35-1.32-1.31
	c0-3.79,0-7.57,0-11.36c0-0.95,0.36-1.3,1.33-1.31c3.99,0,7.99,0,11.98,0c0.98,0,1.35,0.37,1.36,1.34c0,2.52,0,5.05,0,7.57
	c0,0.18,0.01,0.36,0.02,0.55c0.95-0.34,1.72-0.79,2.07-1.77c0.18-0.5,0.5-0.94,0.73-1.43c0.11-0.24,0.2-0.52,0.2-0.78
	c0.01-3.11,0.01-6.22,0.01-9.33c0-0.17-0.02-0.34-0.03-0.57c-0.23,0-0.43,0-0.64,0c-4.28,0-8.56,0-12.85-0.01c0,0,0,0,0,0
	c-3.8,0-18.55,0-22.36,0c-0.22,0-0.43,0-0.66,0C37.89,63.46,37.89,71.23,37.89,79.02z M65.11,68.12c0,1.28,0,2.52,0,3.78
	c1.44,0,2.81,0,4.17,0c0-1.29,0-2.55,0-3.78C67.86,68.12,66.49,68.12,65.11,68.12z M69.27,65.95c0-1.3,0-2.55,0-3.79
	c-1.42,0-2.79,0-4.16,0c0,1.28,0,2.52,0,3.79C66.52,65.95,67.9,65.95,69.27,65.95z M58.83,68.1c0,1.28,0,2.53,0,3.8
	c1.4,0,2.77,0,4.15,0c0-1.28,0-2.52,0-3.8C61.57,68.1,60.21,68.1,58.83,68.1z M62.96,65.97c0-1.29,0-2.55,0-3.81
	c-1.4,0-2.76,0-4.14,0c0,1.28,0,2.52,0,3.81C60.23,65.97,61.59,65.97,62.96,65.97z M50.6,37.52c-0.45-0.75-0.83-1.54-1.28-2.39
	c-0.44,0.84-0.82,1.61-1.26,2.34c-0.21,0.33-0.51,0.65-0.85,0.85c-0.73,0.44-1.5,0.81-2.34,1.26c0.83,0.44,1.59,0.8,2.31,1.24
	c0.35,0.21,0.67,0.53,0.89,0.88c0.45,0.73,0.82,1.5,1.26,2.32c0.31-0.58,0.62-1.07,0.83-1.59c0.39-0.97,1.05-1.62,2.01-2.02
	c0.53-0.22,1.02-0.53,1.61-0.84c-0.87-0.46-1.65-0.84-2.39-1.28C51.07,38.11,50.78,37.82,50.6,37.52z M76.75,31.06
	c-3.11,0-6.17,0-9.27,0c0,0.87,0,1.71,0,2.6c3.12,0,6.2,0,9.27,0C76.75,32.77,76.75,31.91,76.75,31.06z M69.26,36.22
	c-0.02,1.64-0.02,3.28,0,4.92c0,0.21,0.13,0.46,0.29,0.61c1.67,1.6,3.36,3.18,5.05,4.76c0.1,0.1,0.22,0.18,0.37,0.29
	c0-3.7,0-7.32,0-11.02c-1.86,0-3.65-0.01-5.44,0.02C69.43,35.8,69.26,36.07,69.26,36.22z M78.71,53.22
	c-6.06-5.64-12.12-11.28-18.18-16.92c-1.2-1.12-2.41-2.23-3.63-3.33c-0.58-0.52-0.98-0.58-1.47-0.15c-1.13,0.99-2.23,2.01-3.45,3.12
	c0.32,0.29,0.56,0.6,0.88,0.78c1.13,0.63,2.28,1.22,3.43,1.82c0.43,0.22,0.76,0.51,0.77,1.02c0.01,0.53-0.33,0.83-0.77,1.06
	c-1.18,0.61-2.36,1.23-3.52,1.86c-0.21,0.12-0.42,0.31-0.53,0.52c-0.63,1.15-1.24,2.31-1.84,3.48c-0.23,0.44-0.49,0.79-1.04,0.8
	c-0.58,0.01-0.85-0.36-1.08-0.82c-0.61-1.18-1.23-2.36-1.86-3.53c-0.38-0.72-1-0.82-1.58-0.28c-3.69,3.47-7.38,6.94-11.07,10.41
	c-0.13,0.12-0.26,0.24-0.49,0.47c0.36,0,0.56,0,0.76,0c5.27,0,21.31,0,26.74,0c4.73,0,9.46,0,14.18,0c1.31,0,2.62,0,4.07,0
	C78.85,53.37,78.78,53.29,78.71,53.22z M42.2,36.04c-0.83,0.5-1.71,0.9-2.55,1.38c-0.26,0.15-0.51,0.4-0.66,0.67
	c-0.47,0.81-0.89,1.64-1.31,2.47c-0.21,0.41-0.51,0.69-1,0.69c-0.49,0-0.78-0.29-1-0.7c-0.28-0.55-0.64-1.07-0.86-1.65
	c-0.37-0.97-1.04-1.57-1.98-1.96c-0.54-0.22-1.04-0.54-1.56-0.8c-0.43-0.22-0.75-0.51-0.75-1.02c0-0.51,0.31-0.81,0.74-1.03
	c0.83-0.42,1.66-0.84,2.47-1.3c0.25-0.14,0.48-0.38,0.63-0.63c0.47-0.82,0.9-1.67,1.34-2.51c0.21-0.4,0.5-0.66,0.96-0.67
	c0.49-0.01,0.8,0.26,1.02,0.67c0.45,0.87,0.9,1.75,1.38,2.61c0.11,0.2,0.3,0.38,0.5,0.49c0.87,0.49,1.76,0.94,2.65,1.41
	c0.41,0.21,0.62,0.53,0.67,1.19C42.71,35.5,42.51,35.86,42.2,36.04z M36.67,32.24c-0.49,1.43-1.41,2.37-2.86,2.86
	c1.44,0.49,2.35,1.45,2.88,2.85c0.47-1.46,1.44-2.34,2.84-2.87C38.07,34.61,37.19,33.64,36.67,32.24z"/>
</svg>
