<?xml version="1.0" encoding="utf-8"?>
<!-- Generator: Adobe Illustrator 24.1.0, SVG Export Plug-In . SVG Version: 6.00 Build 0)  -->
<svg version="1.1" id="Layer_1" xmlns="http://www.w3.org/2000/svg" xmlns:xlink="http://www.w3.org/1999/xlink" x="0px" y="0px"
	 viewBox="0 0 22 22" style="enable-background:new 0 0 22 22;" xml:space="preserve">
<g>
	<path fill="#aaaaaa" d="M11,20.5c-2.43,0-4.87-0.93-6.72-2.78C2.49,15.92,1.5,13.54,1.5,11c0-2.54,0.99-4.92,2.78-6.72S8.46,1.5,11,1.5
		c2.54,0,4.92,0.99,6.72,2.78c3.7,3.7,3.7,9.73,0,13.44C15.87,19.57,13.43,20.5,11,20.5z M11,2.5c-2.27,0-4.4,0.88-6.01,2.49
		S2.5,8.73,2.5,11c0,2.27,0.88,4.41,2.49,6.01c3.31,3.31,8.71,3.31,12.02,0c3.31-3.31,3.31-8.71,0-12.02l0,0
		C15.41,3.38,13.27,2.5,11,2.5z"/>
</g>
<g>
	<path fill="#aaaaaa" d="M11,15.92c-0.28,0-0.5-0.22-0.5-0.5V9.96c0-0.28,0.22-0.5,0.5-0.5s0.5,0.22,0.5,0.5v5.46C11.5,15.69,11.28,15.92,11,15.92z
		"/>
</g>
<g>
	<path fill="#aaaaaa" d="M11,7.76c-0.28,0-0.5-0.22-0.5-0.5V6.58c0-0.28,0.22-0.5,0.5-0.5s0.5,0.22,0.5,0.5v0.68C11.5,7.54,11.28,7.76,11,7.76z"/>
</g>
</svg>
