<?xml version="1.0" encoding="utf-8"?>
<!-- Generator: Adobe Illustrator 24.1.0, SVG Export Plug-In . SVG Version: 6.00 Build 0)  -->
<svg version="1.1" id="Layer_1" xmlns="http://www.w3.org/2000/svg" xmlns:xlink="http://www.w3.org/1999/xlink" x="0px" y="0px"
	 viewBox="0 0 100 60" style="enable-background:new 0 0 100 60;" xml:space="preserve">
<style type="text/css">
	.st0{fill-rule:evenodd;clip-rule:evenodd;fill:#AAAAAA;}
</style>
<path class="st0" d="M69.67,58H21.71V14.74h14.42v1.8H23.51v16.2c1.61,5.52,5.27,10.21,10.24,13.11l0.45-1.68
	c-0.94-0.64-1.37-1.81-1.09-2.91l5.92-22.07c-1.95-2.85-1.24-6.75,1.6-8.72V7.53c0-1.99,1.61-3.61,3.61-3.61
	c1.99,0,3.61,1.61,3.61,3.61v2.94c2.84,1.97,3.56,5.87,1.6,8.72l5.91,22.07c0.29,1.1-0.15,2.27-1.08,2.91l0.74,2.77
	c0.06,0.23,0.03,0.48-0.09,0.68c-0.12,0.21-0.32,0.36-0.55,0.42c-0.08,0.02-0.15,0.03-0.23,0.03c-0.41,0-0.77-0.28-0.87-0.67
	l-0.74-2.78c-1.14-0.07-2.11-0.87-2.39-1.98l-2.97-11.06c-0.67,0.12-1.35,0.21-2.04,0.24v0.93c0,0.5-0.4,0.9-0.9,0.9
	c-0.5,0-0.9-0.4-0.9-0.9v-0.93c-0.68-0.04-1.37-0.12-2.04-0.24l-2.97,11.06c-0.28,1.11-1.25,1.91-2.39,1.98l-0.56,2.09
	c3.04,1.48,6.38,2.25,9.76,2.26c0.5,0,0.9,0.4,0.9,0.9c0,0.5-0.4,0.9-0.9,0.9c-9.11-0.03-17.45-5.13-21.63-13.23V56.2h46.15
	c2.38-0.01,4.31-1.94,4.32-4.32v-0.19c0-2.49-2.02-4.51-4.51-4.51c-2.49,0-4.51,2.02-4.51,4.51c0,0.5-0.4,0.9-0.9,0.9
	c-0.5,0-0.9-0.4-0.9-0.9V16.54H52.35v-1.8h10.89c0.45-3.1,3.1-5.4,6.24-5.41c3.48,0,6.31,2.83,6.31,6.31v36.24
	C75.78,55.26,73.04,58,69.67,58z M46.04,7.53c0-1-0.81-1.8-1.8-1.8c-1,0-1.8,0.81-1.8,1.8V9.6c1.18-0.35,2.43-0.35,3.61,0V7.53z
	 M48.4,13.92c-0.7-1.68-2.34-2.78-4.16-2.78c-2.49,0-4.5,2.02-4.51,4.51c0,1.82,1.1,3.47,2.78,4.16c1.68,0.7,3.62,0.31,4.91-0.98
	C48.72,17.54,49.1,15.6,48.4,13.92z M51.89,42.19c0.06,0.23,0.21,0.43,0.41,0.55c0.21,0.12,0.45,0.15,0.68,0.09h0.01
	c0.48-0.14,0.76-0.63,0.63-1.1L47.99,20.7c-0.5,0.37-1.05,0.66-1.63,0.87L51.89,42.19z M43.34,30.01v-0.85c0-0.5,0.4-0.9,0.9-0.9
	c0.5,0,0.9,0.4,0.9,0.9v0.85c0.52-0.03,1.05-0.09,1.56-0.18l-2.12-7.89c-0.12,0.01-0.23,0.02-0.35,0.02c-0.12,0-0.23-0.01-0.35-0.02
	l-2.12,7.89C42.29,29.92,42.82,29.98,43.34,30.01z M35.49,42.84L35.49,42.84c0.48,0.12,0.97-0.16,1.1-0.64l5.53-20.62
	c-0.58-0.21-1.13-0.5-1.63-0.87l-5.64,21.03C34.73,42.21,35.01,42.7,35.49,42.84z M73.98,15.64c0-2.49-2.02-4.51-4.51-4.51
	c-2.49,0-4.51,2.02-4.51,4.51v31.64c1.19-1.21,2.81-1.9,4.51-1.9c1.7,0,3.32,0.68,4.51,1.9V15.64z M44.24,18.34
	c-1.49,0-2.7-1.21-2.7-2.7c0-1.09,0.66-2.08,1.67-2.5c1.01-0.42,2.17-0.19,2.95,0.59c0.77,0.77,1,1.94,0.59,2.95
	C46.32,17.69,45.33,18.34,44.24,18.34z M45.07,15.29c-0.14-0.34-0.47-0.56-0.83-0.56c-0.5,0-0.9,0.4-0.9,0.9
	c0,0.36,0.22,0.69,0.56,0.83c0.34,0.14,0.72,0.06,0.98-0.2C45.13,16.02,45.21,15.63,45.07,15.29z"/>
</svg>
