<?xml version="1.0" encoding="utf-8"?>
<!-- Generator: Adobe Illustrator 24.1.0, SVG Export Plug-In . SVG Version: 6.00 Build 0)  -->
<svg version="1.1" id="icones" xmlns="http://www.w3.org/2000/svg" xmlns:xlink="http://www.w3.org/1999/xlink" x="0px" y="0px"
	 viewBox="0 0 14.18 14.18" style="enable-background:new 0 0 14.18 14.18;" xml:space="preserve">
<path fill="#ffc700" d="M10.64,0.71L10.64,0.71c0.39,0.39,0.39,1.02,0,1.41L4.98,7.78c-0.39,0.39-1.02,0.39-1.41,0l0,0c-0.39-0.39-0.39-1.02,0-1.41
	l5.66-5.66C9.61,0.32,10.25,0.32,10.64,0.71z"/>
<path fill="#ffc700" d="M10.64,13.46L10.64,13.46c-0.39,0.39-1.02,0.39-1.41,0L3.57,7.81c-0.39-0.39-0.39-1.02,0-1.41l0,0C3.96,6,4.59,6,4.98,6.39
	l5.66,5.66C11.03,12.44,11.03,13.07,10.64,13.46z"/>
</svg>
