<?xml version="1.0" encoding="utf-8"?>
<!-- Generator: Adobe Illustrator 24.1.0, SVG Export Plug-In . SVG Version: 6.00 Build 0)  -->
<svg version="1.1" id="Layer_1" xmlns="http://www.w3.org/2000/svg" xmlns:xlink="http://www.w3.org/1999/xlink" x="0px" y="0px"
	 viewBox="0 0 110 110" style="enable-background:new 0 0 110 110;" xml:space="preserve">
<style type="text/css">
	.st0{fill:#EEEEEE;}
	.st1{fill-rule:evenodd;clip-rule:evenodd;fill:#AAAAAA;}
</style>
<circle class="st0" cx="55" cy="55" r="55"/>
<path class="st1" d="M81.53,28.33c-0.21-0.21-0.5-0.33-0.79-0.33l-27.59,0c-0.62,0-1.12,0.5-1.12,1.12v3.21l-10.63,2.85
	c-0.6,0.16-0.95,0.78-0.79,1.37l5.51,20.57l-4.77,4.77c-0.61-0.89-1.63-1.47-2.78-1.47H27.79c-1.86,0-3.37,1.51-3.37,3.36v18.28
	c0,1.86,1.51,3.36,3.37,3.36h10.77c1.58,0,2.9-1.09,3.27-2.55l1.33,1.16c1.03,0.9,2.35,1.39,3.71,1.39h33.86
	c0.62,0,1.12-0.5,1.12-1.12V29.13C81.86,28.83,81.74,28.54,81.53,28.33z M39.68,82.07c0,0.62-0.5,1.12-1.12,1.12H27.79
	c-0.62,0-1.12-0.5-1.12-1.12V63.79c0-0.62,0.5-1.12,1.12-1.12h1.57h2.69h2.24h2.36h1.91c0.62,0,1.12,0.5,1.12,1.12V82.07z
	 M43.05,37.06l8.97-2.4v4.16l-0.75,0.2c-0.29,0.08-0.53,0.27-0.68,0.52c-0.15,0.26-0.19,0.56-0.11,0.85
	c0.43,1.61-0.53,3.27-2.14,3.7c-0.29,0.08-0.53,0.27-0.68,0.52c-0.15,0.26-0.19,0.57-0.11,0.85l4.37,16.19h-2.25l-1.16-4.54
	c-0.04-0.14-0.1-0.28-0.19-0.39L43.05,37.06z M52.02,43.96v9.47l-2.05-7.58C50.83,45.41,51.53,44.75,52.02,43.96z M68.13,83.19
	H46.87c-0.82,0-1.62-0.3-2.24-0.84l-2.71-2.36V64.48l4.9-4.9l0.89,3.47c0.13,0.5,0.57,0.84,1.09,0.84l22.05,0
	c0.87,0,1.57,0.71,1.57,1.57c0,0.87-0.7,1.57-1.57,1.57h-11.3c-0.62,0-1.12,0.5-1.12,1.12c0,0.62,0.5,1.12,1.12,1.12h14.81
	c0.87,0,1.57,0.7,1.57,1.57c0,0.87-0.7,1.57-1.57,1.57H59.55c-0.62,0-1.12,0.5-1.12,1.12c0,0.62,0.5,1.12,1.12,1.12h12.41
	c0.87,0,1.57,0.7,1.57,1.57c0,0.87-0.71,1.57-1.57,1.57H59.55c-0.62,0-1.12,0.5-1.12,1.12c0,0.62,0.5,1.12,1.12,1.12h8.59
	c0.87,0,1.57,0.7,1.57,1.57C69.7,82.49,69,83.19,68.13,83.19z M75.18,52v2.37v0.75V58v9.13c-0.26-0.06-0.54-0.09-0.82-0.09h-0.04
	c0.22-0.48,0.34-1.01,0.34-1.57c0-2.1-1.71-3.81-3.81-3.81h-1.8c1.92-0.82,3.26-2.72,3.26-4.94c0-2.96-2.41-5.37-5.37-5.37
	c-2.96,0-5.37,2.41-5.37,5.37c0,2.21,1.35,4.11,3.26,4.94H58.7V40.33c2-0.44,3.59-2.02,4.02-4.02h8.44c0.44,2,2.02,3.58,4.02,4.02
	V52z M66.94,59.85c-1.72,0-3.12-1.4-3.12-3.12c0-1.72,1.4-3.12,3.12-3.12c1.72,0,3.12,1.4,3.12,3.12
	C70.06,58.44,68.66,59.85,66.94,59.85z M79.61,83.19h-8.01c0.22-0.48,0.34-1.01,0.34-1.57c0-0.56-0.12-1.09-0.34-1.57h0.35
	c2.1,0,3.81-1.71,3.81-3.81c0-0.61-0.15-1.19-0.41-1.71c1.62-0.44,2.8-1.92,2.8-3.68c0-0.85-0.28-1.64-0.75-2.27V55.11c0,0,0,0,0,0
	v-0.76c0,0,0,0,0,0V39.33c0-0.62-0.5-1.12-1.12-1.12c-1.67,0-3.02-1.35-3.02-3.02c0-0.62-0.5-1.12-1.12-1.12H61.72
	c-0.62,0-1.12,0.5-1.12,1.12c0,1.67-1.35,3.02-3.02,3.02c-0.62,0-1.12,0.5-1.12,1.12v22.33h-2.19V30.25l25.35,0V83.19z"/>
</svg>
