<?xml version="1.0" encoding="utf-8"?>
<!-- Generator: Adobe Illustrator 24.1.0, SVG Export Plug-In . SVG Version: 6.00 Build 0)  -->
<svg version="1.1" id="Layer_1" xmlns="http://www.w3.org/2000/svg" xmlns:xlink="http://www.w3.org/1999/xlink" x="0px" y="0px"
	 viewBox="0 0 110 110" style="enable-background:new 0 0 110 110;" xml:space="preserve">
<style type="text/css">
	.st0{fill:#EEEEEE;}
	.st1{fill-rule:evenodd;clip-rule:evenodd;fill:#AAAAAA;}
</style>
<circle class="st0" cx="55" cy="55" r="55"/>
<path class="st1" d="M82.95,63.75c0,9.84-8,17.84-17.84,17.84c-5.13,0-9.77-2.18-13.03-5.67H39.72c-2.66,0-4.83-2.17-4.83-4.83
	c0-1.53,0.72-2.89,1.83-3.78c-1.11-0.89-1.83-2.25-1.83-3.78c0-1.53,0.72-2.89,1.83-3.78c-1.11-0.88-1.83-2.25-1.83-3.78
	c0-1.53,0.72-2.89,1.83-3.78c-1.11-0.89-1.83-2.25-1.83-3.78c0-2.66,2.17-4.83,4.83-4.83h2.74c-0.53-0.78-0.85-1.72-0.85-2.73
	c0-1.01,0.31-1.95,0.85-2.73h-8.4c-2.66,0-4.83-2.17-4.83-4.83c0-2.66,2.16-4.83,4.83-4.83h25.71c2.66,0,4.83,2.17,4.83,4.83
	c0,1.01-0.31,1.95-0.85,2.73h8.4c2.66,0,4.83,2.17,4.83,4.83c0,2.66-2.17,4.83-4.83,4.83h-2.73c0.18,0.27,0.34,0.55,0.47,0.86
	C77.41,48.64,82.95,55.56,82.95,63.75z M39.72,73.82H50.4c-1.13-1.64-1.99-3.48-2.52-5.46h-8.16c-1.5,0-2.73,1.22-2.73,2.73
	C36.99,72.6,38.21,73.82,39.72,73.82z M39.72,66.26h7.73c-0.12-0.82-0.18-1.66-0.18-2.52c0-1,0.08-1.98,0.24-2.94h-7.8
	c-1.5,0-2.73,1.22-2.73,2.73C36.99,65.04,38.21,66.26,39.72,66.26z M39.72,58.71H48c0.58-1.98,1.51-3.82,2.7-5.46H39.72
	c-1.5,0-2.73,1.22-2.73,2.73C36.99,57.49,38.21,58.71,39.72,58.71z M39.72,45.7c-1.5,0-2.73,1.22-2.73,2.73
	c0,1.5,1.22,2.73,2.73,2.73h12.77c3.23-3.24,7.7-5.25,12.62-5.25c0.51,0,1.01,0.02,1.51,0.06c-0.36-0.18-0.77-0.27-1.19-0.27H39.72z
	 M59.76,30.59H34.05c-1.5,0-2.73,1.22-2.73,2.73c0,1.5,1.22,2.73,2.73,2.73h25.71c1.51,0,2.73-1.22,2.73-2.73
	C62.49,31.81,61.27,30.59,59.76,30.59z M72.14,43.6c1.51,0,2.73-1.22,2.73-2.73c0-1.5-1.22-2.73-2.73-2.73H46.43
	c-1.5,0-2.73,1.22-2.73,2.73c0,1.5,1.22,2.73,2.73,2.73h18.99H72.14z M65.11,48.01c-8.68,0-15.74,7.06-15.74,15.74
	c0,8.68,7.06,15.74,15.74,15.74s15.74-7.06,15.74-15.74C80.85,55.07,73.79,48.01,65.11,48.01z M69.5,70.35
	c-0.41,0.4-0.89,0.71-1.43,0.95s-1.11,0.4-1.69,0.5v2.09h-2.11v-2.06c-1.19-0.17-2.24-0.63-3.16-1.38c-0.92-0.74-1.58-1.81-1.98-3.2
	l2.73-1.11c0.16,0.63,0.45,1.2,0.88,1.69c0.43,0.5,0.94,0.84,1.54,1.03v-4.5l-0.21-0.09c-0.59-0.22-1.13-0.48-1.65-0.78
	c-0.51-0.3-0.96-0.65-1.35-1.04c-0.39-0.39-0.7-0.84-0.92-1.34c-0.23-0.5-0.34-1.06-0.34-1.67c0-0.57,0.1-1.11,0.31-1.61
	c0.21-0.51,0.5-0.96,0.89-1.35c0.39-0.4,0.86-0.72,1.41-0.98c0.55-0.26,1.18-0.43,1.87-0.51v-2.04h2.11v2.08
	c0.63,0.1,1.18,0.26,1.65,0.5c0.47,0.24,0.87,0.51,1.21,0.82c0.34,0.31,0.61,0.64,0.82,0.98c0.21,0.35,0.36,0.69,0.47,1.02
	l-2.65,1.19c-0.11-0.32-0.28-0.62-0.52-0.9c-0.24-0.28-0.56-0.51-0.97-0.69v4.24c0.68,0.28,1.29,0.58,1.85,0.88s1.03,0.64,1.42,1.02
	c0.4,0.38,0.7,0.81,0.9,1.29c0.21,0.48,0.31,1.04,0.31,1.67c0,0.71-0.12,1.34-0.37,1.9S69.91,69.95,69.5,70.35z M64.27,57.79
	c-0.47,0.13-0.85,0.33-1.14,0.62c-0.28,0.28-0.43,0.62-0.43,1.02c0,0.38,0.12,0.71,0.37,0.98c0.25,0.28,0.64,0.56,1.2,0.84V57.79z
	 M67.49,66.04c-0.22-0.27-0.59-0.54-1.11-0.81v3.63c0.43-0.14,0.77-0.37,1.04-0.68c0.27-0.31,0.4-0.68,0.4-1.13
	C67.82,66.64,67.71,66.31,67.49,66.04z"/>
</svg>
