<?xml version="1.0" encoding="utf-8"?>
<!-- Generator: Adobe Illustrator 24.1.0, SVG Export Plug-In . SVG Version: 6.00 Build 0)  -->
<svg version="1.1" id="Layer_1" xmlns="http://www.w3.org/2000/svg" xmlns:xlink="http://www.w3.org/1999/xlink" x="0px" y="0px"
	 viewBox="0 0 96 96" style="enable-background:new 0 0 96 96;" xml:space="preserve">
<style type="text/css">
	.st0{fill-rule:evenodd;clip-rule:evenodd;fill:#ABABAB;}
</style>
<path class="st0" d="M69.48,51.27c0,0.79,0.64,1.43,1.43,1.43c0.79,0,1.43-0.64,1.43-1.43c0-0.62,0.51-1.13,1.13-1.13
	c0.62,0,1.13,0.51,1.13,1.13c0,2.04-1.66,3.69-3.69,3.69c-2.03,0-3.69-1.66-3.69-3.69c0-0.62,0.5-1.13,1.13-1.13
	C68.98,50.14,69.48,50.64,69.48,51.27z M49.13,28.24c0,2.45-1.47,3.8-3.62,4.1v0.68c0,0.24-0.3,0.46-0.6,0.46
	c-0.34,0-0.58-0.22-0.58-0.46V32.4c-2.47-0.04-4.14-1.37-4.14-2.35c0-0.48,0.42-1.13,0.91-1.13c0.66,0,1.19,1.39,3.23,1.55v-4.68
	c-1.79-0.64-3.78-1.35-3.78-3.9c0-2.51,1.89-3.5,3.78-3.7v-0.58c0-0.24,0.24-0.46,0.58-0.46c0.3,0,0.6,0.22,0.6,0.46v0.54
	c1.35,0.04,3.26,0.46,3.26,1.43c0,0.38-0.28,1.14-0.88,1.14c-0.48,0-1-0.64-2.39-0.74v4.04C47.24,24.66,49.13,25.53,49.13,28.24z
	 M44.45,20.02c-1.11,0.14-1.91,0.64-1.91,1.67c0,1.14,0.86,1.55,1.91,1.95V20.02z M45.39,26.23v4.2c1.07-0.2,1.75-0.84,1.75-1.97
	C47.14,27.21,46.37,26.65,45.39,26.23z M84.08,63.71l-5.12,1.64c-0.28,0.09-0.53,0.29-0.69,0.57c-2.2,3.8-5.6,6.93-10.11,9.31
	l-1.6,8.46c-0.25,1.3-1.39,2.25-2.72,2.25h-5.33c-1.33,0-2.47-0.95-2.72-2.25l-0.82-4.35c-2.27,0.32-4.59,0.48-6.92,0.48
	c-1.7,0-3.37-0.09-4.99-0.26l-0.78,4.12c-0.25,1.3-1.39,2.25-2.72,2.25h-5.33c-1.33,0-2.47-0.95-2.72-2.25l-1.54-7.97
	c-3.72-2.02-6.64-4.72-8.67-8.01c-2.21-3.57-3.33-7.76-3.33-12.46c0-0.63,0.02-1.25,0.06-1.86c-0.2-0.02-0.4-0.04-0.61-0.06
	c-0.21,0.46-0.49,0.91-0.82,1.33c-2.14,2.68-4.37,3.19-5.75,3.19c-0.09,0-0.17,0-0.25-0.01c-0.63-0.03-1.13-0.55-1.13-1.18v-0.01
	c0-0.64,0.51-1.16,1.16-1.18c1.1-0.04,2.79-0.43,4.22-2.23c0.08-0.1,0.15-0.2,0.22-0.3c-2.43-0.52-3.89-1.35-4.46-2.52
	c-0.34-0.69-0.51-1.82,0.56-3.24c0.74-0.98,1.81-1.46,2.94-1.31c1.43,0.19,2.77,1.37,3.43,2.99c0.3,0.74,0.43,1.5,0.41,2.25
	c0.11,0.01,0.22,0.02,0.32,0.03c1.02-6.99,4.74-12.49,10.91-16.05c0.54-0.31,1.23-0.13,1.54,0.41c0.31,0.54,0.13,1.23-0.41,1.54
	c-3.18,1.84-5.65,4.25-7.34,7.17c-1.81,3.12-2.73,6.84-2.73,11.04c0,8.31,3.81,14.74,11.01,18.58c0.48,0.25,0.81,0.7,0.91,1.23
	l1.58,8.2c0.05,0.24,0.26,0.42,0.5,0.42h5.33c0.24,0,0.45-0.17,0.5-0.41l0.86-4.56c0.17-0.91,1.03-1.54,1.96-1.44
	c1.67,0.19,3.41,0.29,5.18,0.29c2.37,0,4.74-0.18,7.03-0.52c0.95-0.14,1.84,0.48,2.02,1.43l0.91,4.8c0.04,0.24,0.25,0.41,0.5,0.41
	h5.33c0.24,0,0.45-0.17,0.5-0.41l1.64-8.68c0.1-0.54,0.44-0.99,0.93-1.25c4.23-2.2,7.39-5.07,9.4-8.55
	c0.44-0.76,1.13-1.32,1.95-1.58l5.12-1.64c0.83-0.27,1.39-1.04,1.39-1.91v-5.27c0-0.88-0.56-1.64-1.39-1.91l-3.18-1.02
	c-1.11-0.35-1.97-1.23-2.32-2.34c-0.6-1.89-1.5-3.67-2.67-5.29c-0.29-0.4-0.6-0.79-0.92-1.17c-0.7,1.9-1.59,3.17-2.65,3.77
	c-0.94,0.53-2.22,0.83-3.6,0.83c-1.84,0-3.87-0.53-5.56-1.76c-1.43-1.05-2.44-2.46-2.99-4.21c-0.62-1.95-0.66-4.26-0.11-6.87
	c0.01-0.05,0.02-0.1,0.04-0.15c-0.4-0.1-0.8-0.19-1.21-0.28c-0.3-0.07-0.61-0.13-0.93-0.19c-0.57,0.86-1.22,1.67-1.97,2.42
	c-0.84,0.84-1.75,1.56-2.72,2.17h0c0.7,0.18,1.4,0.39,2.09,0.62c0.59,0.2,0.91,0.84,0.71,1.43c-0.16,0.47-0.6,0.77-1.07,0.77
	c-0.12,0-0.24-0.02-0.36-0.06c-6.16-2.06-12.94-2.06-19.1,0c-0.59,0.2-1.23-0.12-1.43-0.71c-0.2-0.59,0.12-1.23,0.71-1.43
	c0.69-0.23,1.39-0.44,2.09-0.62c0,0,0,0,0,0c-0.97-0.61-1.88-1.33-2.72-2.17C30.61,33.3,29,29.43,29,25.32
	c0-4.12,1.6-7.99,4.51-10.9c2.91-2.91,6.78-4.51,10.9-4.51s7.99,1.6,10.9,4.51c1.17,1.17,2.13,2.5,2.87,3.97
	c0.28,0.56,0.06,1.24-0.5,1.52c-0.56,0.28-1.24,0.06-1.52-0.5c-0.63-1.25-1.45-2.39-2.45-3.39c-2.48-2.48-5.79-3.85-9.3-3.85
	s-6.82,1.37-9.3,3.85c-2.48,2.48-3.85,5.79-3.85,9.3s1.37,6.82,3.85,9.3c1.39,1.39,3.02,2.4,4.76,3.04c3.01-0.42,6.08-0.42,9.09,0
	c1.74-0.64,3.37-1.65,4.76-3.04c2.33-2.33,3.69-5.42,3.84-8.71c0.03-0.62,0.56-1.11,1.18-1.08c0.62,0.03,1.11,0.56,1.08,1.18
	c-0.09,2-0.57,3.94-1.38,5.72c0.08,0.02,0.17,0.03,0.25,0.05c0.7,0.15,1.39,0.32,2.07,0.5c0.21-0.15,0.43-0.29,0.67-0.4
	c10.07-4.61,11.93-3.64,12.54-3.32c1.14,0.59,1.71,2.28,1.76,5.16c0.03,2.01-0.22,4.34-0.69,6.4c0.73,0.75,1.4,1.54,2.01,2.37
	c1.32,1.81,2.33,3.81,3,5.94c0.13,0.41,0.45,0.74,0.86,0.87l3.18,1.02c1.77,0.57,2.96,2.2,2.96,4.06v5.27
	C87.04,61.51,85.85,63.14,84.08,63.71z M15.43,49.71c-0.39-0.96-1.11-1.53-1.63-1.6c-0.03,0-0.07-0.01-0.11-0.01
	c-0.19,0-0.45,0.07-0.73,0.44c-0.17,0.23-0.45,0.65-0.33,0.9c0.26,0.54,1.48,1.01,3.04,1.33C15.64,50.31,15.53,49.93,15.43,49.71z
	 M72.89,30.56c-0.09-0.04-0.23-0.06-0.41-0.06c-1.21,0-4.47,0.85-10.12,3.43c-0.4,0.18-0.69,0.54-0.77,0.94l0,0
	c-0.86,4.06-0.09,7.1,2.22,8.79c2.31,1.69,5.38,1.54,6.71,0.79c1.17-0.66,2.34-3.84,2.77-7.56C73.73,33.15,73.25,30.95,72.89,30.56z
	"/>
</svg>
