<?xml version="1.0" encoding="utf-8"?>
<!-- Generator: Adobe Illustrator 24.1.0, SVG Export Plug-In . SVG Version: 6.00 Build 0)  -->
<svg version="1.1" id="Layer_1" xmlns="http://www.w3.org/2000/svg" xmlns:xlink="http://www.w3.org/1999/xlink" x="0px" y="0px"
	 viewBox="0 0 100 60" style="enable-background:new 0 0 100 60;" xml:space="preserve">
<style type="text/css">
	.st0{fill-rule:evenodd;clip-rule:evenodd;fill:#AAAAAA;}
</style>
<path class="st0" d="M72.63,31.83l-8.07,5.58v16.05c0,1.95-1.57,3.53-3.51,3.53H36.44c-1.94,0-3.51-1.58-3.51-3.53V37.42l-8.07-5.58
	c-0.71-0.49-1.14-1.31-1.14-2.18c0-0.87,0.43-1.68,1.14-2.18l8.07-5.58V7.6c0-1.95,1.57-3.53,3.51-3.53h24.61
	c1.94,0,3.51,1.58,3.51,3.53v14.29l8.07,5.58c0.71,0.49,1.14,1.31,1.14,2.18C73.77,30.52,73.35,31.34,72.63,31.83z M32.93,24.03
	l-7.07,4.9h0c-0.24,0.16-0.38,0.44-0.38,0.73c0,0.29,0.14,0.56,0.38,0.73l7.07,4.89V24.03z M41.99,5.84l1.13,1.21
	c0.33,0.36,0.8,0.56,1.28,0.56h8.7c0.49,0,0.95-0.2,1.28-0.56l1.13-1.21H41.99z M62.81,22.82l-0.34-0.24
	c-0.29-0.2-0.43-0.56-0.36-0.91c0.08-0.35,0.35-0.62,0.7-0.68V7.6c0-0.97-0.79-1.76-1.76-1.76h-3.14l-2.25,2.41
	C55,8.96,54.07,9.36,53.1,9.36h-8.7c-0.97,0-1.9-0.4-2.56-1.11l-2.25-2.41h-3.14c-0.97,0-1.76,0.79-1.76,1.76v13.38
	c0.35,0.06,0.63,0.33,0.7,0.68c0.08,0.35-0.07,0.71-0.36,0.91l-0.34,0.24v13.67l13.56,9.39c0.3,0.21,0.7,0.21,1,0l13.56-9.39V22.82z
	 M62.81,38.63l-12.56,8.7c-0.9,0.62-2.09,0.62-2.99,0l-12.57-8.7v10.43c0,0.97,0.79,1.76,1.76,1.76h24.61
	c0.97,0,1.76-0.79,1.76-1.76V38.63z M62.81,52.1c-0.53,0.32-1.14,0.49-1.76,0.49H36.44c-0.62,0-1.23-0.17-1.76-0.49v1.37
	c0,0.97,0.79,1.76,1.76,1.76h24.61c0.97,0,1.76-0.79,1.76-1.76V52.1z M71.63,28.93l-7.07-4.89v11.24l7.07-4.89
	c0.24-0.16,0.38-0.44,0.38-0.73C72.01,29.36,71.87,29.09,71.63,28.93z M48.75,34.95c-0.16,0-0.33-0.05-0.47-0.13l-7.03-4.41
	c-0.26-0.16-0.41-0.44-0.41-0.75v-7.94c0-0.3,0.16-0.59,0.41-0.75l7.03-4.41c0.28-0.18,0.65-0.18,0.93,0l7.03,4.41
	c0.26,0.16,0.41,0.44,0.41,0.75v7.94c0,0.3-0.16,0.59-0.41,0.75l-7.03,4.41C49.07,34.9,48.91,34.95,48.75,34.95z M42.6,29.17
	l5.27,3.31v-5.86l-5.27-3.31V29.17z M48.75,18.34l-5.37,3.37l5.37,3.37l5.37-3.37L48.75,18.34z M49.63,32.48l5.27-3.31v-5.86
	l-5.27,3.31V32.48z M58.4,17.62l1.69,1.17c0.26,0.18,0.4,0.48,0.38,0.8c-0.03,0.31-0.22,0.59-0.5,0.73
	c-0.28,0.14-0.62,0.11-0.88-0.07l-1.69-1.17c-0.39-0.28-0.48-0.82-0.21-1.22C57.47,17.46,58,17.36,58.4,17.62z M54.03,16.74
	l-1.68-1.17c-0.28-0.17-0.44-0.48-0.43-0.81c0.02-0.33,0.22-0.62,0.52-0.75c0.3-0.14,0.65-0.09,0.9,0.11l1.69,1.17
	c0.39,0.28,0.48,0.82,0.21,1.22C54.97,16.9,54.43,17.01,54.03,16.74z M48.97,13.24l-0.22-0.16l-0.22,0.16
	c-0.4,0.26-0.93,0.16-1.21-0.24c-0.27-0.39-0.18-0.93,0.21-1.21l0.72-0.5c0.3-0.21,0.7-0.21,1,0l0.72,0.5
	c0.39,0.28,0.48,0.82,0.21,1.21C49.91,13.4,49.37,13.5,48.97,13.24z M43.46,16.74c-0.15,0.1-0.32,0.16-0.5,0.16
	c-0.39,0-0.73-0.25-0.84-0.62c-0.11-0.37,0.02-0.77,0.34-0.99l1.69-1.17c0.26-0.19,0.6-0.22,0.89-0.09
	c0.29,0.13,0.48,0.42,0.51,0.74c0.02,0.32-0.13,0.63-0.4,0.8L43.46,16.74z M38.41,20.24c-0.4,0.26-0.94,0.16-1.21-0.24
	c-0.27-0.4-0.18-0.94,0.21-1.22l1.68-1.17h0c0.4-0.26,0.94-0.16,1.21,0.24c0.27,0.4,0.18,0.94-0.21,1.22L38.41,20.24z"/>
</svg>
